<svg xmlns="http://www.w3.org/2000/svg" xmlns:xlink="http://www.w3.org/1999/xlink" width="1500" zoomAndPan="magnify" viewBox="0 0 1125 585.000005" height="780" preserveAspectRatio="xMidYMid meet" version="1.2"><defs><clipPath id="7a34cc77b0"><path d="M 0.960938 0 L 1124.039062 0 L 1124.039062 584 L 0.960938 584 Z M 0.960938 0 "/></clipPath><clipPath id="84cfc5df75"><path d="M 268.152344 223.714844 L 330.359375 223.714844 L 330.359375 263.300781 L 268.152344 263.300781 Z M 268.152344 223.714844 "/></clipPath><clipPath id="c086e0cb42"><path d="M 676.734375 98.226562 L 1065.320312 98.226562 L 1065.320312 421.671875 L 676.734375 421.671875 Z M 676.734375 98.226562 "/></clipPath></defs><g id="c931a8a82e"><g clip-rule="nonzero" clip-path="url(#7a34cc77b0)"><path style=" stroke:none;fill-rule:nonzero;fill:#ffffff;fill-opacity:1;" d="M 0.960938 0 L 1124.039062 0 L 1124.039062 584 L 0.960938 584 Z M 0.960938 0 "/><path style=" stroke:none;fill-rule:nonzero;fill:#ffffff;fill-opacity:1;" d="M 0.960938 0 L 0.960938 584 L 1124.039062 584 L 1124.039062 0 Z M 0.960938 0 "/></g><g clip-rule="nonzero" clip-path="url(#84cfc5df75)"><path style=" stroke:none;fill-rule:nonzero;fill:#003900;fill-opacity:1;" d="M 293.882812 245.769531 C 293.882812 245.085938 294.4375 244.535156 295.117188 244.535156 L 298.488281 244.535156 C 299.171875 244.535156 299.726562 245.085938 299.726562 245.769531 C 299.726562 246.453125 299.171875 247.007812 298.488281 247.007812 L 295.117188 247.007812 C 294.4375 247.007812 293.882812 246.453125 293.882812 245.769531 Z M 284.671875 245.769531 C 284.671875 245.085938 285.222656 244.535156 285.90625 244.535156 L 289.277344 244.535156 C 289.960938 244.535156 290.511719 245.085938 290.511719 245.769531 C 290.511719 246.453125 289.960938 247.007812 289.277344 247.007812 L 285.90625 247.007812 C 285.222656 247.007812 284.671875 246.453125 284.671875 245.769531 Z M 275.457031 245.769531 C 275.457031 245.085938 276.011719 244.535156 276.695312 244.535156 L 280.0625 244.535156 C 280.746094 244.535156 281.300781 245.085938 281.300781 245.769531 C 281.300781 246.453125 280.746094 247.007812 280.0625 247.007812 L 276.695312 247.007812 C 276.011719 247.007812 275.457031 246.453125 275.457031 245.769531 Z M 317.128906 237.945312 C 317.691406 237.082031 318.019531 236.054688 318.019531 234.953125 C 318.019531 233.847656 317.691406 232.824219 317.128906 231.960938 C 318.632812 232.132812 319.808594 233.402344 319.808594 234.953125 C 319.808594 236.503906 318.632812 237.769531 317.128906 237.945312 Z M 309.492188 234.953125 C 309.492188 233.402344 310.667969 232.132812 312.171875 231.960938 C 311.613281 232.824219 311.28125 233.847656 311.28125 234.953125 C 311.28125 236.054688 311.613281 237.082031 312.171875 237.945312 C 310.667969 237.769531 309.492188 236.503906 309.492188 234.953125 Z M 313.753906 234.953125 C 313.753906 234.113281 314.097656 233.355469 314.648438 232.808594 C 315.203125 233.355469 315.546875 234.113281 315.546875 234.953125 C 315.546875 235.789062 315.203125 236.550781 314.648438 237.097656 C 314.097656 236.550781 313.753906 235.789062 313.753906 234.953125 Z M 316.78125 229.453125 C 316.027344 229.453125 315.304688 229.605469 314.648438 229.882812 C 313.996094 229.605469 313.273438 229.453125 312.519531 229.453125 C 309.484375 229.453125 307.019531 231.917969 307.019531 234.953125 C 307.019531 237.984375 309.484375 240.453125 312.519531 240.453125 C 313.273438 240.453125 313.996094 240.300781 314.648438 240.023438 C 315.304688 240.300781 316.027344 240.453125 316.78125 240.453125 C 319.816406 240.453125 322.285156 237.984375 322.285156 234.953125 C 322.285156 231.917969 319.816406 229.453125 316.78125 229.453125 Z M 319.808594 254.484375 L 277.933594 254.484375 L 277.933594 252.457031 L 319.808594 252.457031 Z M 321.046875 249.984375 L 276.695312 249.984375 C 276.011719 249.984375 275.457031 250.535156 275.457031 251.21875 L 275.457031 255.722656 C 275.457031 256.402344 276.011719 256.957031 276.695312 256.957031 L 321.046875 256.957031 C 321.730469 256.957031 322.285156 256.402344 322.285156 255.722656 L 322.285156 251.21875 C 322.285156 250.535156 321.730469 249.984375 321.046875 249.984375 Z M 327.535156 258.351562 C 327.535156 259.71875 326.425781 260.828125 325.0625 260.828125 L 273.101562 260.828125 C 271.738281 260.828125 270.628906 259.71875 270.628906 258.351562 L 270.628906 228.660156 C 270.628906 227.296875 271.738281 226.1875 273.101562 226.1875 L 325.0625 226.1875 C 326.425781 226.1875 327.535156 227.296875 327.535156 228.660156 Z M 325.0625 223.714844 L 273.101562 223.714844 C 270.375 223.714844 268.152344 225.933594 268.152344 228.660156 L 268.152344 258.351562 C 268.152344 261.082031 270.375 263.300781 273.101562 263.300781 L 325.0625 263.300781 C 327.789062 263.300781 330.007812 261.082031 330.007812 258.351562 L 330.007812 228.660156 C 330.007812 225.933594 327.789062 223.714844 325.0625 223.714844 "/></g><g style="fill:#003900;fill-opacity:1;"><g transform="translate(268.003026, 285.334103)"><path style="stroke:none" d="M 6.796875 0 L 3.90625 0 L 3.90625 -5.578125 C 3.90625 -6.253906 3.914062 -6.875 3.9375 -7.4375 C 3.757812 -7.21875 3.539062 -6.992188 3.28125 -6.765625 L 2.078125 -5.78125 L 0.609375 -7.59375 L 4.21875 -10.546875 L 6.796875 -10.546875 Z M 6.796875 0 "/></g></g><g style="fill:#003900;fill-opacity:1;"><g transform="translate(276.647567, 285.334103)"><path style="stroke:none" d="M 8.09375 0 L 0.4375 0 L 0.4375 -1.875 L 3.015625 -4.484375 C 3.742188 -5.242188 4.222656 -5.765625 4.453125 -6.046875 C 4.679688 -6.328125 4.835938 -6.566406 4.921875 -6.765625 C 5.015625 -6.972656 5.0625 -7.1875 5.0625 -7.40625 C 5.0625 -7.6875 4.972656 -7.90625 4.796875 -8.0625 C 4.617188 -8.21875 4.367188 -8.296875 4.046875 -8.296875 C 3.710938 -8.296875 3.375 -8.203125 3.03125 -8.015625 C 2.695312 -7.828125 2.316406 -7.546875 1.890625 -7.171875 L 0.328125 -9 C 0.867188 -9.488281 1.320312 -9.835938 1.6875 -10.046875 C 2.0625 -10.253906 2.460938 -10.410156 2.890625 -10.515625 C 3.328125 -10.628906 3.820312 -10.6875 4.375 -10.6875 C 5.050781 -10.6875 5.65625 -10.566406 6.1875 -10.328125 C 6.726562 -10.085938 7.144531 -9.742188 7.4375 -9.296875 C 7.738281 -8.859375 7.890625 -8.363281 7.890625 -7.8125 C 7.890625 -7.394531 7.835938 -7.007812 7.734375 -6.65625 C 7.628906 -6.3125 7.46875 -5.96875 7.25 -5.625 C 7.03125 -5.289062 6.742188 -4.9375 6.390625 -4.5625 C 6.035156 -4.1875 5.273438 -3.472656 4.109375 -2.421875 L 4.109375 -2.34375 L 8.09375 -2.34375 Z M 8.09375 0 "/></g></g><g style="fill:#003900;fill-opacity:1;"><g transform="translate(285.292107, 285.334103)"><path style="stroke:none" d="M 10.640625 0 L 7.34375 0 L 5.28125 -3.296875 L 3.25 0 L 0.03125 0 L 3.53125 -5.390625 L 0.234375 -10.546875 L 3.390625 -10.546875 L 5.296875 -7.28125 L 7.125 -10.546875 L 10.375 -10.546875 L 7.046875 -5.171875 Z M 10.640625 0 "/></g></g><g style="fill:#003900;fill-opacity:1;"><g transform="translate(295.960916, 285.334103)"><path style="stroke:none" d=""/></g></g><g style="fill:#003900;fill-opacity:1;"><g transform="translate(299.793329, 285.334103)"><path style="stroke:none" d="M 8.03125 -3.203125 C 8.03125 -2.546875 7.863281 -1.960938 7.53125 -1.453125 C 7.195312 -0.953125 6.71875 -0.5625 6.09375 -0.28125 C 5.46875 0 4.738281 0.140625 3.90625 0.140625 C 3.195312 0.140625 2.601562 0.09375 2.125 0 C 1.65625 -0.101562 1.164062 -0.273438 0.65625 -0.515625 L 0.65625 -3.0625 C 1.195312 -2.78125 1.757812 -2.5625 2.34375 -2.40625 C 2.925781 -2.25 3.460938 -2.171875 3.953125 -2.171875 C 4.378906 -2.171875 4.691406 -2.242188 4.890625 -2.390625 C 5.085938 -2.535156 5.1875 -2.722656 5.1875 -2.953125 C 5.1875 -3.097656 5.144531 -3.222656 5.0625 -3.328125 C 4.988281 -3.441406 4.863281 -3.550781 4.6875 -3.65625 C 4.507812 -3.769531 4.039062 -4 3.28125 -4.34375 C 2.59375 -4.65625 2.078125 -4.957031 1.734375 -5.25 C 1.390625 -5.539062 1.132812 -5.875 0.96875 -6.25 C 0.800781 -6.632812 0.71875 -7.085938 0.71875 -7.609375 C 0.71875 -8.578125 1.070312 -9.332031 1.78125 -9.875 C 2.488281 -10.414062 3.457031 -10.6875 4.6875 -10.6875 C 5.78125 -10.6875 6.894531 -10.4375 8.03125 -9.9375 L 7.15625 -7.734375 C 6.175781 -8.179688 5.328125 -8.40625 4.609375 -8.40625 C 4.234375 -8.40625 3.960938 -8.34375 3.796875 -8.21875 C 3.628906 -8.09375 3.546875 -7.929688 3.546875 -7.734375 C 3.546875 -7.523438 3.648438 -7.335938 3.859375 -7.171875 C 4.078125 -7.015625 4.660156 -6.71875 5.609375 -6.28125 C 6.515625 -5.875 7.144531 -5.4375 7.5 -4.96875 C 7.851562 -4.5 8.03125 -3.910156 8.03125 -3.203125 Z M 8.03125 -3.203125 "/></g></g><g style="fill:#003900;fill-opacity:1;"><g transform="translate(308.308202, 285.334103)"><path style="stroke:none" d="M 7.390625 0 L 1.140625 0 L 1.140625 -10.546875 L 7.390625 -10.546875 L 7.390625 -8.25 L 3.984375 -8.25 L 3.984375 -6.59375 L 7.140625 -6.59375 L 7.140625 -4.3125 L 3.984375 -4.3125 L 3.984375 -2.328125 L 7.390625 -2.328125 Z M 7.390625 0 "/></g></g><g style="fill:#003900;fill-opacity:1;"><g transform="translate(316.405255, 285.334103)"><path style="stroke:none" d="M 5.734375 0 L 3.578125 -7.59375 L 3.515625 -7.59375 C 3.609375 -6.300781 3.65625 -5.296875 3.65625 -4.578125 L 3.65625 0 L 1.140625 0 L 1.140625 -10.546875 L 4.9375 -10.546875 L 7.125 -3.0625 L 7.1875 -3.0625 L 9.34375 -10.546875 L 13.140625 -10.546875 L 13.140625 0 L 10.53125 0 L 10.53125 -4.625 C 10.53125 -4.863281 10.53125 -5.128906 10.53125 -5.421875 C 10.539062 -5.710938 10.578125 -6.429688 10.640625 -7.578125 L 10.5625 -7.578125 L 8.4375 0 Z M 5.734375 0 "/></g></g><g style="fill:#003900;fill-opacity:1;"><g transform="translate(276.026778, 305.874906)"><path style="stroke:none" d="M 0.3125 3.3125 C -0.207031 3.3125 -0.703125 3.257812 -1.171875 3.15625 L -1.171875 0.9375 C -1.015625 0.96875 -0.847656 1 -0.671875 1.03125 C -0.503906 1.070312 -0.316406 1.09375 -0.109375 1.09375 C 0.359375 1.09375 0.691406 0.953125 0.890625 0.671875 C 1.097656 0.390625 1.203125 -0.09375 1.203125 -0.78125 L 1.203125 -10.546875 L 4.0625 -10.546875 L 4.0625 -1.03125 C 4.0625 0.394531 3.75 1.472656 3.125 2.203125 C 2.5 2.941406 1.5625 3.3125 0.3125 3.3125 Z M 0.3125 3.3125 "/></g></g><g style="fill:#003900;fill-opacity:1;"><g transform="translate(281.220711, 305.874906)"><path style="stroke:none" d="M 10.09375 -10.546875 L 10.09375 -4.203125 C 10.09375 -2.816406 9.703125 -1.742188 8.921875 -0.984375 C 8.140625 -0.234375 7.015625 0.140625 5.546875 0.140625 C 4.109375 0.140625 3.003906 -0.222656 2.234375 -0.953125 C 1.460938 -1.691406 1.078125 -2.75 1.078125 -4.125 L 1.078125 -10.546875 L 3.9375 -10.546875 L 3.9375 -4.359375 C 3.9375 -3.609375 4.078125 -3.066406 4.359375 -2.734375 C 4.640625 -2.398438 5.050781 -2.234375 5.59375 -2.234375 C 6.175781 -2.234375 6.597656 -2.398438 6.859375 -2.734375 C 7.117188 -3.066406 7.25 -3.613281 7.25 -4.375 L 7.25 -10.546875 Z M 10.09375 -10.546875 "/></g></g><g style="fill:#003900;fill-opacity:1;"><g transform="translate(292.386576, 305.874906)"><path style="stroke:none" d="M 3.984375 -3.828125 L 3.984375 0 L 1.140625 0 L 1.140625 -10.546875 L 4.59375 -10.546875 C 7.457031 -10.546875 8.890625 -9.503906 8.890625 -7.421875 C 8.890625 -6.203125 8.296875 -5.257812 7.109375 -4.59375 L 10.171875 0 L 6.9375 0 L 4.703125 -3.828125 Z M 3.984375 -5.984375 L 4.515625 -5.984375 C 5.515625 -5.984375 6.015625 -6.421875 6.015625 -7.296875 C 6.015625 -8.023438 5.523438 -8.390625 4.546875 -8.390625 L 3.984375 -8.390625 Z M 3.984375 -5.984375 "/></g></g><g style="fill:#003900;fill-opacity:1;"><g transform="translate(302.37102, 305.874906)"><path style="stroke:none" d="M 11 -5.28125 C 11 -3.507812 10.5625 -2.160156 9.6875 -1.234375 C 8.820312 -0.316406 7.550781 0.140625 5.875 0.140625 C 4.21875 0.140625 2.945312 -0.320312 2.0625 -1.25 C 1.1875 -2.175781 0.75 -3.523438 0.75 -5.296875 C 0.75 -7.054688 1.1875 -8.394531 2.0625 -9.3125 C 2.9375 -10.238281 4.210938 -10.703125 5.890625 -10.703125 C 7.566406 -10.703125 8.835938 -10.242188 9.703125 -9.328125 C 10.566406 -8.410156 11 -7.0625 11 -5.28125 Z M 3.75 -5.28125 C 3.75 -3.25 4.457031 -2.234375 5.875 -2.234375 C 6.59375 -2.234375 7.125 -2.476562 7.46875 -2.96875 C 7.820312 -3.46875 8 -4.238281 8 -5.28125 C 8 -6.332031 7.820312 -7.109375 7.46875 -7.609375 C 7.113281 -8.117188 6.585938 -8.375 5.890625 -8.375 C 4.460938 -8.375 3.75 -7.34375 3.75 -5.28125 Z M 3.75 -5.28125 "/></g></g><g style="fill:#003900;fill-opacity:1;"><g transform="translate(314.127595, 305.874906)"><path style="stroke:none" d="M 8.03125 -3.203125 C 8.03125 -2.546875 7.863281 -1.960938 7.53125 -1.453125 C 7.195312 -0.953125 6.71875 -0.5625 6.09375 -0.28125 C 5.46875 0 4.738281 0.140625 3.90625 0.140625 C 3.195312 0.140625 2.601562 0.09375 2.125 0 C 1.65625 -0.101562 1.164062 -0.273438 0.65625 -0.515625 L 0.65625 -3.0625 C 1.195312 -2.78125 1.757812 -2.5625 2.34375 -2.40625 C 2.925781 -2.25 3.460938 -2.171875 3.953125 -2.171875 C 4.378906 -2.171875 4.691406 -2.242188 4.890625 -2.390625 C 5.085938 -2.535156 5.1875 -2.722656 5.1875 -2.953125 C 5.1875 -3.097656 5.144531 -3.222656 5.0625 -3.328125 C 4.988281 -3.441406 4.863281 -3.550781 4.6875 -3.65625 C 4.507812 -3.769531 4.039062 -4 3.28125 -4.34375 C 2.59375 -4.65625 2.078125 -4.957031 1.734375 -5.25 C 1.390625 -5.539062 1.132812 -5.875 0.96875 -6.25 C 0.800781 -6.632812 0.71875 -7.085938 0.71875 -7.609375 C 0.71875 -8.578125 1.070312 -9.332031 1.78125 -9.875 C 2.488281 -10.414062 3.457031 -10.6875 4.6875 -10.6875 C 5.78125 -10.6875 6.894531 -10.4375 8.03125 -9.9375 L 7.15625 -7.734375 C 6.175781 -8.179688 5.328125 -8.40625 4.609375 -8.40625 C 4.234375 -8.40625 3.960938 -8.34375 3.796875 -8.21875 C 3.628906 -8.09375 3.546875 -7.929688 3.546875 -7.734375 C 3.546875 -7.523438 3.648438 -7.335938 3.859375 -7.171875 C 4.078125 -7.015625 4.660156 -6.71875 5.609375 -6.28125 C 6.515625 -5.875 7.144531 -5.4375 7.5 -4.96875 C 7.851562 -4.5 8.03125 -3.910156 8.03125 -3.203125 Z M 8.03125 -3.203125 "/></g></g><g clip-rule="nonzero" clip-path="url(#c086e0cb42)"><path style=" stroke:none;fill-rule:nonzero;fill:#005600;fill-opacity:1;" d="M 1004.785156 258.285156 C 1001.292969 259.457031 997.792969 260.605469 994.289062 261.738281 C 994.449219 259.824219 994.566406 257.894531 994.636719 255.957031 C 1000.449219 254.570312 1006.332031 253.167969 1012.746094 251.640625 C 1011.832031 257.433594 1007.652344 257.320312 1004.785156 258.285156 Z M 737.117188 203.65625 C 735.8125 203.761719 734.585938 204.792969 733.320312 205.398438 C 733.417969 205.894531 733.511719 206.394531 733.609375 206.894531 C 738.066406 206.78125 742.519531 206.578125 746.976562 206.589844 C 750.164062 206.597656 753.351562 206.671875 756.539062 206.800781 C 757.0625 205.457031 757.609375 204.121094 758.179688 202.800781 C 757.507812 202.753906 756.832031 202.710938 756.15625 202.660156 C 749.863281 202.203125 743.457031 203.140625 737.117188 203.65625 Z M 992.132812 157.296875 C 984.632812 156.398438 977.257812 156.890625 970.171875 159.472656 C 967.773438 160.347656 965.859375 162.484375 963.503906 163.558594 C 962.1875 164.160156 960.820312 164.703125 959.425781 165.148438 C 981.246094 187.398438 994.730469 217.851562 994.730469 251.402344 C 994.730469 252.269531 994.714844 253.132812 994.695312 254 C 999.085938 252.367188 1003.53125 250.710938 1008.285156 248.941406 C 1006.675781 247.332031 1005.910156 246.566406 1004.828125 245.484375 C 1012.105469 243.527344 1019.121094 241.730469 1026.070312 239.703125 C 1027.363281 239.324219 1028.390625 238.035156 1029.542969 237.164062 C 1028.183594 236.589844 1026.789062 235.460938 1025.472656 235.546875 C 1021.582031 235.796875 1017.722656 236.527344 1013.472656 236.203125 C 1015.914062 234.910156 1018.355469 233.617188 1020.792969 232.320312 C 1020.714844 231.882812 1020.636719 231.449219 1020.558594 231.011719 C 1018.808594 230.800781 1017.058594 230.585938 1015.074219 230.347656 C 1016.355469 228.007812 1017.207031 225 1019.167969 223.171875 C 1022.953125 219.636719 1022.511719 216.425781 1019.554688 212.875 C 1023.140625 210.515625 1026.527344 208.285156 1029.917969 206.054688 C 1029.824219 205.640625 1029.730469 205.226562 1029.636719 204.816406 C 1019.488281 200.828125 1007.953125 200.917969 998.265625 194.574219 C 1003.3125 194.445312 1007.183594 192.261719 1009.890625 188.371094 C 1011.230469 186.453125 1012.847656 184.070312 1012.761719 181.960938 C 1012.609375 178.253906 1014.636719 176.609375 1017.171875 175.039062 C 1023.316406 171.230469 1029.539062 167.539062 1035.660156 163.691406 C 1037.039062 162.820312 1038.128906 161.492188 1039.351562 160.375 C 1039.089844 159.855469 1038.828125 159.339844 1038.5625 158.820312 C 1034.902344 159.921875 1031.164062 160.824219 1027.601562 162.1875 C 1024.046875 163.546875 1020.796875 165.808594 1017.175781 166.835938 C 1014.71875 167.535156 1011.8125 167.023438 1009.175781 166.609375 C 1006.589844 166.207031 1004.089844 165.25 1000.980469 164.378906 C 1003.09375 163.28125 1004.96875 161.816406 1007.078125 161.296875 C 1015.722656 159.15625 1024.441406 157.300781 1033.132812 155.339844 C 1034.621094 155.003906 1036.195312 154.863281 1037.566406 154.261719 C 1038.429688 153.878906 1038.992188 152.808594 1039.6875 152.046875 C 1038.820312 151.476562 1037.921875 150.378906 1037.089844 150.425781 C 1033.132812 150.644531 1029.140625 150.910156 1025.253906 151.644531 C 1016.226562 153.355469 1007.261719 155.414062 998.246094 157.175781 C 996.269531 157.558594 994.144531 157.535156 992.132812 157.296875 Z M 957.300781 382.578125 C 953.621094 383.019531 950.648438 382.289062 947.394531 380.226562 C 942.886719 377.367188 933.238281 379.421875 929.449219 383.183594 C 927.234375 385.382812 927.429688 386.820312 931.113281 390.367188 C 934.410156 392.609375 939.09375 394.007812 944.011719 393.195312 C 948.882812 392.390625 953.695312 390.972656 958.367188 389.335938 C 959.703125 388.871094 961.109375 386.808594 961.320312 385.316406 C 961.707031 382.5625 959.085938 382.363281 957.300781 382.578125 Z M 698.476562 312.535156 C 698.324219 313.03125 698.101562 313.503906 697.914062 313.984375 C 698.164062 314.347656 698.414062 314.707031 698.667969 315.066406 C 699.625 314.804688 700.59375 314.570312 701.542969 314.273438 C 704.566406 313.328125 707.597656 312.410156 710.582031 311.363281 C 711.171875 311.15625 712.074219 310.152344 711.976562 309.957031 C 711.488281 309.007812 710.878906 307.898438 710 307.414062 C 706.707031 305.589844 699.632812 308.828125 698.476562 312.535156 Z M 748.597656 321.664062 C 748.851562 322.558594 749.015625 322.8125 748.960938 323 C 746.273438 331.984375 747.84375 334.550781 757.082031 335.757812 C 764.945312 336.785156 772.40625 335.734375 779.640625 333.558594 C 767.742188 320.277344 758.675781 304.40625 753.402344 286.90625 C 751.1875 287.144531 748.960938 287.835938 746.851562 288.613281 C 737.472656 292.078125 729.898438 298.316406 722.585938 304.878906 C 721.566406 305.792969 720.835938 307.101562 720.191406 308.339844 C 718.453125 311.679688 719.359375 313.710938 722.96875 315.042969 C 725.128906 315.839844 728.601562 315.582031 728.308594 318.738281 C 728.203125 319.851562 724.746094 320.976562 722.667969 321.527344 C 709.375 325.054688 696.046875 328.4375 682.71875 331.832031 C 680.144531 332.488281 678.308594 333.328125 681.082031 336.203125 C 680.050781 336.96875 679.167969 337.625 677.648438 338.753906 C 678.816406 339.625 679.773438 340.945312 680.738281 340.953125 C 686.222656 341.007812 691.714844 340.890625 697.183594 340.527344 C 699.636719 340.363281 700.625 338.847656 699.742188 336.203125 C 699.410156 335.210938 699.769531 333.042969 700.316406 332.851562 C 708.867188 329.882812 717.605469 327.835938 727.285156 328.1875 C 721.5625 335.625 712.679688 338.503906 706.699219 344.683594 C 707.003906 345.207031 707.308594 345.730469 707.613281 346.25 C 709.339844 345.816406 711.3125 345.78125 712.742188 344.878906 C 719.28125 340.757812 725.644531 336.351562 732.121094 332.132812 C 737.519531 328.617188 742.992188 325.21875 748.597656 321.664062 Z M 724.574219 291.695312 C 724.964844 288.941406 722.34375 288.746094 720.554688 288.957031 C 716.878906 289.402344 713.902344 288.667969 710.652344 286.605469 C 706.144531 283.746094 696.492188 285.804688 692.707031 289.5625 C 690.492188 291.761719 690.6875 293.199219 694.371094 296.746094 C 697.667969 298.992188 702.347656 300.386719 707.265625 299.574219 C 712.140625 298.769531 716.953125 297.351562 721.621094 295.71875 C 722.957031 295.25 724.363281 293.1875 724.574219 291.695312 Z M 701.050781 214.480469 C 710.257812 212.007812 719.46875 209.378906 728.390625 206.042969 C 740.070312 201.667969 751.660156 197.054688 763.242188 192.414062 C 765.015625 189.171875 766.9375 186.015625 768.988281 182.957031 C 759.917969 184.734375 750.816406 186.398438 741.671875 187.675781 C 734.183594 188.722656 728.242188 192.75 721.886719 196.148438 C 712.949219 200.929688 703.882812 205.460938 694.90625 210.164062 C 693.902344 210.691406 693.125 211.652344 692.242188 212.414062 C 692.460938 212.871094 692.679688 213.324219 692.894531 213.78125 C 695.628906 214.058594 698.574219 215.144531 701.050781 214.480469 Z M 702.054688 254.585938 C 701.0625 261.863281 700.097656 263.027344 694.183594 264.34375 C 691.199219 265.007812 688.128906 265.34375 685.171875 266.101562 C 683.375 266.5625 681.710938 267.554688 679.992188 268.304688 C 680.066406 268.761719 680.144531 269.21875 680.21875 269.675781 C 681.476562 269.925781 682.722656 270.359375 683.984375 270.398438 C 691.28125 270.613281 698.585938 270.875 705.882812 270.820312 C 709.5625 270.792969 713.25 270.25 716.90625 269.722656 C 719.480469 269.351562 721.324219 269.269531 719.660156 272.667969 C 718.730469 274.5625 719.367188 275.507812 721.382812 275.882812 C 725.058594 276.570312 728.71875 277.355469 732.546875 278.847656 C 730.410156 279.429688 728.238281 279.914062 726.15625 280.652344 C 725.367188 280.933594 724.785156 281.796875 724.109375 282.390625 C 724.933594 282.980469 725.746094 284.039062 726.589844 284.0625 C 728.605469 284.117188 730.773438 284.058594 732.644531 283.382812 C 738.859375 281.132812 745.199219 280.359375 751.640625 280.402344 C 749.386719 271.097656 748.183594 261.386719 748.183594 251.398438 C 748.183594 241.304688 749.414062 231.492188 751.714844 222.097656 C 750.542969 222.578125 749.382812 223.035156 748.214844 223.453125 C 741.757812 225.753906 735.015625 227.359375 728.78125 230.132812 C 720.640625 233.757812 712.121094 234.707031 703.46875 235.476562 C 701.566406 235.648438 699.617188 235.828125 697.816406 236.40625 C 696.949219 236.683594 696.371094 237.886719 695.664062 238.671875 C 696.585938 239.132812 697.492188 239.964844 698.425781 239.992188 C 701.753906 240.082031 705.097656 239.769531 708.425781 239.875 C 710.070312 239.925781 711.691406 240.558594 713.324219 240.929688 C 713.433594 241.496094 713.542969 242.0625 713.652344 242.628906 C 709.027344 244.730469 704.5625 247.367188 699.738281 248.78125 C 694.28125 250.382812 688.4375 250.632812 682.894531 251.996094 C 680.847656 252.5 679.175781 254.507812 676.824219 256.195312 C 686.070312 259.507812 693.960938 256.558594 702.054688 254.585938 Z M 1023.40625 339.59375 C 1018.363281 340.914062 1013.289062 342.289062 1008.464844 344.230469 C 1000.839844 347.300781 993.359375 347.78125 985.792969 344.042969 C 992.527344 341.644531 999.304688 339.230469 1006.082031 336.816406 C 1005.960938 336.191406 1005.839844 335.566406 1005.71875 334.941406 C 1003.160156 334.96875 1000.515625 334.585938 998.0625 335.101562 C 989.722656 336.859375 981.492188 339.160156 973.132812 340.816406 C 966.351562 342.160156 959.421875 342.800781 952.636719 344.082031 C 932.546875 361.695312 906.707031 372.898438 878.335938 374.46875 C 871.515625 377.976562 865.003906 382.132812 858.105469 385.464844 C 857.082031 385.960938 856.0625 386.511719 854.980469 386.832031 C 843.394531 390.261719 831.789062 393.621094 820.214844 397.085938 C 819.148438 397.402344 818.25 398.292969 817.449219 399.585938 C 826.703125 401.496094 835.679688 401.355469 844.652344 397.660156 C 843.1875 399.128906 841.71875 400.59375 840.25 402.0625 C 840.4375 402.394531 840.628906 402.726562 840.816406 403.0625 C 842.804688 402.667969 844.792969 402.273438 847.355469 401.769531 C 842.078125 405.246094 835.765625 406.203125 832.1875 411.203125 C 832.347656 411.617188 832.511719 412.03125 832.671875 412.441406 C 836.015625 411.492188 839.546875 410.957031 842.660156 409.523438 C 855.234375 403.734375 867.675781 397.664062 880.167969 391.703125 C 881.066406 391.277344 881.980469 390.886719 882.890625 390.480469 C 883.09375 390.855469 883.292969 391.230469 883.496094 391.609375 C 866.3125 401.246094 849.128906 410.886719 831.941406 420.523438 C 832.054688 420.882812 832.171875 421.242188 832.285156 421.601562 C 833.617188 421.363281 834.996094 421.277344 836.273438 420.859375 C 852.84375 415.476562 868.101562 407.378906 882.640625 397.921875 C 894.023438 390.515625 904.835938 382.171875 916.53125 375.320312 C 924.902344 370.414062 934.230469 367.074219 943.289062 363.429688 C 951.125 360.277344 959.105469 357.449219 967.167969 354.945312 C 970.988281 353.761719 975.210938 352.898438 979.140625 353.214844 C 991.90625 354.25 1004.160156 352.851562 1015.886719 347.550781 C 1019.933594 345.722656 1024.03125 344 1028.070312 342.15625 C 1028.964844 341.746094 1029.722656 341.035156 1030.542969 340.460938 C 1030.421875 340.019531 1030.296875 339.578125 1030.175781 339.136719 C 1027.914062 339.265625 1025.554688 339.03125 1023.40625 339.59375 Z M 794.3125 347.46875 C 791.082031 344.867188 787.984375 342.109375 785.03125 339.207031 C 783.183594 339.492188 781.339844 339.769531 779.488281 340.03125 C 772 341.074219 766.058594 345.105469 759.699219 348.503906 C 750.765625 353.285156 741.699219 357.8125 732.722656 362.519531 C 731.714844 363.042969 730.941406 364.007812 730.058594 364.769531 C 730.277344 365.226562 730.492188 365.679688 730.710938 366.136719 C 733.441406 366.417969 736.390625 367.5 738.867188 366.835938 C 748.074219 364.367188 757.28125 361.738281 766.203125 358.398438 C 775.621094 354.875 784.972656 351.191406 794.3125 347.46875 Z M 1060.140625 291.539062 C 1054.53125 294.191406 1048.855469 296.796875 1043.585938 300.035156 C 1037.203125 303.953125 1030.972656 307.644531 1023.035156 307 C 1021.128906 306.847656 1019.144531 308.136719 1017.152344 308.503906 C 1015.308594 308.839844 1013.402344 308.832031 1011.449219 308.417969 C 1022.65625 306.070312 1033.433594 303.21875 1041.457031 294.480469 C 1041.351562 294.054688 1041.246094 293.628906 1041.140625 293.203125 C 1039.386719 293.601562 1037.40625 293.605469 1035.914062 294.464844 C 1025.753906 300.304688 1014.460938 302.191406 1002.910156 304.277344 C 1002.410156 300.027344 999.519531 298.707031 995.851562 299.277344 C 991.921875 299.890625 988.015625 300.652344 984.105469 301.429688 C 980.472656 309.578125 975.980469 317.261719 970.746094 324.367188 C 974.933594 324.34375 979.132812 324.613281 983.320312 324.476562 C 986.355469 324.378906 989.390625 323.820312 992.398438 323.289062 C 998.542969 322.203125 1004.6875 321.097656 1010.789062 319.78125 C 1012.777344 319.351562 1015.617188 319.660156 1015.984375 315.402344 C 1014.027344 315.824219 1012.28125 316.199219 1010.539062 316.578125 C 1010.453125 316.050781 1010.367188 315.527344 1010.28125 315.003906 C 1013.808594 314.195312 1017.382812 312.566406 1020.863281 312.753906 C 1028.53125 313.160156 1035.1875 310.523438 1041.558594 307.039062 C 1049.550781 302.671875 1057.261719 297.785156 1065.289062 293.003906 C 1064.355469 290.277344 1062.054688 290.632812 1060.140625 291.539062 Z M 844.613281 377.410156 C 846.699219 375.925781 848.777344 374.429688 850.855469 372.929688 C 837.472656 370.671875 824.816406 366.25 813.257812 360.035156 C 806.574219 362.949219 800.230469 366.691406 794.132812 371.035156 C 789.410156 374.390625 783.933594 376.667969 778.898438 379.605469 C 772.546875 383.304688 766.273438 387.140625 760.015625 390.996094 C 759.074219 391.578125 758.386719 392.574219 757.585938 393.375 C 757.742188 393.773438 757.898438 394.171875 758.054688 394.570312 C 760.433594 394.144531 762.933594 394.046875 765.175781 393.234375 C 772.796875 390.484375 780.234375 387.191406 787.941406 384.71875 C 790.957031 383.75 794.496094 384.253906 797.789062 384.34375 C 812.179688 384.730469 825.453125 380.425781 838.441406 374.851562 C 839.929688 374.210938 841.441406 373.628906 842.941406 373.019531 C 843.097656 373.335938 843.253906 373.652344 843.410156 373.96875 C 833.664062 378.730469 823.921875 383.496094 814.179688 388.257812 C 814.332031 388.757812 814.484375 389.257812 814.636719 389.757812 C 816.273438 389.589844 817.972656 389.648438 819.539062 389.226562 C 828.597656 386.792969 836.972656 382.847656 844.613281 377.410156 Z M 966.535156 367.542969 C 963.242188 365.71875 956.167969 368.957031 955.011719 372.664062 C 954.859375 373.160156 954.636719 373.632812 954.449219 374.117188 C 954.699219 374.476562 954.953125 374.835938 955.203125 375.195312 C 956.164062 374.933594 957.128906 374.699219 958.078125 374.402344 C 961.101562 373.457031 964.132812 372.542969 967.117188 371.492188 C 967.707031 371.285156 968.609375 370.28125 968.511719 370.085938 C 968.023438 369.140625 967.414062 368.027344 966.535156 367.542969 Z M 738.671875 173.457031 C 740.734375 173.519531 742.816406 172.382812 744.921875 171.933594 C 750.011719 170.839844 755.089844 169.492188 760.246094 168.996094 C 761.800781 168.847656 763.59375 171.167969 765.277344 172.355469 C 765.089844 172.683594 764.898438 173.007812 764.707031 173.335938 C 761.074219 173.875 757.445312 174.414062 753.550781 174.992188 C 754.546875 178.230469 757.003906 178.9375 759.507812 178.996094 C 762.949219 179.074219 766.46875 179.058594 769.835938 178.441406 C 770.714844 178.28125 771.59375 178.144531 772.472656 178.019531 C 794.960938 147.777344 830.957031 128.144531 871.457031 128.144531 C 882.847656 128.144531 893.875 129.707031 904.351562 132.609375 C 909.738281 130.539062 915.023438 128.140625 920.3125 125.824219 C 925.488281 123.5625 930.503906 121.550781 936.425781 121.664062 C 941.625 121.765625 946.21875 119.171875 949.886719 115.277344 C 952.4375 112.5625 952.234375 110.800781 948.628906 109.832031 C 943.597656 108.476562 938.464844 107.152344 933.300781 106.726562 C 923.5 105.914062 913.617188 105.125 903.820312 105.5625 C 898.367188 105.808594 892.957031 108.34375 887.652344 110.199219 C 879.132812 113.183594 870.707031 116.429688 862.261719 119.613281 C 855.375 122.207031 848.574219 125.042969 841.613281 127.417969 C 839.082031 128.28125 836.183594 127.996094 833.496094 128.480469 C 829.242188 129.242188 825.023438 130.195312 820.800781 131.101562 C 816.484375 132.027344 812.15625 132.914062 807.878906 133.996094 C 806.183594 134.421875 804.605469 135.320312 802.976562 136.003906 C 803.046875 136.382812 803.121094 136.761719 803.195312 137.144531 C 804.960938 137.667969 806.726562 138.191406 808.234375 138.636719 C 799.914062 141.089844 791.277344 143.417969 782.789062 146.199219 C 774.351562 148.960938 766.066406 152.183594 756.664062 155.582031 C 758.761719 156.714844 759.699219 157.226562 761.613281 158.261719 C 759.070312 158.339844 757.40625 158.222656 755.800781 158.480469 C 752.679688 158.988281 749.511719 159.46875 746.507812 160.410156 C 743.527344 161.347656 743.546875 162.542969 746.574219 164.808594 C 740.183594 167.292969 732.769531 166.203125 726.9375 171.277344 C 730.839844 173.941406 734.890625 173.335938 738.671875 173.457031 Z M 823.070312 118.183594 C 833.164062 117.074219 843.585938 119.363281 853.375 115.511719 C 855.203125 114.792969 856.578125 112.957031 858.203125 111.683594 C 859.136719 110.949219 860.066406 110.113281 861.140625 109.667969 C 867.117188 107.195312 873.15625 104.882812 879.117188 102.375 C 880.183594 101.925781 880.972656 100.808594 881.890625 100.003906 C 881.578125 99.398438 881.261719 98.792969 880.949219 98.1875 C 868.90625 101.257812 856.863281 104.328125 843.914062 107.628906 C 845.664062 109.117188 847.074219 110.316406 849.097656 112.042969 C 847.230469 112.359375 845.640625 112.800781 844.035156 112.863281 C 837.128906 113.132812 830.214844 113.199219 823.316406 113.585938 C 822.148438 113.648438 821.054688 114.933594 819.925781 115.652344 C 820.980469 116.539062 822.125 118.285156 823.070312 118.183594 Z M 983.601562 149.074219 C 988.449219 146.917969 993.1875 144.507812 997.925781 142.117188 C 999.34375 141.398438 1000.617188 140.390625 1001.953125 139.515625 C 1001.8125 139.179688 1001.667969 138.84375 1001.523438 138.507812 C 1000.582031 138.375 999.542969 137.917969 998.714844 138.164062 C 990.851562 140.5 982.984375 142.855469 975.222656 145.503906 C 974.132812 145.875 973.589844 147.84375 972.792969 149.074219 C 974.09375 149.738281 975.445312 151.03125 976.691406 150.9375 C 979.035156 150.757812 981.433594 150.039062 983.601562 149.074219 Z M 956.027344 340.992188 C 961.34375 338.824219 966.695312 336.75 971.988281 334.523438 C 973.054688 334.074219 973.84375 332.957031 974.761719 332.148438 C 974.449219 331.542969 974.132812 330.941406 973.820312 330.335938 C 970.515625 331.179688 967.207031 332.023438 963.878906 332.871094 C 961.386719 335.695312 958.765625 338.40625 956.027344 340.992188 Z M 926.183594 140.980469 C 933.433594 144.585938 940.28125 148.886719 946.636719 153.792969 C 949.054688 153.097656 951.496094 152.453125 953.8125 151.507812 C 956.035156 150.601562 956.257812 149.457031 955.261719 146.671875 C 959.46875 145.585938 963.664062 144.601562 967.796875 143.40625 C 974.375 141.503906 980.964844 139.621094 987.449219 137.4375 C 997.796875 133.953125 1008.078125 130.269531 1018.339844 126.539062 C 1019.105469 126.261719 1019.496094 124.949219 1020.054688 124.117188 C 1019.039062 123.796875 1017.933594 123.035156 1017.015625 123.21875 C 1008.679688 124.878906 1000.558594 126.742188 992.792969 130.851562 C 986 134.449219 978.003906 135.777344 970.542969 138.109375 C 970.398438 137.699219 970.257812 137.292969 970.117188 136.882812 C 971.664062 136.125 973.25 135.433594 974.734375 134.570312 C 975.269531 134.261719 975.574219 133.542969 975.984375 133.011719 C 975.304688 132.636719 974.660156 132.113281 973.929688 131.941406 C 973.363281 131.804688 972.691406 132.191406 972.0625 132.199219 C 965.589844 132.296875 959.117188 132.257812 952.652344 132.492188 C 949.625 132.601562 946.402344 132.683594 943.632812 133.734375 C 937.746094 135.960938 931.992188 138.550781 926.183594 140.980469 Z M 987.984375 291.625 C 987.359375 293.429688 986.695312 295.210938 985.992188 296.976562 C 989.539062 295 993.039062 293.054688 996.539062 291.105469 C 996.347656 290.570312 996.160156 290.03125 995.96875 289.492188 C 994.359375 289.703125 992.589844 289.550781 991.167969 290.183594 C 990.101562 290.65625 989.042969 291.140625 987.984375 291.625 Z M 1014.921875 265.851562 C 1014.707031 265.542969 1014.492188 265.234375 1014.28125 264.925781 C 1007.710938 267.480469 1001.1875 270.167969 994.554688 272.554688 C 993.972656 272.765625 993.386719 272.964844 992.804688 273.171875 C 992.414062 275.34375 991.964844 277.492188 991.464844 279.625 C 998.816406 276.386719 1005.78125 272.289062 1012.671875 268.054688 C 1013.542969 267.519531 1014.175781 266.59375 1014.921875 265.851562 Z M 1014.921875 265.851562 "/></g><path style=" stroke:none;fill-rule:nonzero;fill:#f4f0e1;fill-opacity:1;" d="M 806.503906 173.683594 C 801.160156 175.511719 795.695312 176.210938 790.199219 176.625 C 790.988281 174.46875 791.675781 172.773438 792.039062 171.898438 C 793.808594 170.375 800.03125 165.179688 809.90625 158.871094 C 819.722656 152.597656 828.429688 150.460938 830.773438 149.96875 C 832.929688 150.527344 839.722656 152.316406 845.484375 154.324219 C 845.75 154.414062 846.015625 154.511719 846.285156 154.617188 C 842.964844 155.390625 839.636719 156.148438 836.308594 156.886719 C 831.242188 158.007812 825.980469 158.242188 820.808594 158.878906 C 823.335938 161.144531 826.109375 161.859375 829.746094 160.910156 C 833.289062 159.992188 837.082031 160.046875 840.765625 159.675781 C 840.964844 160.300781 841.164062 160.921875 841.363281 161.542969 C 840.347656 162.324219 839.441406 163.464844 838.292969 163.828125 C 827.710938 167.164062 816.996094 170.09375 806.503906 173.683594 Z M 856.609375 152.105469 C 860.839844 151.03125 865.050781 149.894531 869.238281 148.679688 C 874.011719 147.289062 878.777344 144.976562 882.769531 142.035156 C 886.507812 139.28125 890.421875 137.464844 894.636719 135.972656 C 887.136719 134.46875 879.390625 133.671875 871.457031 133.671875 C 858.554688 133.671875 846.136719 135.765625 834.511719 139.613281 C 834.4375 141.1875 834.367188 142.757812 834.308594 144.023438 C 837.433594 144.855469 842.824219 146.359375 847.667969 148.046875 C 850.59375 149.0625 853.78125 150.597656 856.609375 152.105469 Z M 801.6875 216.550781 C 805.464844 212.847656 815.867188 203.054688 824.847656 198.246094 C 828.089844 196.511719 830.554688 195.109375 832.726562 193.878906 C 837.960938 190.90625 841.523438 188.882812 849.660156 185.757812 C 850.253906 183.589844 851.484375 179.410156 853.707031 173.199219 C 855.828125 167.257812 857.515625 163.285156 858.613281 160.898438 C 858.582031 160.882812 858.550781 160.863281 858.523438 160.84375 C 858.003906 161.339844 857.496094 161.859375 857.015625 162.429688 C 856.164062 163.429688 854.257812 163.570312 852.820312 164.039062 C 848.234375 165.535156 843.605469 166.902344 839.058594 168.503906 C 835.796875 169.652344 836.621094 171.074219 840.40625 172.933594 C 822.589844 176.871094 811.347656 187.3125 804.847656 203.203125 C 805.308594 203.5 806.109375 204.011719 806.914062 204.523438 C 804.015625 208.136719 801.15625 211.703125 798.226562 215.351562 C 799.609375 215.855469 800.792969 216.257812 801.6875 216.550781 Z M 823.914062 330.570312 C 821.738281 331.164062 819.601562 331.941406 817.460938 332.671875 C 818.996094 334.550781 820.21875 335.890625 820.929688 336.640625 C 822.460938 335.90625 823.960938 335.117188 825.414062 334.265625 C 826.492188 333.632812 827.023438 332.066406 827.800781 330.921875 C 826.5 330.78125 825.089844 330.246094 823.914062 330.570312 Z M 864.378906 346.179688 C 865.519531 344.730469 866.421875 343.582031 867.335938 342.421875 C 865.429688 341.203125 861.300781 343.367188 858.125 346.335938 C 868.527344 347.613281 876.597656 348.21875 879.902344 348.4375 C 880.585938 347.597656 881.574219 346.34375 882.707031 344.789062 C 877.21875 345.542969 871.628906 345.808594 866.160156 346.664062 C 865.746094 346.726562 865.273438 346.433594 864.378906 346.179688 Z M 882.347656 331.554688 C 885.886719 330.21875 889.160156 328.132812 892.429688 326.183594 C 892.753906 325.988281 893.015625 325.691406 893.246094 325.34375 C 893.539062 324.597656 893.808594 323.882812 894.0625 323.199219 C 893.875 323.011719 893.691406 322.824219 893.503906 322.636719 C 875.171875 328.21875 856.84375 333.796875 838.511719 339.378906 C 838.535156 339.851562 838.558594 340.328125 838.582031 340.800781 C 839.640625 341.261719 840.769531 342.234375 841.746094 342.09375 C 847.621094 341.265625 853.585938 342.273438 859.433594 339.640625 C 866.792969 336.328125 874.773438 334.421875 882.347656 331.554688 Z M 921.074219 297.222656 C 920.941406 297.675781 920.804688 298.128906 920.671875 298.582031 C 921.734375 299.074219 922.816406 300.03125 923.851562 299.980469 C 929.972656 299.691406 936.078125 299.15625 942.191406 298.722656 C 943.570312 298.625 944.953125 298.515625 946.332031 298.40625 C 948.125 295.371094 949.96875 291.863281 951.585938 288.019531 C 944.664062 290.125 937.746094 292.230469 930.828125 294.339844 C 930.84375 294.683594 930.859375 295.027344 930.875 295.371094 C 929.832031 295.492188 928.789062 295.613281 927.746094 295.738281 C 925.496094 296.011719 923.296875 296.71875 921.074219 297.222656 Z M 899.917969 312.679688 C 900.335938 312.980469 900.683594 313.222656 900.945312 313.402344 C 902.328125 313.582031 905.710938 313.957031 910.117188 313.957031 C 913.390625 313.957031 916.597656 313.75 919.644531 313.351562 C 928.351562 312.207031 936.148438 310.105469 938.753906 309.363281 C 939.53125 308.417969 941.023438 306.527344 942.824219 303.910156 C 937.503906 305.449219 932.21875 307.152344 926.816406 308.300781 C 918.335938 310.101562 909.589844 310.660156 901.097656 312.421875 C 900.703125 312.503906 900.3125 312.59375 899.917969 312.679688 Z M 962.175781 176.433594 C 954.667969 179.566406 947.480469 181.988281 943.921875 183.132812 C 943.8125 186.628906 943.503906 193.535156 942.597656 201.546875 C 941.691406 209.59375 940.394531 215.65625 939.675781 218.652344 C 942.863281 221.464844 950.097656 228.230469 955.480469 236.253906 C 959.421875 242.136719 963.941406 250.375 966.09375 254.402344 C 970.195312 253.304688 978.699219 251.246094 989.183594 249.949219 C 988.84375 222.054688 978.757812 196.460938 962.175781 176.433594 Z M 866.605469 324.0625 C 865.3125 324.671875 864.195312 325.65625 862.226562 326.988281 C 867.621094 329.015625 871.859375 327.621094 875.484375 325.652344 C 882.082031 322.070312 888.789062 319.742188 895.648438 318.609375 C 895.722656 318.378906 895.792969 318.160156 895.855469 317.953125 C 894.769531 317.164062 893.328125 316.070312 891.710938 314.71875 C 887.492188 315.882812 883.304688 317.195312 879.148438 318.546875 C 874.824219 319.953125 870.742188 322.121094 866.605469 324.0625 Z M 921.785156 319.765625 C 929.378906 321.515625 937.039062 322.792969 944.757812 323.578125 C 942.421875 320.503906 940.492188 317.824219 939.285156 316.117188 C 935.929688 317.035156 929.328125 318.691406 921.785156 319.765625 Z M 856.277344 286.90625 C 850.050781 286.90625 844.46875 286.53125 839.6875 285.792969 C 827.738281 283.9375 819.589844 281.242188 815.785156 279.796875 C 814.03125 282.117188 810.984375 286.484375 808.152344 292.101562 C 805.453125 297.460938 803.210938 302.953125 802.359375 305.105469 C 802.957031 307.382812 804.914062 313.90625 809.40625 321.285156 C 810.699219 323.402344 811.976562 325.324219 813.195312 327.050781 C 816.222656 327.25 819.261719 327.601562 822.261719 327.339844 C 831.507812 326.523438 839.738281 322.953125 847.988281 319.164062 C 851.570312 317.519531 855.371094 316.320312 859.121094 315.0625 C 861.269531 314.34375 862.523438 313.539062 861.402344 310.933594 C 861.085938 310.191406 861.722656 308.269531 862.378906 307.996094 C 868.070312 305.65625 873.402344 302.773438 878.414062 299.398438 C 875.390625 294.257812 873.371094 289.148438 872.316406 286.15625 C 869.023438 286.460938 863.078125 286.90625 856.277344 286.90625 Z M 949.957031 239.957031 C 954.199219 246.28125 959.308594 255.792969 960.929688 258.855469 C 959.695312 265.34375 958.445312 269.304688 954.152344 281.199219 C 947.46875 284.65625 940.640625 288.097656 933.472656 290.121094 C 920.253906 293.851562 907.847656 299.160156 895.902344 305.792969 C 895.023438 306.28125 894.117188 306.730469 893.203125 307.15625 C 892.046875 306.078125 890.863281 304.898438 889.710938 303.625 C 890.328125 303.191406 890.964844 302.78125 891.574219 302.347656 C 889.457031 302.640625 888.273438 301.792969 888.789062 299.511719 C 889.609375 295.875 890.632812 292.285156 891.429688 289.226562 C 891.726562 289.058594 890.972656 289.320312 890.4375 289.820312 C 888.300781 291.808594 886.097656 293.691406 883.824219 295.46875 C 881.171875 290.832031 879.390625 286.238281 878.5 283.6875 C 881.945312 280.628906 889.367188 272.96875 895.648438 259.3125 C 901.648438 246.269531 904.320312 235.457031 905.300781 230.753906 C 908.546875 230.34375 914.578125 229.445312 921.289062 227.726562 C 927.761719 226.066406 932.703125 224.46875 935.230469 223.605469 C 938.140625 226.171875 945.015625 232.589844 949.957031 239.957031 Z M 907.28125 293.527344 C 900.113281 294.257812 895.789062 297.8125 891.921875 302.128906 C 896.730469 299.4375 901.550781 296.738281 907.28125 293.527344 Z M 886.46875 309.878906 C 886.515625 309.9375 886.558594 309.996094 886.601562 310.050781 C 886.609375 310.046875 886.617188 310.046875 886.625 310.042969 C 886.574219 309.988281 886.523438 309.933594 886.46875 309.878906 Z M 941.96875 344.191406 C 940.101562 344.503906 938.511719 344.949219 936.90625 345.011719 C 930 345.28125 923.082031 345.34375 916.1875 345.730469 C 915.019531 345.796875 913.925781 347.082031 912.796875 347.800781 C 913.851562 348.6875 914.996094 350.433594 915.941406 350.332031 C 921.6875 349.699219 927.542969 350.167969 933.324219 349.980469 C 933.027344 350.09375 932.730469 350.203125 932.4375 350.316406 C 926.421875 352.617188 920.578125 355.375 914.640625 357.882812 C 911.542969 359.191406 908.121094 359.894531 906.789062 363.710938 C 924.683594 358.070312 940.746094 348.261719 953.835938 335.429688 C 948.28125 336.847656 942.628906 338.289062 936.789062 339.777344 C 938.535156 341.265625 939.945312 342.464844 941.96875 344.191406 Z M 791.871094 338.085938 C 794.550781 340.546875 797.347656 342.886719 800.25 345.09375 C 804.980469 343.195312 809.714844 341.296875 814.449219 339.402344 C 813.371094 338.183594 812.011719 336.574219 810.480469 334.582031 C 804.292969 335.816406 798.089844 337.011719 791.871094 338.085938 Z M 925.777344 336.5625 C 923.683594 336.480469 921.558594 336.121094 919.503906 336.367188 C 913.574219 337.082031 907.671875 338.027344 901.761719 338.921875 C 900.886719 339.050781 899.953125 339.242188 899.203125 339.675781 C 896.890625 341.019531 894.507812 342.019531 892.074219 342.789062 C 889.355469 347.191406 886.65625 350.683594 885.128906 352.554688 C 885.265625 352.945312 885.433594 353.402344 885.625 353.90625 C 889.6875 350.933594 893.949219 348.25 898.699219 346.289062 C 901.210938 345.253906 904 344.648438 906.710938 344.375 C 913.660156 343.675781 919.980469 341.441406 925.886719 337.964844 C 925.851562 337.5 925.8125 337.03125 925.777344 336.5625 Z M 771.828125 281.476562 C 769.917969 282.59375 767.945312 283.75 766.011719 284.882812 C 766.882812 286.660156 767.605469 287.914062 767.992188 288.554688 C 769.628906 289.648438 775.132812 293.140625 782.683594 296.015625 C 788.554688 298.25 793.710938 300.011719 796.828125 301.039062 C 797.957031 298.265625 799.902344 293.695312 802.21875 289.105469 C 805.460938 282.675781 808.921875 277.808594 810.792969 275.363281 C 808.609375 270.871094 803.375 259.292969 801.15625 247.230469 C 799.023438 235.644531 798.972656 226.898438 799.132812 222.707031 C 797.777344 222.257812 795.953125 221.617188 793.847656 220.8125 C 793.589844 221.128906 793.335938 221.445312 793.078125 221.769531 C 792.707031 221.109375 792.398438 220.558594 792.171875 220.15625 C 791.910156 220.050781 791.636719 219.941406 791.367188 219.832031 C 790.070312 221.128906 788.808594 222.386719 787.652344 223.546875 C 786.929688 222.527344 786.496094 221.910156 786.0625 221.292969 C 785.570312 221.734375 784.878906 222.078125 784.621094 222.625 C 783.125 225.835938 780.089844 225.328125 777.117188 225.851562 C 781.445312 223.871094 780.632812 219.820312 781.679688 216.574219 C 781.828125 216.125 781.996094 215.699219 782.25 215.359375 C 781.757812 215.082031 781.308594 214.820312 780.914062 214.589844 C 778.171875 216.414062 772.582031 220.421875 768.398438 225.300781 C 763.519531 230.988281 759.960938 237.578125 758.957031 239.53125 C 758.824219 242.585938 758.386719 255.179688 759.640625 263.964844 C 760.632812 270.9375 762.539062 276.789062 764.308594 281.085938 C 766.835938 281.222656 769.351562 281.339844 771.828125 281.476562 Z M 800.457031 328.308594 C 800.742188 328.613281 801.550781 328.777344 801.914062 328.597656 C 803.066406 328.039062 804.230469 327.65625 805.402344 327.398438 C 804.851562 326.546875 804.292969 325.660156 803.730469 324.742188 C 799.359375 317.566406 797.164062 311.160156 796.210938 307.828125 C 791.636719 306.390625 782.929688 303.21875 780.320312 302.226562 C 774.160156 299.882812 769.308594 297.199219 766.449219 295.457031 C 765.714844 296.660156 764.871094 298.222656 764.203125 299.96875 C 769.519531 311.660156 776.699219 322.328125 785.351562 331.609375 C 787.664062 330.730469 789.957031 329.765625 792.234375 328.738281 C 794.929688 327.527344 797.515625 325.195312 800.457031 328.308594 Z M 865.347656 162.210938 C 864.507812 163.921875 862.59375 168.078125 859.964844 175.433594 C 858.144531 180.527344 857.015625 184.207031 856.378906 186.4375 C 860.671875 188.574219 869.890625 193.585938 881.371094 202.324219 C 891.210938 209.816406 900.664062 220.464844 903.886719 224.226562 C 906.734375 223.882812 912.859375 223.019531 919.636719 221.28125 C 925.933594 219.671875 930.777344 218.101562 933.160156 217.285156 C 933.816406 214.570312 935.105469 208.640625 935.992188 200.804688 C 936.96875 192.128906 937.234375 184.628906 937.304688 181.832031 C 935.753906 179.972656 931.746094 175.378906 926.222656 170.675781 C 924.003906 171.9375 921.855469 173.402344 919.761719 175.035156 C 917.441406 176.847656 915.277344 178.867188 912.929688 180.640625 C 912.324219 181.101562 910.988281 181.425781 910.496094 181.082031 C 904.855469 177.136719 899.644531 179.429688 894.898438 182.519531 C 890.246094 185.546875 885.847656 187.738281 880.082031 185.875 C 877.769531 185.128906 875.058594 185.621094 872.371094 185.128906 C 876.597656 184.109375 880.777344 182.628906 885.066406 182.164062 C 894.480469 181.140625 902.457031 176.695312 910.453125 172.265625 C 913.910156 170.347656 917.347656 168.390625 920.777344 166.425781 C 919.839844 165.757812 918.878906 165.105469 917.886719 164.476562 C 907.78125 158.035156 898.796875 154.304688 896.296875 153.3125 C 894.179688 153.570312 887.957031 154.421875 881.289062 156.308594 C 874.738281 158.164062 867.878906 161.09375 865.347656 162.210938 Z M 784.265625 208.847656 C 785.511719 209.578125 787.371094 210.628906 789.472656 211.679688 C 789.480469 211.316406 789.472656 210.929688 789.445312 210.507812 C 793.394531 210.910156 792.914062 208.722656 792.246094 207.261719 C 797.1875 199.902344 801.777344 193.066406 806.628906 185.84375 C 803.265625 185.464844 794.367188 187.554688 786.25 190.113281 C 785.851562 192.183594 785.527344 194.4375 785.261719 196.671875 C 787.832031 195.996094 790.359375 195.15625 792.859375 194.457031 C 790.328125 196.65625 787.683594 198.324219 784.945312 199.582031 C 784.574219 203.359375 784.371094 206.808594 784.265625 208.847656 Z M 777.613281 208.800781 C 777.683594 207.238281 777.824219 204.769531 778.058594 201.898438 C 773.5625 202.925781 768.882812 203.171875 764.105469 203.070312 C 763.503906 204.40625 762.921875 205.753906 762.367188 207.117188 C 766.269531 207.382812 770.15625 207.765625 774 208.082031 C 770.355469 212.257812 765.140625 212.996094 759.722656 214.269531 C 759.289062 215.570312 758.875 216.886719 758.488281 218.207031 C 758.765625 218.398438 759.058594 218.597656 759.390625 218.824219 C 758.972656 219 758.5625 219.171875 758.15625 219.34375 C 756.941406 223.644531 755.957031 228.039062 755.230469 232.519531 C 757.097656 229.339844 759.890625 225.003906 763.351562 220.972656 C 768.273438 215.234375 774.707031 210.707031 777.613281 208.800781 Z M 789.523438 178.503906 C 789.292969 179.160156 789.058594 179.847656 788.828125 180.550781 C 789.222656 179.90625 789.570312 179.175781 789.984375 178.566406 C 789.832031 178.550781 789.679688 178.527344 789.523438 178.503906 Z M 784.796875 172.097656 L 784.566406 172.035156 C 783.015625 173.730469 781.515625 175.476562 780.0625 177.261719 C 781.035156 177.195312 782.003906 177.136719 782.976562 177.078125 C 783.628906 175.179688 784.261719 173.472656 784.796875 172.097656 Z M 778.402344 198.191406 C 778.589844 196.355469 778.820312 194.449219 779.097656 192.582031 C 774.980469 194.144531 771.804688 195.65625 770.839844 196.722656 C 773.289062 198.753906 775.863281 198.671875 778.402344 198.191406 Z M 780.46875 185.476562 C 780.980469 183.414062 781.578125 181.367188 782.191406 179.441406 C 780.472656 180.03125 778.757812 180.640625 777.023438 181.164062 C 775.121094 183.71875 773.316406 186.347656 771.621094 189.054688 C 773.976562 188.109375 776.332031 187.164062 778.6875 186.222656 C 779.285156 185.984375 779.878906 185.730469 780.46875 185.476562 Z M 780.46875 185.476562 "/><path style=" stroke:none;fill-rule:nonzero;fill:#000000;fill-opacity:1;" d="M 771.621094 189.050781 C 768.828125 190.171875 766.035156 191.292969 763.242188 192.414062 C 765.015625 189.167969 766.9375 186.015625 768.988281 182.953125 C 770.542969 182.648438 772.097656 182.339844 773.648438 182.03125 C 774.785156 181.804688 775.910156 181.5 777.023438 181.164062 C 775.121094 183.71875 773.316406 186.347656 771.621094 189.050781 Z M 762.367188 207.117188 C 762.921875 205.753906 763.5 204.40625 764.105469 203.070312 C 762.144531 203.027344 760.167969 202.929688 758.179688 202.800781 C 757.609375 204.121094 757.0625 205.457031 756.535156 206.800781 C 757.832031 206.855469 759.128906 206.914062 760.425781 206.988281 C 761.074219 207.027344 761.71875 207.074219 762.367188 207.117188 Z M 788.828125 180.550781 C 789.0625 179.84375 789.292969 179.160156 789.523438 178.5 C 788.355469 178.308594 787.136719 177.929688 786.097656 178.210938 C 784.785156 178.570312 783.488281 179 782.195312 179.441406 C 781.578125 181.367188 780.980469 183.414062 780.46875 185.476562 C 782.914062 184.425781 785.316406 183.25 787.601562 181.910156 C 788.101562 181.613281 788.484375 181.113281 788.828125 180.550781 Z M 778.402344 198.191406 C 779.632812 197.957031 780.855469 197.632812 782.050781 197.410156 C 783.128906 197.207031 784.199219 196.949219 785.261719 196.671875 C 785.527344 194.4375 785.851562 192.183594 786.25 190.113281 C 783.726562 190.910156 781.277344 191.753906 779.09375 192.582031 C 778.820312 194.449219 778.589844 196.355469 778.402344 198.191406 Z M 791.367188 219.832031 C 791.636719 219.941406 791.90625 220.050781 792.167969 220.15625 C 791.957031 219.78125 791.816406 219.527344 791.761719 219.433594 C 791.628906 219.566406 791.5 219.699219 791.367188 219.832031 Z M 964.734375 300.628906 C 960.058594 301.042969 955.25 300.816406 950.714844 301.835938 C 948.0625 302.429688 945.4375 303.152344 942.820312 303.910156 C 941.023438 306.527344 939.53125 308.417969 938.753906 309.363281 C 936.148438 310.105469 928.347656 312.207031 919.644531 313.351562 C 916.59375 313.75 913.390625 313.957031 910.117188 313.957031 C 905.710938 313.957031 902.328125 313.582031 900.945312 313.40625 C 900.679688 313.222656 900.332031 312.980469 899.917969 312.679688 C 897.167969 313.277344 894.429688 313.964844 891.710938 314.71875 C 893.328125 316.070312 894.769531 317.164062 895.855469 317.953125 C 895.792969 318.160156 895.722656 318.378906 895.648438 318.609375 C 903.976562 317.234375 912.53125 317.621094 921.398438 319.679688 C 921.527344 319.710938 921.65625 319.738281 921.785156 319.765625 C 929.324219 318.691406 935.925781 317.039062 939.285156 316.117188 C 940.492188 317.824219 942.417969 320.503906 944.757812 323.578125 C 952.679688 324.382812 960.660156 324.664062 968.6875 324.402344 C 969.371094 324.378906 970.058594 324.371094 970.746094 324.367188 C 975.980469 317.261719 980.472656 309.578125 984.105469 301.429688 C 981.777344 301.890625 979.445312 302.359375 977.109375 302.800781 C 976.886719 302.84375 976.636719 302.738281 975.851562 302.617188 C 979.304688 300.695312 982.667969 298.824219 985.992188 296.976562 C 986.695312 295.210938 987.359375 293.429688 987.980469 291.625 C 982.132812 294.308594 976.351562 297.136719 970.460938 299.726562 C 968.75 300.476562 966.664062 300.457031 964.734375 300.628906 Z M 784.566406 172.035156 L 784.796875 172.097656 C 784.261719 173.472656 783.625 175.179688 782.976562 177.078125 C 785.382812 176.9375 787.792969 176.808594 790.199219 176.628906 C 790.988281 174.46875 791.675781 172.773438 792.039062 171.898438 C 793.808594 170.375 800.03125 165.179688 809.90625 158.871094 C 819.722656 152.597656 828.429688 150.460938 830.773438 149.96875 C 832.929688 150.527344 839.722656 152.316406 845.484375 154.324219 C 845.75 154.417969 846.015625 154.515625 846.285156 154.617188 C 849.734375 153.808594 853.175781 152.976562 856.605469 152.105469 C 853.78125 150.597656 850.589844 149.0625 847.667969 148.042969 C 842.824219 146.359375 837.433594 144.855469 834.308594 144.023438 C 834.367188 142.757812 834.4375 141.1875 834.511719 139.613281 C 846.136719 135.761719 858.554688 133.671875 871.457031 133.671875 C 879.386719 133.671875 887.136719 134.46875 894.632812 135.972656 C 895.644531 135.613281 896.667969 135.273438 897.714844 134.945312 C 899.949219 134.242188 902.15625 133.449219 904.351562 132.609375 C 893.875 129.703125 882.84375 128.144531 871.457031 128.144531 C 830.953125 128.144531 794.957031 147.777344 772.472656 178.019531 C 774.988281 177.664062 777.523438 177.4375 780.0625 177.261719 C 781.515625 175.476562 783.015625 173.730469 784.566406 172.035156 Z M 764.308594 281.085938 C 762.535156 276.792969 760.632812 270.941406 759.636719 263.96875 C 758.386719 255.179688 758.820312 242.585938 758.957031 239.53125 C 759.960938 237.582031 763.515625 230.988281 768.398438 225.304688 C 772.582031 220.425781 778.171875 216.414062 780.910156 214.589844 C 781.304688 214.820312 781.753906 215.082031 782.25 215.363281 C 782.734375 214.714844 783.527344 214.398438 785.058594 214.875 C 788.164062 215.839844 789.425781 214.785156 789.472656 211.679688 C 787.371094 210.628906 785.511719 209.578125 784.265625 208.847656 C 784.367188 206.808594 784.574219 203.359375 784.945312 199.582031 C 782.707031 200.609375 780.40625 201.363281 778.054688 201.902344 C 777.820312 204.773438 777.683594 207.242188 777.609375 208.800781 C 774.703125 210.707031 768.269531 215.238281 763.347656 220.972656 C 759.890625 225.003906 757.09375 229.34375 755.230469 232.523438 C 755.953125 228.039062 756.9375 223.644531 758.15625 219.347656 C 755.871094 220.316406 753.769531 221.25 751.710938 222.097656 C 749.410156 231.496094 748.179688 241.304688 748.179688 251.402344 C 748.179688 261.390625 749.382812 271.101562 751.636719 280.40625 C 753.703125 280.417969 755.78125 280.515625 757.871094 280.679688 C 760.019531 280.847656 762.167969 280.972656 764.308594 281.085938 Z M 759.722656 214.269531 C 758.078125 214.65625 756.414062 215.089844 754.769531 215.683594 C 756.277344 216.707031 757.152344 217.300781 758.488281 218.207031 C 758.875 216.886719 759.289062 215.570312 759.722656 214.269531 Z M 906.789062 363.710938 C 906.773438 363.753906 906.753906 363.792969 906.738281 363.835938 C 906.4375 364.746094 904.828125 365.421875 903.6875 365.824219 C 901.292969 366.671875 898.84375 367.488281 896.351562 367.933594 C 889.875 369.089844 884 371.550781 878.335938 374.464844 C 906.703125 372.898438 932.546875 361.691406 952.636719 344.078125 C 951.828125 344.230469 951.023438 344.386719 950.226562 344.558594 C 950.503906 344.304688 950.785156 344.054688 951.074219 343.828125 C 952.007812 343.097656 952.9375 342.257812 954.011719 341.8125 C 954.683594 341.535156 955.355469 341.265625 956.027344 340.992188 C 958.769531 338.40625 961.386719 335.695312 963.878906 332.867188 C 960.558594 333.714844 957.214844 334.566406 953.835938 335.429688 C 940.746094 348.261719 924.683594 358.070312 906.789062 363.710938 Z M 893.25 325.34375 C 893.636719 324.761719 893.945312 324.050781 894.335938 323.472656 C 894.246094 323.378906 894.152344 323.289062 894.0625 323.199219 C 893.8125 323.882812 893.539062 324.597656 893.25 325.34375 Z M 994.695312 254 C 993.671875 254.378906 992.648438 254.761719 991.628906 255.140625 C 991.792969 255.613281 991.957031 256.082031 992.125 256.554688 C 992.960938 256.355469 993.796875 256.15625 994.636719 255.957031 C 994.566406 257.894531 994.449219 259.824219 994.289062 261.738281 C 984.265625 264.984375 974.199219 268.109375 964.175781 271.367188 C 963.214844 271.679688 962.445312 272.742188 961.71875 273.574219 C 959.710938 275.867188 958.222656 279.089844 955.71875 280.386719 C 955.199219 280.65625 954.675781 280.925781 954.152344 281.199219 C 958.445312 269.304688 959.695312 265.34375 960.929688 258.859375 C 959.308594 255.792969 954.199219 246.28125 949.957031 239.960938 C 945.015625 232.589844 938.140625 226.171875 935.230469 223.605469 C 932.703125 224.46875 927.765625 226.066406 921.289062 227.726562 C 914.582031 229.445312 908.546875 230.34375 905.300781 230.753906 C 904.320312 235.457031 901.648438 246.269531 895.648438 259.3125 C 889.367188 272.96875 881.945312 280.628906 878.5 283.6875 C 879.390625 286.238281 881.171875 290.835938 883.824219 295.46875 C 882.066406 296.84375 880.261719 298.152344 878.414062 299.398438 C 875.390625 294.257812 873.371094 289.148438 872.316406 286.15625 C 869.023438 286.460938 863.078125 286.90625 856.277344 286.90625 C 850.046875 286.90625 844.46875 286.53125 839.6875 285.789062 C 827.738281 283.9375 819.589844 281.242188 815.785156 279.796875 C 814.03125 282.117188 810.984375 286.480469 808.152344 292.101562 C 805.453125 297.460938 803.210938 302.953125 802.359375 305.105469 C 802.957031 307.382812 804.914062 313.90625 809.40625 321.28125 C 810.699219 323.402344 811.976562 325.324219 813.195312 327.050781 C 810.578125 326.882812 807.972656 326.832031 805.402344 327.398438 C 804.851562 326.546875 804.292969 325.660156 803.730469 324.742188 C 799.359375 317.566406 797.164062 311.160156 796.210938 307.828125 C 791.636719 306.390625 782.929688 303.21875 780.320312 302.226562 C 774.160156 299.882812 769.308594 297.199219 766.449219 295.457031 C 765.714844 296.660156 764.871094 298.222656 764.203125 299.96875 C 769.519531 311.660156 776.699219 322.328125 785.351562 331.609375 C 783.460938 332.324219 781.558594 332.980469 779.644531 333.554688 C 767.742188 320.273438 758.679688 304.40625 753.40625 286.90625 C 753.671875 286.878906 753.941406 286.851562 754.207031 286.835938 C 755.546875 286.765625 756.964844 288.128906 758.820312 289.09375 C 760.964844 287.835938 763.453125 286.382812 766.011719 284.882812 C 766.882812 286.660156 767.605469 287.914062 767.992188 288.554688 C 769.628906 289.648438 775.132812 293.140625 782.683594 296.015625 C 788.554688 298.25 793.710938 300.011719 796.828125 301.039062 C 797.957031 298.265625 799.902344 293.695312 802.21875 289.105469 C 805.460938 282.675781 808.921875 277.808594 810.792969 275.363281 C 808.609375 270.871094 803.375 259.292969 801.15625 247.230469 C 799.023438 235.644531 798.972656 226.898438 799.132812 222.707031 C 797.777344 222.257812 795.953125 221.617188 793.847656 220.8125 C 795.332031 218.960938 796.789062 217.144531 798.230469 215.351562 C 799.609375 215.851562 800.792969 216.257812 801.6875 216.550781 C 805.464844 212.847656 815.871094 203.054688 824.847656 198.246094 C 828.09375 196.511719 830.554688 195.109375 832.730469 193.878906 C 837.960938 190.90625 841.527344 188.882812 849.660156 185.757812 C 850.253906 183.589844 851.484375 179.410156 853.707031 173.195312 C 855.832031 167.257812 857.515625 163.28125 858.613281 160.898438 C 858.585938 160.878906 858.554688 160.863281 858.523438 160.84375 C 862.839844 156.738281 868.378906 154.980469 873.902344 153.214844 C 875.964844 152.554688 878.25 152.582031 880.894531 152.234375 C 880.398438 153.839844 880.132812 154.691406 879.855469 155.585938 C 887.417969 153.324219 894.835938 151.105469 902.257812 148.894531 C 907.953125 147.195312 913.769531 145.828125 919.3125 143.734375 C 921.617188 142.863281 923.90625 141.929688 926.183594 140.980469 C 933.433594 144.585938 940.28125 148.886719 946.636719 153.792969 C 946.128906 153.9375 945.617188 154.085938 945.113281 154.242188 C 942.933594 154.90625 940.554688 155.210938 938.605469 156.289062 C 932.625 159.597656 926.710938 163.027344 920.78125 166.425781 C 919.84375 165.761719 918.878906 165.105469 917.890625 164.476562 C 907.78125 158.039062 898.800781 154.304688 896.300781 153.316406 C 894.183594 153.574219 887.957031 154.425781 881.292969 156.3125 C 874.738281 158.167969 867.882812 161.09375 865.347656 162.214844 C 864.507812 163.921875 862.59375 168.078125 859.964844 175.433594 C 858.148438 180.527344 857.015625 184.207031 856.378906 186.4375 C 860.671875 188.574219 869.894531 193.585938 881.371094 202.324219 C 891.210938 209.816406 900.664062 220.464844 903.890625 224.226562 C 906.734375 223.882812 912.859375 223.023438 919.636719 221.285156 C 925.933594 219.671875 930.78125 218.101562 933.160156 217.285156 C 933.816406 214.570312 935.109375 208.640625 935.992188 200.804688 C 936.96875 192.128906 937.238281 184.628906 937.304688 181.832031 C 935.753906 179.972656 931.746094 175.378906 926.222656 170.675781 C 932.5625 167.070312 939.46875 165.148438 947.265625 165.847656 C 949.941406 166.089844 952.695312 166.488281 955.3125 166.117188 C 956.691406 165.921875 958.070312 165.582031 959.425781 165.148438 C 981.246094 187.394531 994.726562 217.851562 994.726562 251.398438 C 994.726562 252.269531 994.714844 253.132812 994.695312 254 Z M 989.183594 249.949219 C 988.84375 222.054688 978.757812 196.460938 962.175781 176.433594 C 954.667969 179.566406 947.480469 181.988281 943.921875 183.132812 C 943.8125 186.628906 943.503906 193.535156 942.597656 201.546875 C 941.691406 209.59375 940.394531 215.65625 939.675781 218.652344 C 942.863281 221.464844 950.097656 228.230469 955.480469 236.253906 C 959.421875 242.136719 963.941406 250.375 966.09375 254.402344 C 970.195312 253.304688 978.699219 251.246094 989.183594 249.949219 Z M 785.03125 339.207031 C 787.984375 342.109375 791.082031 344.867188 794.3125 347.46875 C 796.292969 346.675781 798.269531 345.886719 800.25 345.09375 C 797.347656 342.886719 794.550781 340.546875 791.871094 338.085938 C 789.59375 338.476562 787.3125 338.851562 785.03125 339.207031 Z M 885.128906 352.554688 C 886.65625 350.683594 889.355469 347.1875 892.074219 342.789062 C 889.015625 343.757812 885.878906 344.355469 882.707031 344.789062 C 881.574219 346.34375 880.585938 347.597656 879.902344 348.433594 C 876.597656 348.21875 868.527344 347.613281 858.125 346.335938 C 856.050781 348.277344 854.382812 350.5625 854.015625 352.472656 C 846.976562 353.03125 839.925781 353.167969 833.019531 354.230469 C 826.070312 355.300781 819.515625 357.304688 813.257812 360.035156 C 824.816406 366.25 837.472656 370.667969 850.855469 372.929688 C 856.617188 368.773438 862.359375 364.582031 868.152344 360.460938 C 869.542969 359.472656 871.191406 358.84375 872.863281 358.292969 C 869.007812 363.296875 862.246094 365.125 858.554688 371.339844 C 864.367188 372.199219 866.972656 368.269531 870.148438 365.941406 C 875.414062 362.085938 880.355469 357.753906 885.625 353.90625 C 885.433594 353.402344 885.265625 352.945312 885.128906 352.554688 Z M 814.175781 346.683594 C 816.347656 349.074219 822.289062 349.539062 823.988281 347.695312 C 824.527344 347.105469 824.492188 345.253906 823.960938 344.550781 C 822.410156 342.492188 817 342.203125 815.195312 344.023438 C 814.507812 344.714844 814.417969 346.007812 814.175781 346.683594 Z M 893.203125 307.15625 C 892.046875 306.082031 890.863281 304.898438 889.714844 303.628906 C 889.140625 304.03125 888.585938 304.457031 888.097656 304.949219 C 887.058594 305.988281 886.328125 307.335938 885.460938 308.546875 C 885.796875 308.992188 886.132812 309.4375 886.46875 309.878906 C 886.523438 309.933594 886.574219 309.988281 886.625 310.042969 C 888.804688 309.054688 891.039062 308.167969 893.203125 307.15625 Z M 811.464844 334.386719 C 811.136719 334.453125 810.808594 334.519531 810.480469 334.582031 C 812.011719 336.574219 813.371094 338.183594 814.449219 339.402344 C 815.132812 339.128906 815.820312 338.851562 816.503906 338.578125 C 817.996094 337.980469 819.476562 337.335938 820.929688 336.640625 C 820.21875 335.890625 818.996094 334.550781 817.460938 332.671875 C 815.480469 333.347656 813.496094 333.980469 811.464844 334.386719 Z M 969.277344 281.253906 C 977.105469 278.519531 984.988281 275.945312 992.804688 273.171875 C 992.414062 275.34375 991.964844 277.492188 991.464844 279.625 C 987.953125 281.167969 984.355469 282.519531 980.628906 283.585938 C 978.695312 284.699219 976.722656 285.738281 974.660156 286.515625 C 973.941406 286.789062 973.21875 287.054688 972.488281 287.3125 C 971.367188 287.710938 973.027344 288.132812 974.921875 288.023438 C 971.476562 292.726562 959.539062 297.796875 954.804688 297.910156 C 951.976562 297.980469 949.152344 298.1875 946.332031 298.40625 C 948.125 295.371094 949.96875 291.863281 951.582031 288.019531 C 956.859375 286.414062 962.140625 284.808594 967.417969 283.199219 C 967.335938 283.117188 967.253906 283.035156 967.171875 282.964844 C 967.871094 282.378906 968.472656 281.535156 969.277344 281.253906 Z M 958.042969 292.105469 C 961.019531 291.539062 964.378906 290.585938 966.792969 289.214844 C 969.207031 287.839844 960.707031 288.574219 958.042969 292.105469 Z M 958.042969 292.105469 "/><g style="fill:#000000;fill-opacity:1;"><g transform="translate(59.360062, 109.59993)"><path style="stroke:none" d="M 3.8125 -35.328125 L 15.890625 -35.328125 L 24.609375 -10.078125 L 33.203125 -35.328125 L 44.578125 -35.328125 L 44.578125 0 L 36.90625 0 L 36.90625 -26.125 L 36.75 -26.125 L 27.8125 0 L 21.015625 0 L 11.8125 -26.125 L 11.59375 -26.125 L 11.59375 0 L 3.8125 0 Z M 3.8125 -35.328125 "/></g></g><g style="fill:#000000;fill-opacity:1;"><g transform="translate(107.754753, 109.59993)"><path style="stroke:none" d="M 13.171875 -35.328125 L 23.515625 -35.328125 L 36.25 0 L 27.65625 0 L 24.5 -9.3125 L 11.59375 -9.3125 L 8.5 0 L 0.109375 0 Z M 22.640625 -14.96875 L 18.1875 -28.25 L 17.96875 -28.25 L 13.5 -14.96875 Z M 22.640625 -14.96875 "/></g></g><g style="fill:#000000;fill-opacity:1;"><g transform="translate(144.118812, 109.59993)"><path style="stroke:none" d="M 3.8125 -35.328125 L 12.296875 -35.328125 L 12.296875 0 L 3.8125 0 Z M 3.8125 -35.328125 "/></g></g><g style="fill:#000000;fill-opacity:1;"><g transform="translate(160.232234, 109.59993)"><path style="stroke:none" d="M 15.25 0.546875 C 11.875 0.546875 7.695312 0.21875 2.71875 -0.4375 L 2.71875 -6.90625 C 8.882812 -5.96875 13.09375 -5.5 15.34375 -5.5 C 20.0625 -5.5 22.421875 -6.710938 22.421875 -9.140625 L 22.421875 -11.4375 C 22.421875 -12.59375 22.082031 -13.476562 21.40625 -14.09375 C 20.738281 -14.71875 19.535156 -15.03125 17.796875 -15.03125 L 13.65625 -15.03125 C 5.894531 -15.03125 2.015625 -18.113281 2.015625 -24.28125 L 2.015625 -26.890625 C 2.015625 -29.972656 3.300781 -32.238281 5.875 -33.6875 C 8.457031 -35.144531 12.539062 -35.875 18.125 -35.875 C 21.03125 -35.875 24.710938 -35.640625 29.171875 -35.171875 L 29.171875 -28.859375 C 23.691406 -29.503906 19.921875 -29.828125 17.859375 -29.828125 C 14.992188 -29.828125 13.066406 -29.59375 12.078125 -29.125 C 11.023438 -28.613281 10.5 -27.816406 10.5 -26.734375 L 10.5 -24.21875 C 10.5 -22.375 12.0625 -21.453125 15.1875 -21.453125 L 19.4375 -21.453125 C 23.46875 -21.453125 26.390625 -20.707031 28.203125 -19.21875 C 30.015625 -17.726562 30.921875 -15.457031 30.921875 -12.40625 L 30.921875 -10.078125 C 30.921875 -5.859375 29.414062 -3.007812 26.40625 -1.53125 C 24.945312 -0.757812 23.335938 -0.222656 21.578125 0.078125 C 19.816406 0.390625 17.707031 0.546875 15.25 0.546875 Z M 15.25 0.546875 "/></g></g><g style="fill:#000000;fill-opacity:1;"><g transform="translate(193.221193, 109.59993)"><path style="stroke:none" d=""/></g></g><g style="fill:#005600;fill-opacity:1;"><g transform="translate(205.744334, 109.59993)"><path style="stroke:none" d="M 3.8125 -35.328125 L 30.75 -35.328125 L 30.75 -29.28125 L 12.296875 -29.28125 L 12.296875 -21.171875 L 28.953125 -21.171875 L 28.953125 -15.140625 L 12.296875 -15.140625 L 12.296875 -6.046875 L 31.296875 -6.046875 L 31.296875 0 L 3.8125 0 Z M 3.8125 -35.328125 "/></g></g><g style="fill:#005600;fill-opacity:1;"><g transform="translate(238.951034, 109.59993)"><path style="stroke:none" d="M 15.25 0.546875 C 11.875 0.546875 7.695312 0.21875 2.71875 -0.4375 L 2.71875 -6.90625 C 8.882812 -5.96875 13.09375 -5.5 15.34375 -5.5 C 20.0625 -5.5 22.421875 -6.710938 22.421875 -9.140625 L 22.421875 -11.4375 C 22.421875 -12.59375 22.082031 -13.476562 21.40625 -14.09375 C 20.738281 -14.71875 19.535156 -15.03125 17.796875 -15.03125 L 13.65625 -15.03125 C 5.894531 -15.03125 2.015625 -18.113281 2.015625 -24.28125 L 2.015625 -26.890625 C 2.015625 -29.972656 3.300781 -32.238281 5.875 -33.6875 C 8.457031 -35.144531 12.539062 -35.875 18.125 -35.875 C 21.03125 -35.875 24.710938 -35.640625 29.171875 -35.171875 L 29.171875 -28.859375 C 23.691406 -29.503906 19.921875 -29.828125 17.859375 -29.828125 C 14.992188 -29.828125 13.066406 -29.59375 12.078125 -29.125 C 11.023438 -28.613281 10.5 -27.816406 10.5 -26.734375 L 10.5 -24.21875 C 10.5 -22.375 12.0625 -21.453125 15.1875 -21.453125 L 19.4375 -21.453125 C 23.46875 -21.453125 26.390625 -20.707031 28.203125 -19.21875 C 30.015625 -17.726562 30.921875 -15.457031 30.921875 -12.40625 L 30.921875 -10.078125 C 30.921875 -5.859375 29.414062 -3.007812 26.40625 -1.53125 C 24.945312 -0.757812 23.335938 -0.222656 21.578125 0.078125 C 19.816406 0.390625 17.707031 0.546875 15.25 0.546875 Z M 15.25 0.546875 "/></g></g><g style="fill:#005600;fill-opacity:1;"><g transform="translate(271.939993, 109.59993)"><path style="stroke:none" d="M 11.96875 -29.28125 L 1.09375 -29.28125 L 1.09375 -35.328125 L 31.296875 -35.328125 L 31.296875 -29.28125 L 20.46875 -29.28125 L 20.46875 0 L 11.96875 0 Z M 11.96875 -29.28125 "/></g></g><g style="fill:#005600;fill-opacity:1;"><g transform="translate(304.330143, 109.59993)"><path style="stroke:none" d="M 3.8125 -35.328125 L 12.296875 -35.328125 L 12.296875 0 L 3.8125 0 Z M 3.8125 -35.328125 "/></g></g><g style="fill:#005600;fill-opacity:1;"><g transform="translate(320.443565, 109.59993)"><path style="stroke:none" d="M 3.8125 -35.328125 L 12.296875 -35.328125 L 12.296875 -6.046875 L 29.671875 -6.046875 L 29.671875 0 L 3.8125 0 Z M 3.8125 -35.328125 "/></g></g><g style="fill:#005600;fill-opacity:1;"><g transform="translate(352.017154, 109.59993)"><path style="stroke:none" d="M 19.765625 0.546875 C 17.804688 0.546875 16 0.414062 14.34375 0.15625 C 12.695312 -0.09375 10.984375 -0.523438 9.203125 -1.140625 C 7.273438 -1.796875 5.765625 -2.859375 4.671875 -4.328125 C 3.585938 -5.796875 3.046875 -7.582031 3.046875 -9.6875 L 3.046875 -25.15625 C 3.046875 -26.894531 3.4375 -28.453125 4.21875 -29.828125 C 5 -31.210938 6.003906 -32.300781 7.234375 -33.09375 C 8.328125 -33.78125 9.671875 -34.359375 11.265625 -34.828125 C 12.859375 -35.304688 14.347656 -35.597656 15.734375 -35.703125 C 17.003906 -35.816406 18.347656 -35.875 19.765625 -35.875 C 21.429688 -35.875 22.878906 -35.8125 24.109375 -35.6875 C 25.347656 -35.5625 26.726562 -35.296875 28.25 -34.890625 C 29.988281 -34.378906 31.421875 -33.757812 32.546875 -33.03125 C 33.671875 -32.3125 34.617188 -31.300781 35.390625 -30 C 36.179688 -28.65625 36.578125 -27.039062 36.578125 -25.15625 L 36.578125 -9.6875 C 36.578125 -7.726562 36.0625 -6.039062 35.03125 -4.625 C 34 -3.207031 32.570312 -2.140625 30.75 -1.421875 C 27.488281 -0.109375 23.828125 0.546875 19.765625 0.546875 Z M 19.875 -5.5 C 21.070312 -5.5 22.078125 -5.539062 22.890625 -5.625 C 23.703125 -5.71875 24.546875 -5.894531 25.421875 -6.15625 C 26.296875 -6.40625 26.957031 -6.828125 27.40625 -7.421875 C 27.863281 -8.023438 28.09375 -8.78125 28.09375 -9.6875 L 28.09375 -25.203125 C 28.09375 -26.867188 27.421875 -28.054688 26.078125 -28.765625 C 24.734375 -29.472656 22.644531 -29.828125 19.8125 -29.828125 C 16.976562 -29.828125 14.890625 -29.484375 13.546875 -28.796875 C 12.210938 -28.109375 11.546875 -26.910156 11.546875 -25.203125 L 11.546875 -9.6875 C 11.546875 -8.78125 11.78125 -8.023438 12.25 -7.421875 C 12.71875 -6.828125 13.40625 -6.40625 14.3125 -6.15625 C 15.1875 -5.894531 16.03125 -5.71875 16.84375 -5.625 C 17.664062 -5.539062 18.675781 -5.5 19.875 -5.5 Z M 19.875 -5.5 "/></g></g><g style="fill:#005600;fill-opacity:1;"><g transform="translate(391.647455, 109.59993)"><path style="stroke:none" d="M 3.53125 -7.515625 L 11.8125 -7.515625 L 6.703125 6.09375 L 1.03125 6.09375 Z M 3.53125 -7.515625 "/></g></g><g style="fill:#000000;fill-opacity:1;"><g transform="translate(59.360062, 161.283237)"><path style="stroke:none" d="M 3.8125 -35.328125 L 15.890625 -35.328125 L 24.609375 -10.078125 L 33.203125 -35.328125 L 44.578125 -35.328125 L 44.578125 0 L 36.90625 0 L 36.90625 -26.125 L 36.75 -26.125 L 27.8125 0 L 21.015625 0 L 11.8125 -26.125 L 11.59375 -26.125 L 11.59375 0 L 3.8125 0 Z M 3.8125 -35.328125 "/></g></g><g style="fill:#000000;fill-opacity:1;"><g transform="translate(107.754753, 161.283237)"><path style="stroke:none" d="M 13.171875 -35.328125 L 23.515625 -35.328125 L 36.25 0 L 27.65625 0 L 24.5 -9.3125 L 11.59375 -9.3125 L 8.5 0 L 0.109375 0 Z M 22.640625 -14.96875 L 18.1875 -28.25 L 17.96875 -28.25 L 13.5 -14.96875 Z M 22.640625 -14.96875 "/></g></g><g style="fill:#000000;fill-opacity:1;"><g transform="translate(144.118812, 161.283237)"><path style="stroke:none" d="M 3.8125 -35.328125 L 12.296875 -35.328125 L 12.296875 0 L 3.8125 0 Z M 3.8125 -35.328125 "/></g></g><g style="fill:#000000;fill-opacity:1;"><g transform="translate(160.232234, 161.283237)"><path style="stroke:none" d="M 15.25 0.546875 C 11.875 0.546875 7.695312 0.21875 2.71875 -0.4375 L 2.71875 -6.90625 C 8.882812 -5.96875 13.09375 -5.5 15.34375 -5.5 C 20.0625 -5.5 22.421875 -6.710938 22.421875 -9.140625 L 22.421875 -11.4375 C 22.421875 -12.59375 22.082031 -13.476562 21.40625 -14.09375 C 20.738281 -14.71875 19.535156 -15.03125 17.796875 -15.03125 L 13.65625 -15.03125 C 5.894531 -15.03125 2.015625 -18.113281 2.015625 -24.28125 L 2.015625 -26.890625 C 2.015625 -29.972656 3.300781 -32.238281 5.875 -33.6875 C 8.457031 -35.144531 12.539062 -35.875 18.125 -35.875 C 21.03125 -35.875 24.710938 -35.640625 29.171875 -35.171875 L 29.171875 -28.859375 C 23.691406 -29.503906 19.921875 -29.828125 17.859375 -29.828125 C 14.992188 -29.828125 13.066406 -29.59375 12.078125 -29.125 C 11.023438 -28.613281 10.5 -27.816406 10.5 -26.734375 L 10.5 -24.21875 C 10.5 -22.375 12.0625 -21.453125 15.1875 -21.453125 L 19.4375 -21.453125 C 23.46875 -21.453125 26.390625 -20.707031 28.203125 -19.21875 C 30.015625 -17.726562 30.921875 -15.457031 30.921875 -12.40625 L 30.921875 -10.078125 C 30.921875 -5.859375 29.414062 -3.007812 26.40625 -1.53125 C 24.945312 -0.757812 23.335938 -0.222656 21.578125 0.078125 C 19.816406 0.390625 17.707031 0.546875 15.25 0.546875 Z M 15.25 0.546875 "/></g></g><g style="fill:#003900;fill-opacity:1;"><g transform="translate(193.22728, 161.283237)"><path style="stroke:none" d=""/></g></g><g style="fill:#003900;fill-opacity:1;"><g transform="translate(205.747839, 161.283237)"><path style="stroke:none" d="M 3.8125 -35.328125 L 31.296875 -35.328125 L 31.296875 -29.28125 L 12.296875 -29.28125 L 12.296875 -20.625 L 29.5 -20.625 L 29.5 -14.59375 L 12.296875 -14.59375 L 12.296875 0 L 3.8125 0 Z M 3.8125 -35.328125 "/></g></g><g style="fill:#003900;fill-opacity:1;"><g transform="translate(238.954539, 161.283237)"><path style="stroke:none" d="M 19 0.546875 C 8.800781 0.546875 3.703125 -2.863281 3.703125 -9.6875 L 3.703125 -35.328125 L 12.1875 -35.328125 L 12.1875 -9.6875 C 12.1875 -8.09375 12.703125 -6.992188 13.734375 -6.390625 C 14.773438 -5.796875 16.566406 -5.5 19.109375 -5.5 C 21.609375 -5.5 23.359375 -5.796875 24.359375 -6.390625 C 25.359375 -6.992188 25.859375 -8.09375 25.859375 -9.6875 L 25.859375 -35.328125 L 34.34375 -35.328125 L 34.34375 -9.6875 C 34.34375 -2.863281 29.226562 0.546875 19 0.546875 Z M 19 0.546875 "/></g></g><g style="fill:#003900;fill-opacity:1;"><g transform="translate(277.006155, 161.283237)"><path style="stroke:none" d="M 11.96875 -29.28125 L 1.09375 -29.28125 L 1.09375 -35.328125 L 31.296875 -35.328125 L 31.296875 -29.28125 L 20.46875 -29.28125 L 20.46875 0 L 11.96875 0 Z M 11.96875 -29.28125 "/></g></g><g style="fill:#003900;fill-opacity:1;"><g transform="translate(309.396305, 161.283237)"><path style="stroke:none" d="M 3.8125 -35.328125 L 30.75 -35.328125 L 30.75 -29.28125 L 12.296875 -29.28125 L 12.296875 -21.171875 L 28.953125 -21.171875 L 28.953125 -15.140625 L 12.296875 -15.140625 L 12.296875 -6.046875 L 31.296875 -6.046875 L 31.296875 0 L 3.8125 0 Z M 3.8125 -35.328125 "/></g></g><g style="fill:#003900;fill-opacity:1;"><g transform="translate(342.603005, 161.283237)"><path style="stroke:none" d="M 3.8125 -35.328125 L 18.125 -35.328125 C 21.5 -35.328125 24.101562 -35.082031 25.9375 -34.59375 C 27.769531 -34.101562 29.066406 -33.320312 29.828125 -32.25 C 30.585938 -31.175781 30.96875 -29.679688 30.96875 -27.765625 L 30.96875 -23.40625 C 30.96875 -22.425781 30.578125 -21.5 29.796875 -20.625 C 29.023438 -19.757812 28.113281 -19.160156 27.0625 -18.828125 L 27.0625 -18.5625 C 28.4375 -18.414062 29.691406 -17.828125 30.828125 -16.796875 C 31.972656 -15.765625 32.546875 -14.613281 32.546875 -13.34375 L 32.546875 -7.890625 C 32.546875 -5.023438 31.398438 -2.992188 29.109375 -1.796875 C 26.828125 -0.597656 23.296875 0 18.515625 0 L 3.8125 0 Z M 18.125 -20.953125 C 19.46875 -20.953125 20.46875 -21.0625 21.125 -21.28125 C 21.78125 -21.5 22.222656 -21.851562 22.453125 -22.34375 C 22.691406 -22.832031 22.8125 -23.550781 22.8125 -24.5 L 22.8125 -26.234375 C 22.8125 -27.066406 22.703125 -27.691406 22.484375 -28.109375 C 22.265625 -28.535156 21.816406 -28.835938 21.140625 -29.015625 C 20.472656 -29.191406 19.414062 -29.28125 17.96875 -29.28125 L 12.296875 -29.28125 L 12.296875 -20.953125 Z M 18.34375 -6.046875 C 20.414062 -6.046875 21.882812 -6.28125 22.75 -6.75 C 23.625 -7.21875 24.0625 -7.976562 24.0625 -9.03125 L 24.0625 -11.875 C 24.0625 -13.175781 23.722656 -14.097656 23.046875 -14.640625 C 22.378906 -15.179688 21.191406 -15.453125 19.484375 -15.453125 L 12.296875 -15.453125 L 12.296875 -6.046875 Z M 18.34375 -6.046875 "/></g></g><g style="fill:#003900;fill-opacity:1;"><g transform="translate(377.170628, 161.283237)"><path style="stroke:none" d="M 19.765625 0.546875 C 17.804688 0.546875 16 0.414062 14.34375 0.15625 C 12.695312 -0.09375 10.984375 -0.523438 9.203125 -1.140625 C 7.273438 -1.796875 5.765625 -2.859375 4.671875 -4.328125 C 3.585938 -5.796875 3.046875 -7.582031 3.046875 -9.6875 L 3.046875 -25.15625 C 3.046875 -26.894531 3.4375 -28.453125 4.21875 -29.828125 C 5 -31.210938 6.003906 -32.300781 7.234375 -33.09375 C 8.328125 -33.78125 9.671875 -34.359375 11.265625 -34.828125 C 12.859375 -35.304688 14.347656 -35.597656 15.734375 -35.703125 C 17.003906 -35.816406 18.347656 -35.875 19.765625 -35.875 C 21.429688 -35.875 22.878906 -35.8125 24.109375 -35.6875 C 25.347656 -35.5625 26.726562 -35.296875 28.25 -34.890625 C 29.988281 -34.378906 31.421875 -33.757812 32.546875 -33.03125 C 33.671875 -32.3125 34.617188 -31.300781 35.390625 -30 C 36.179688 -28.65625 36.578125 -27.039062 36.578125 -25.15625 L 36.578125 -9.6875 C 36.578125 -7.726562 36.0625 -6.039062 35.03125 -4.625 C 34 -3.207031 32.570312 -2.140625 30.75 -1.421875 C 27.488281 -0.109375 23.828125 0.546875 19.765625 0.546875 Z M 19.875 -5.5 C 21.070312 -5.5 22.078125 -5.539062 22.890625 -5.625 C 23.703125 -5.71875 24.546875 -5.894531 25.421875 -6.15625 C 26.296875 -6.40625 26.957031 -6.828125 27.40625 -7.421875 C 27.863281 -8.023438 28.09375 -8.78125 28.09375 -9.6875 L 28.09375 -25.203125 C 28.09375 -26.867188 27.421875 -28.054688 26.078125 -28.765625 C 24.734375 -29.472656 22.644531 -29.828125 19.8125 -29.828125 C 16.976562 -29.828125 14.890625 -29.484375 13.546875 -28.796875 C 12.210938 -28.109375 11.546875 -26.910156 11.546875 -25.203125 L 11.546875 -9.6875 C 11.546875 -8.78125 11.78125 -8.023438 12.25 -7.421875 C 12.71875 -6.828125 13.40625 -6.40625 14.3125 -6.15625 C 15.1875 -5.894531 16.03125 -5.71875 16.84375 -5.625 C 17.664062 -5.539062 18.675781 -5.5 19.875 -5.5 Z M 19.875 -5.5 "/></g></g><g style="fill:#003900;fill-opacity:1;"><g transform="translate(416.800939, 161.283237)"><path style="stroke:none" d="M 3.8125 -35.328125 L 12.296875 -35.328125 L 12.296875 -6.046875 L 29.671875 -6.046875 L 29.671875 0 L 3.8125 0 Z M 3.8125 -35.328125 "/></g></g><g style="fill:#003900;fill-opacity:1;"><g transform="translate(448.374539, 161.283237)"><path style="stroke:none" d="M 2.71875 -7.515625 L 11.21875 -7.515625 L 11.21875 0 L 2.71875 0 Z M 2.71875 -7.515625 "/></g></g><g style="fill:#005600;fill-opacity:1;"><g transform="translate(59.360062, 301.358896)"><path style="stroke:none" d="M 42.921875 0 L 24.65625 0 L 24.65625 -35.265625 C 24.65625 -39.554688 24.742188 -43.476562 24.921875 -47.03125 C 23.796875 -45.664062 22.398438 -44.238281 20.734375 -42.75 L 13.171875 -36.5 L 3.828125 -47.984375 L 26.703125 -66.625 L 42.921875 -66.625 Z M 42.921875 0 "/></g></g><g style="fill:#005600;fill-opacity:1;"><g transform="translate(114.036016, 301.358896)"><path style="stroke:none" d="M 51.40625 -33.21875 C 51.40625 -21.4375 49.429688 -12.800781 45.484375 -7.3125 C 41.535156 -1.832031 35.488281 0.90625 27.34375 0.90625 C 19.382812 0.90625 13.382812 -1.953125 9.34375 -7.671875 C 5.300781 -13.398438 3.28125 -21.914062 3.28125 -33.21875 C 3.28125 -45.070312 5.253906 -53.757812 9.203125 -59.28125 C 13.148438 -64.8125 19.195312 -67.578125 27.34375 -67.578125 C 35.269531 -67.578125 41.257812 -64.695312 45.3125 -58.9375 C 49.375 -53.1875 51.40625 -44.613281 51.40625 -33.21875 Z M 21.1875 -33.21875 C 21.1875 -25.6875 21.65625 -20.503906 22.59375 -17.671875 C 23.539062 -14.847656 25.125 -13.4375 27.34375 -13.4375 C 29.59375 -13.4375 31.179688 -14.894531 32.109375 -17.8125 C 33.035156 -20.726562 33.5 -25.863281 33.5 -33.21875 C 33.5 -40.601562 33.023438 -45.773438 32.078125 -48.734375 C 31.140625 -51.703125 29.5625 -53.1875 27.34375 -53.1875 C 25.125 -53.1875 23.539062 -51.753906 22.59375 -48.890625 C 21.65625 -46.035156 21.1875 -40.8125 21.1875 -33.21875 Z M 21.1875 -33.21875 "/></g></g><g style="fill:#005600;fill-opacity:1;"><g transform="translate(170.70745, 270.84928)"><path style="stroke:none" d="M 8.84375 -26.75 C 8.84375 -24.738281 9.007812 -23.289062 9.34375 -22.40625 C 9.675781 -21.519531 10.175781 -21.078125 10.84375 -21.078125 C 11.5 -21.078125 11.988281 -21.507812 12.3125 -22.375 C 12.632812 -23.25 12.796875 -24.707031 12.796875 -26.75 C 12.796875 -28.757812 12.632812 -30.207031 12.3125 -31.09375 C 11.988281 -31.988281 11.5 -32.4375 10.84375 -32.4375 C 10.15625 -32.4375 9.648438 -31.976562 9.328125 -31.0625 C 9.003906 -30.15625 8.84375 -28.71875 8.84375 -26.75 Z M 20.703125 -26.859375 C 20.703125 -23.015625 19.835938 -20.039062 18.109375 -17.9375 C 16.378906 -15.84375 13.921875 -14.796875 10.734375 -14.796875 C 7.734375 -14.796875 5.351562 -15.878906 3.59375 -18.046875 C 1.84375 -20.222656 0.96875 -23.160156 0.96875 -26.859375 C 0.96875 -30.691406 1.820312 -33.640625 3.53125 -35.703125 C 5.238281 -37.773438 7.640625 -38.8125 10.734375 -38.8125 C 13.785156 -38.8125 16.207031 -37.738281 18 -35.59375 C 19.800781 -33.445312 20.703125 -30.535156 20.703125 -26.859375 Z M 39.78125 -38.265625 L 18.5625 0 L 10.78125 0 L 32.015625 -38.265625 Z M 37.953125 -11.515625 C 37.953125 -9.503906 38.117188 -8.054688 38.453125 -7.171875 C 38.785156 -6.285156 39.28125 -5.84375 39.9375 -5.84375 C 40.695312 -5.84375 41.21875 -6.351562 41.5 -7.375 C 41.789062 -8.394531 41.9375 -9.773438 41.9375 -11.515625 C 41.9375 -13.265625 41.789062 -14.648438 41.5 -15.671875 C 41.21875 -16.691406 40.695312 -17.203125 39.9375 -17.203125 C 39.257812 -17.203125 38.757812 -16.742188 38.4375 -15.828125 C 38.113281 -14.921875 37.953125 -13.484375 37.953125 -11.515625 Z M 49.8125 -11.625 C 49.8125 -7.800781 48.941406 -4.835938 47.203125 -2.734375 C 45.472656 -0.628906 43.019531 0.421875 39.84375 0.421875 C 36.84375 0.421875 34.460938 -0.660156 32.703125 -2.828125 C 30.953125 -5.003906 30.078125 -7.9375 30.078125 -11.625 C 30.078125 -15.457031 30.929688 -18.40625 32.640625 -20.46875 C 34.347656 -22.539062 36.75 -23.578125 39.84375 -23.578125 C 42.894531 -23.578125 45.316406 -22.503906 47.109375 -20.359375 C 48.910156 -18.210938 49.8125 -15.300781 49.8125 -11.625 Z M 49.8125 -11.625 "/></g></g><g style="fill:#005600;fill-opacity:1;"><g transform="translate(171.86074, 302.720186)"><path style="stroke:none" d="M 19.703125 -9.46875 C 19.703125 -6.289062 18.921875 -3.875 17.359375 -2.21875 C 15.804688 -0.5625 13.523438 0.265625 10.515625 0.265625 C 7.554688 0.265625 5.285156 -0.5625 3.703125 -2.21875 C 2.128906 -3.882812 1.34375 -6.304688 1.34375 -9.484375 C 1.34375 -12.628906 2.125 -15.03125 3.6875 -16.6875 C 5.257812 -18.34375 7.546875 -19.171875 10.546875 -19.171875 C 13.546875 -19.171875 15.820312 -18.347656 17.375 -16.703125 C 18.925781 -15.054688 19.703125 -12.644531 19.703125 -9.46875 Z M 6.71875 -9.46875 C 6.71875 -5.8125 7.984375 -3.984375 10.515625 -3.984375 C 11.804688 -3.984375 12.765625 -4.425781 13.390625 -5.3125 C 14.015625 -6.195312 14.328125 -7.582031 14.328125 -9.46875 C 14.328125 -11.351562 14.007812 -12.742188 13.375 -13.640625 C 12.75 -14.535156 11.804688 -14.984375 10.546875 -14.984375 C 7.992188 -14.984375 6.71875 -13.144531 6.71875 -9.46875 Z M 6.71875 -9.46875 "/></g><g transform="translate(192.929796, 302.720186)"><path style="stroke:none" d="M 7.0625 0 L 2.046875 0 L 2.046875 -18.875 L 13.1875 -18.875 L 13.1875 -14.78125 L 7.0625 -14.78125 L 7.0625 -11.171875 L 12.71875 -11.171875 L 12.71875 -7.09375 L 7.0625 -7.09375 Z M 7.0625 0 "/></g><g transform="translate(207.182392, 302.720186)"><path style="stroke:none" d="M 7.0625 0 L 2.046875 0 L 2.046875 -18.875 L 13.1875 -18.875 L 13.1875 -14.78125 L 7.0625 -14.78125 L 7.0625 -11.171875 L 12.71875 -11.171875 L 12.71875 -7.09375 L 7.0625 -7.09375 Z M 7.0625 0 "/></g></g></g></svg>