<svg xmlns="http://www.w3.org/2000/svg" xmlns:xlink="http://www.w3.org/1999/xlink" width="1920" zoomAndPan="magnify" viewBox="0 0 1440 585.000005" height="780" preserveAspectRatio="xMidYMid meet" version="1.2"><defs><clipPath id="cf197cfdf1"><path d="M 1.230469 0 L 1438.769531 0 L 1438.769531 584 L 1.230469 584 Z M 1.230469 0 "/></clipPath><clipPath id="16e7b666d7"><path d="M 346.09375 234.398438 L 416 234.398438 L 416 279.128906 L 346.09375 279.128906 Z M 346.09375 234.398438 "/></clipPath><clipPath id="7eec5a30dc"><path d="M 941 81.128906 L 1380.421875 81.128906 L 1380.421875 447.253906 L 941 447.253906 Z M 941 81.128906 "/></clipPath></defs><g id="649a462f20"><g clip-rule="nonzero" clip-path="url(#cf197cfdf1)"><path style=" stroke:none;fill-rule:nonzero;fill:#ffffff;fill-opacity:1;" d="M 1.230469 0 L 1438.769531 0 L 1438.769531 584 L 1.230469 584 Z M 1.230469 0 "/><path style=" stroke:none;fill-rule:nonzero;fill:#ffffff;fill-opacity:1;" d="M 1.230469 0 L 1.230469 584 L 1438.769531 584 L 1438.769531 0 Z M 1.230469 0 "/></g><g clip-rule="nonzero" clip-path="url(#16e7b666d7)"><path style=" stroke:none;fill-rule:nonzero;fill:#003900;fill-opacity:1;" d="M 375.167969 259.320312 C 375.167969 258.550781 375.796875 257.921875 376.566406 257.921875 L 380.375 257.921875 C 381.148438 257.921875 381.773438 258.550781 381.773438 259.320312 C 381.773438 260.09375 381.148438 260.71875 380.375 260.71875 L 376.566406 260.71875 C 375.796875 260.71875 375.167969 260.09375 375.167969 259.320312 Z M 364.761719 259.320312 C 364.761719 258.550781 365.386719 257.921875 366.160156 257.921875 L 369.964844 257.921875 C 370.738281 257.921875 371.363281 258.550781 371.363281 259.320312 C 371.363281 260.09375 370.738281 260.71875 369.964844 260.71875 L 366.160156 260.71875 C 365.386719 260.71875 364.761719 260.09375 364.761719 259.320312 Z M 354.351562 259.320312 C 354.351562 258.550781 354.976562 257.921875 355.75 257.921875 L 359.554688 257.921875 C 360.328125 257.921875 360.953125 258.550781 360.953125 259.320312 C 360.953125 260.09375 360.328125 260.71875 359.554688 260.71875 L 355.75 260.71875 C 354.976562 260.71875 354.351562 260.09375 354.351562 259.320312 Z M 401.4375 250.476562 C 402.074219 249.503906 402.445312 248.34375 402.445312 247.097656 C 402.445312 245.851562 402.074219 244.691406 401.4375 243.714844 C 403.136719 243.910156 404.46875 245.34375 404.46875 247.097656 C 404.46875 248.847656 403.136719 250.28125 401.4375 250.476562 Z M 392.808594 247.097656 C 392.808594 245.34375 394.136719 243.910156 395.835938 243.714844 C 395.203125 244.691406 394.828125 245.851562 394.828125 247.097656 C 394.828125 248.34375 395.203125 249.503906 395.835938 250.476562 C 394.136719 250.28125 392.808594 248.847656 392.808594 247.097656 Z M 397.625 247.097656 C 397.625 246.152344 398.011719 245.292969 398.636719 244.671875 C 399.261719 245.292969 399.648438 246.152344 399.648438 247.097656 C 399.648438 248.042969 399.261719 248.902344 398.636719 249.523438 C 398.011719 248.902344 397.625 248.042969 397.625 247.097656 Z M 401.046875 240.882812 C 400.191406 240.882812 399.378906 241.054688 398.636719 241.367188 C 397.894531 241.054688 397.082031 240.882812 396.226562 240.882812 C 392.800781 240.882812 390.011719 243.667969 390.011719 247.097656 C 390.011719 250.523438 392.800781 253.3125 396.226562 253.3125 C 397.082031 253.3125 397.894531 253.140625 398.636719 252.828125 C 399.378906 253.140625 400.191406 253.3125 401.046875 253.3125 C 404.476562 253.3125 407.261719 250.523438 407.261719 247.097656 C 407.261719 243.667969 404.476562 240.882812 401.046875 240.882812 Z M 404.46875 269.167969 L 357.144531 269.167969 L 357.144531 266.875 L 404.46875 266.875 Z M 405.867188 264.082031 L 355.75 264.082031 C 354.976562 264.082031 354.351562 264.707031 354.351562 265.476562 L 354.351562 270.566406 C 354.351562 271.335938 354.976562 271.960938 355.75 271.960938 L 405.867188 271.960938 C 406.636719 271.960938 407.261719 271.335938 407.261719 270.566406 L 407.261719 265.476562 C 407.261719 264.707031 406.636719 264.082031 405.867188 264.082031 Z M 413.195312 273.539062 C 413.195312 275.082031 411.941406 276.332031 410.402344 276.332031 L 351.6875 276.332031 C 350.144531 276.332031 348.894531 275.082031 348.894531 273.539062 L 348.894531 239.988281 C 348.894531 238.445312 350.144531 237.191406 351.6875 237.191406 L 410.402344 237.191406 C 411.941406 237.191406 413.195312 238.445312 413.195312 239.988281 Z M 410.402344 234.398438 L 351.6875 234.398438 C 348.605469 234.398438 346.097656 236.90625 346.097656 239.988281 L 346.097656 273.539062 C 346.097656 276.621094 348.605469 279.128906 351.6875 279.128906 L 410.402344 279.128906 C 413.484375 279.128906 415.992188 276.621094 415.992188 273.539062 L 415.992188 239.988281 C 415.992188 236.90625 413.484375 234.398438 410.402344 234.398438 "/></g><g style="fill:#003900;fill-opacity:1;"><g transform="translate(345.92747, 304.026214)"><path style="stroke:none" d="M 7.671875 0 L 4.40625 0 L 4.40625 -6.3125 C 4.40625 -7.070312 4.421875 -7.769531 4.453125 -8.40625 C 4.253906 -8.164062 4.003906 -7.910156 3.703125 -7.640625 L 2.359375 -6.53125 L 0.6875 -8.578125 L 4.78125 -11.90625 L 7.671875 -11.90625 Z M 7.671875 0 "/></g></g><g style="fill:#003900;fill-opacity:1;"><g transform="translate(355.69547, 304.026214)"><path style="stroke:none" d="M 9.140625 0 L 0.5 0 L 0.5 -2.125 L 3.40625 -5.0625 C 4.238281 -5.925781 4.78125 -6.515625 5.03125 -6.828125 C 5.289062 -7.148438 5.46875 -7.425781 5.5625 -7.65625 C 5.664062 -7.882812 5.71875 -8.125 5.71875 -8.375 C 5.71875 -8.6875 5.613281 -8.929688 5.40625 -9.109375 C 5.207031 -9.285156 4.929688 -9.375 4.578125 -9.375 C 4.203125 -9.375 3.820312 -9.265625 3.4375 -9.046875 C 3.050781 -8.835938 2.617188 -8.523438 2.140625 -8.109375 L 0.359375 -10.171875 C 0.972656 -10.722656 1.488281 -11.113281 1.90625 -11.34375 C 2.332031 -11.582031 2.789062 -11.765625 3.28125 -11.890625 C 3.769531 -12.015625 4.320312 -12.078125 4.9375 -12.078125 C 5.707031 -12.078125 6.394531 -11.941406 7 -11.671875 C 7.601562 -11.398438 8.070312 -11.015625 8.40625 -10.515625 C 8.75 -10.015625 8.921875 -9.453125 8.921875 -8.828125 C 8.921875 -8.359375 8.859375 -7.925781 8.734375 -7.53125 C 8.617188 -7.132812 8.4375 -6.742188 8.1875 -6.359375 C 7.945312 -5.972656 7.625 -5.566406 7.21875 -5.140625 C 6.8125 -4.722656 5.953125 -3.921875 4.640625 -2.734375 L 4.640625 -2.65625 L 9.140625 -2.65625 Z M 9.140625 0 "/></g></g><g style="fill:#003900;fill-opacity:1;"><g transform="translate(365.463471, 304.026214)"><path style="stroke:none" d="M 12.015625 0 L 8.296875 0 L 5.96875 -3.71875 L 3.671875 0 L 0.03125 0 L 3.984375 -6.09375 L 0.265625 -11.90625 L 3.84375 -11.90625 L 5.984375 -8.234375 L 8.0625 -11.90625 L 11.734375 -11.90625 L 7.953125 -5.84375 Z M 12.015625 0 "/></g></g><g style="fill:#003900;fill-opacity:1;"><g transform="translate(377.518818, 304.026214)"><path style="stroke:none" d=""/></g></g><g style="fill:#003900;fill-opacity:1;"><g transform="translate(381.849298, 304.026214)"><path style="stroke:none" d="M 9.078125 -3.625 C 9.078125 -2.882812 8.890625 -2.226562 8.515625 -1.65625 C 8.140625 -1.082031 7.597656 -0.632812 6.890625 -0.3125 C 6.179688 0 5.351562 0.15625 4.40625 0.15625 C 3.613281 0.15625 2.945312 0.101562 2.40625 0 C 1.875 -0.113281 1.316406 -0.3125 0.734375 -0.59375 L 0.734375 -3.453125 C 1.347656 -3.140625 1.984375 -2.894531 2.640625 -2.71875 C 3.304688 -2.539062 3.914062 -2.453125 4.46875 -2.453125 C 4.945312 -2.453125 5.296875 -2.535156 5.515625 -2.703125 C 5.742188 -2.867188 5.859375 -3.082031 5.859375 -3.34375 C 5.859375 -3.5 5.8125 -3.640625 5.71875 -3.765625 C 5.632812 -3.890625 5.492188 -4.015625 5.296875 -4.140625 C 5.097656 -4.265625 4.566406 -4.519531 3.703125 -4.90625 C 2.929688 -5.257812 2.347656 -5.597656 1.953125 -5.921875 C 1.566406 -6.253906 1.28125 -6.632812 1.09375 -7.0625 C 0.90625 -7.5 0.8125 -8.007812 0.8125 -8.59375 C 0.8125 -9.695312 1.207031 -10.550781 2 -11.15625 C 2.800781 -11.769531 3.898438 -12.078125 5.296875 -12.078125 C 6.535156 -12.078125 7.796875 -11.796875 9.078125 -11.234375 L 8.09375 -8.75 C 6.976562 -9.257812 6.015625 -9.515625 5.203125 -9.515625 C 4.785156 -9.515625 4.484375 -9.4375 4.296875 -9.28125 C 4.109375 -9.132812 4.015625 -8.957031 4.015625 -8.75 C 4.015625 -8.507812 4.132812 -8.296875 4.375 -8.109375 C 4.613281 -7.929688 5.269531 -7.597656 6.34375 -7.109375 C 7.363281 -6.640625 8.070312 -6.140625 8.46875 -5.609375 C 8.875 -5.085938 9.078125 -4.425781 9.078125 -3.625 Z M 9.078125 -3.625 "/></g></g><g style="fill:#003900;fill-opacity:1;"><g transform="translate(391.470779, 304.026214)"><path style="stroke:none" d="M 8.359375 0 L 1.28125 0 L 1.28125 -11.90625 L 8.359375 -11.90625 L 8.359375 -9.328125 L 4.5 -9.328125 L 4.5 -7.453125 L 8.078125 -7.453125 L 8.078125 -4.875 L 4.5 -4.875 L 4.5 -2.625 L 8.359375 -2.625 Z M 8.359375 0 "/></g></g><g style="fill:#003900;fill-opacity:1;"><g transform="translate(400.620139, 304.026214)"><path style="stroke:none" d="M 6.484375 0 L 4.046875 -8.578125 L 3.96875 -8.578125 C 4.082031 -7.117188 4.140625 -5.984375 4.140625 -5.171875 L 4.140625 0 L 1.28125 0 L 1.28125 -11.90625 L 5.578125 -11.90625 L 8.0625 -3.453125 L 8.125 -3.453125 L 10.5625 -11.90625 L 14.859375 -11.90625 L 14.859375 0 L 11.890625 0 L 11.890625 -5.21875 C 11.890625 -5.488281 11.894531 -5.789062 11.90625 -6.125 C 11.914062 -6.457031 11.953125 -7.269531 12.015625 -8.5625 L 11.9375 -8.5625 L 9.546875 0 Z M 6.484375 0 "/></g></g><g style="fill:#003900;fill-opacity:1;"><g transform="translate(354.994002, 327.236538)"><path style="stroke:none" d="M 0.34375 3.734375 C -0.238281 3.734375 -0.789062 3.675781 -1.3125 3.5625 L -1.3125 1.0625 C -1.144531 1.09375 -0.960938 1.128906 -0.765625 1.171875 C -0.566406 1.210938 -0.351562 1.234375 -0.125 1.234375 C 0.40625 1.234375 0.785156 1.070312 1.015625 0.75 C 1.242188 0.4375 1.359375 -0.109375 1.359375 -0.890625 L 1.359375 -11.90625 L 4.59375 -11.90625 L 4.59375 -1.171875 C 4.59375 0.441406 4.238281 1.660156 3.53125 2.484375 C 2.820312 3.316406 1.757812 3.734375 0.34375 3.734375 Z M 0.34375 3.734375 "/></g></g><g style="fill:#003900;fill-opacity:1;"><g transform="translate(360.862948, 327.236538)"><path style="stroke:none" d="M 11.421875 -11.90625 L 11.421875 -4.75 C 11.421875 -3.1875 10.976562 -1.976562 10.09375 -1.125 C 9.207031 -0.269531 7.9375 0.15625 6.28125 0.15625 C 4.65625 0.15625 3.40625 -0.253906 2.53125 -1.078125 C 1.65625 -1.910156 1.21875 -3.109375 1.21875 -4.671875 L 1.21875 -11.90625 L 4.453125 -11.90625 L 4.453125 -4.921875 C 4.453125 -4.078125 4.609375 -3.460938 4.921875 -3.078125 C 5.242188 -2.703125 5.710938 -2.515625 6.328125 -2.515625 C 6.984375 -2.515625 7.457031 -2.703125 7.75 -3.078125 C 8.050781 -3.460938 8.203125 -4.082031 8.203125 -4.9375 L 8.203125 -11.90625 Z M 11.421875 -11.90625 "/></g></g><g style="fill:#003900;fill-opacity:1;"><g transform="translate(373.479949, 327.236538)"><path style="stroke:none" d="M 4.5 -4.328125 L 4.5 0 L 1.28125 0 L 1.28125 -11.90625 L 5.1875 -11.90625 C 8.425781 -11.90625 10.046875 -10.734375 10.046875 -8.390625 C 10.046875 -7.015625 9.375 -5.945312 8.03125 -5.1875 L 11.5 0 L 7.84375 0 L 5.328125 -4.328125 Z M 4.5 -6.75 L 5.109375 -6.75 C 6.234375 -6.75 6.796875 -7.25 6.796875 -8.25 C 6.796875 -9.0625 6.242188 -9.46875 5.140625 -9.46875 L 4.5 -9.46875 Z M 4.5 -6.75 "/></g></g><g style="fill:#003900;fill-opacity:1;"><g transform="translate(384.76199, 327.236538)"><path style="stroke:none" d="M 12.4375 -5.96875 C 12.4375 -3.96875 11.941406 -2.445312 10.953125 -1.40625 C 9.972656 -0.363281 8.535156 0.15625 6.640625 0.15625 C 4.773438 0.15625 3.34375 -0.363281 2.34375 -1.40625 C 1.34375 -2.457031 0.84375 -3.984375 0.84375 -5.984375 C 0.84375 -7.972656 1.335938 -9.488281 2.328125 -10.53125 C 3.328125 -11.570312 4.769531 -12.09375 6.65625 -12.09375 C 8.550781 -12.09375 9.988281 -11.570312 10.96875 -10.53125 C 11.945312 -9.5 12.4375 -7.976562 12.4375 -5.96875 Z M 4.234375 -5.96875 C 4.234375 -3.664062 5.035156 -2.515625 6.640625 -2.515625 C 7.453125 -2.515625 8.054688 -2.796875 8.453125 -3.359375 C 8.847656 -3.921875 9.046875 -4.789062 9.046875 -5.96875 C 9.046875 -7.15625 8.84375 -8.03125 8.4375 -8.59375 C 8.039062 -9.164062 7.445312 -9.453125 6.65625 -9.453125 C 5.039062 -9.453125 4.234375 -8.289062 4.234375 -5.96875 Z M 4.234375 -5.96875 "/></g></g><g style="fill:#003900;fill-opacity:1;"><g transform="translate(398.046471, 327.236538)"><path style="stroke:none" d="M 9.078125 -3.625 C 9.078125 -2.882812 8.890625 -2.226562 8.515625 -1.65625 C 8.140625 -1.082031 7.597656 -0.632812 6.890625 -0.3125 C 6.179688 0 5.351562 0.15625 4.40625 0.15625 C 3.613281 0.15625 2.945312 0.101562 2.40625 0 C 1.875 -0.113281 1.316406 -0.3125 0.734375 -0.59375 L 0.734375 -3.453125 C 1.347656 -3.140625 1.984375 -2.894531 2.640625 -2.71875 C 3.304688 -2.539062 3.914062 -2.453125 4.46875 -2.453125 C 4.945312 -2.453125 5.296875 -2.535156 5.515625 -2.703125 C 5.742188 -2.867188 5.859375 -3.082031 5.859375 -3.34375 C 5.859375 -3.5 5.8125 -3.640625 5.71875 -3.765625 C 5.632812 -3.890625 5.492188 -4.015625 5.296875 -4.140625 C 5.097656 -4.265625 4.566406 -4.519531 3.703125 -4.90625 C 2.929688 -5.257812 2.347656 -5.597656 1.953125 -5.921875 C 1.566406 -6.253906 1.28125 -6.632812 1.09375 -7.0625 C 0.90625 -7.5 0.8125 -8.007812 0.8125 -8.59375 C 0.8125 -9.695312 1.207031 -10.550781 2 -11.15625 C 2.800781 -11.769531 3.898438 -12.078125 5.296875 -12.078125 C 6.535156 -12.078125 7.796875 -11.796875 9.078125 -11.234375 L 8.09375 -8.75 C 6.976562 -9.257812 6.015625 -9.515625 5.203125 -9.515625 C 4.785156 -9.515625 4.484375 -9.4375 4.296875 -9.28125 C 4.109375 -9.132812 4.015625 -8.957031 4.015625 -8.75 C 4.015625 -8.507812 4.132812 -8.296875 4.375 -8.109375 C 4.613281 -7.929688 5.269531 -7.597656 6.34375 -7.109375 C 7.363281 -6.640625 8.070312 -6.140625 8.46875 -5.609375 C 8.875 -5.085938 9.078125 -4.425781 9.078125 -3.625 Z M 9.078125 -3.625 "/></g></g><g clip-rule="nonzero" clip-path="url(#7eec5a30dc)"><path style=" stroke:none;fill-rule:nonzero;fill:#005600;fill-opacity:1;" d="M 1311.957031 262.308594 C 1308.007812 263.636719 1304.050781 264.933594 1300.089844 266.21875 C 1300.269531 264.050781 1300.398438 261.867188 1300.480469 259.671875 C 1307.054688 258.105469 1313.707031 256.515625 1320.960938 254.785156 C 1319.929688 261.34375 1315.203125 261.214844 1311.957031 262.308594 Z M 1009.214844 200.472656 C 1007.738281 200.59375 1006.347656 201.757812 1004.917969 202.441406 C 1005.027344 203.007812 1005.136719 203.570312 1005.246094 204.136719 C 1010.285156 204.011719 1015.324219 203.777344 1020.363281 203.789062 C 1023.96875 203.800781 1027.574219 203.882812 1031.179688 204.03125 C 1031.773438 202.507812 1032.390625 201 1033.035156 199.5 C 1032.273438 199.453125 1031.511719 199.398438 1030.75 199.34375 C 1023.632812 198.828125 1016.382812 199.890625 1009.214844 200.472656 Z M 1297.648438 147.996094 C 1289.167969 146.980469 1280.824219 147.535156 1272.808594 150.460938 C 1270.097656 151.449219 1267.933594 153.867188 1265.265625 155.082031 C 1263.78125 155.761719 1262.230469 156.378906 1260.652344 156.882812 C 1285.335938 182.066406 1300.585938 216.539062 1300.585938 254.515625 C 1300.585938 255.5 1300.566406 256.476562 1300.546875 257.457031 C 1305.511719 255.605469 1310.542969 253.734375 1315.917969 251.730469 C 1314.09375 249.90625 1313.230469 249.039062 1312.007812 247.816406 C 1320.238281 245.605469 1328.171875 243.570312 1336.035156 241.273438 C 1337.496094 240.847656 1338.660156 239.382812 1339.960938 238.398438 C 1338.421875 237.75 1336.84375 236.472656 1335.355469 236.570312 C 1330.953125 236.851562 1326.589844 237.679688 1321.785156 237.3125 C 1324.546875 235.847656 1327.304688 234.382812 1330.0625 232.917969 C 1329.976562 232.421875 1329.886719 231.929688 1329.800781 231.4375 C 1327.820312 231.195312 1325.84375 230.957031 1323.597656 230.683594 C 1325.042969 228.035156 1326.011719 224.628906 1328.222656 222.5625 C 1332.507812 218.5625 1332.007812 214.925781 1328.664062 210.90625 C 1332.71875 208.234375 1336.550781 205.707031 1340.382812 203.183594 C 1340.277344 202.714844 1340.171875 202.25 1340.066406 201.785156 C 1328.589844 197.269531 1315.539062 197.371094 1304.582031 190.191406 C 1310.292969 190.046875 1314.671875 187.574219 1317.734375 183.171875 C 1319.246094 180.996094 1321.078125 178.300781 1320.980469 175.914062 C 1320.808594 171.71875 1323.101562 169.855469 1325.964844 168.078125 C 1332.917969 163.765625 1339.953125 159.589844 1346.878906 155.230469 C 1348.4375 154.25 1349.671875 152.742188 1351.054688 151.476562 C 1350.757812 150.890625 1350.460938 150.304688 1350.164062 149.71875 C 1346.023438 150.96875 1341.792969 151.988281 1337.765625 153.53125 C 1333.746094 155.070312 1330.066406 157.628906 1325.972656 158.792969 C 1323.191406 159.582031 1319.90625 159.003906 1316.925781 158.539062 C 1314 158.082031 1311.171875 157 1307.65625 156.007812 C 1310.042969 154.769531 1312.167969 153.113281 1314.550781 152.519531 C 1324.332031 150.097656 1334.191406 148 1344.023438 145.78125 C 1345.707031 145.402344 1347.484375 145.242188 1349.035156 144.558594 C 1350.011719 144.125 1350.644531 142.914062 1351.433594 142.050781 C 1350.453125 141.40625 1349.441406 140.164062 1348.496094 140.214844 C 1344.019531 140.460938 1339.503906 140.765625 1335.109375 141.597656 C 1324.898438 143.535156 1314.761719 145.863281 1304.5625 147.855469 C 1302.328125 148.292969 1299.921875 148.265625 1297.648438 147.996094 Z M 1258.25 403.003906 C 1254.089844 403.503906 1250.726562 402.671875 1247.046875 400.335938 C 1241.949219 397.101562 1231.035156 399.429688 1226.75 403.6875 C 1224.246094 406.175781 1224.464844 407.804688 1228.632812 411.816406 C 1232.363281 414.359375 1237.65625 415.9375 1243.21875 415.019531 C 1248.730469 414.109375 1254.175781 412.503906 1259.457031 410.652344 C 1260.96875 410.121094 1262.558594 407.789062 1262.796875 406.097656 C 1263.238281 402.984375 1260.273438 402.757812 1258.25 403.003906 Z M 965.507812 323.714844 C 965.335938 324.277344 965.085938 324.8125 964.871094 325.359375 C 965.15625 325.765625 965.441406 326.171875 965.726562 326.582031 C 966.808594 326.285156 967.90625 326.019531 968.976562 325.683594 C 972.394531 324.613281 975.824219 323.574219 979.203125 322.390625 C 979.871094 322.15625 980.890625 321.019531 980.777344 320.800781 C 980.226562 319.722656 979.535156 318.46875 978.542969 317.917969 C 974.816406 315.851562 966.816406 319.519531 965.507812 323.714844 Z M 1022.199219 334.046875 C 1022.484375 335.058594 1022.671875 335.347656 1022.609375 335.5625 C 1019.570312 345.730469 1021.34375 348.632812 1031.796875 350.003906 C 1040.6875 351.167969 1049.125 349.972656 1057.3125 347.511719 C 1043.851562 332.476562 1033.597656 314.515625 1027.632812 294.707031 C 1025.125 294.976562 1022.609375 295.757812 1020.222656 296.640625 C 1009.613281 300.558594 1001.050781 307.621094 992.777344 315.050781 C 991.625 316.085938 990.796875 317.5625 990.066406 318.964844 C 988.101562 322.746094 989.128906 325.046875 993.210938 326.554688 C 995.652344 327.457031 999.582031 327.164062 999.25 330.734375 C 999.132812 331.996094 995.222656 333.269531 992.871094 333.894531 C 977.835938 337.886719 962.757812 341.714844 947.683594 345.558594 C 944.777344 346.300781 942.695312 347.253906 945.835938 350.507812 C 944.667969 351.375 943.671875 352.117188 941.953125 353.394531 C 943.273438 354.378906 944.351562 355.875 945.449219 355.886719 C 951.648438 355.945312 957.859375 355.808594 964.046875 355.402344 C 966.820312 355.21875 967.941406 353.503906 966.941406 350.503906 C 966.566406 349.386719 966.972656 346.929688 967.589844 346.714844 C 977.261719 343.351562 987.144531 341.035156 998.09375 341.433594 C 991.621094 349.851562 981.574219 353.113281 974.808594 360.105469 C 975.15625 360.699219 975.5 361.289062 975.84375 361.882812 C 977.792969 361.390625 980.027344 361.347656 981.644531 360.328125 C 989.042969 355.664062 996.234375 350.675781 1003.5625 345.898438 C 1009.667969 341.921875 1015.859375 338.074219 1022.199219 334.046875 Z M 995.027344 300.125 C 995.46875 297.011719 992.503906 296.785156 990.484375 297.027344 C 986.320312 297.527344 982.957031 296.699219 979.277344 294.363281 C 974.179688 291.128906 963.265625 293.457031 958.980469 297.714844 C 956.476562 300.203125 956.699219 301.832031 960.863281 305.84375 C 964.59375 308.382812 969.890625 309.964844 975.449219 309.046875 C 980.960938 308.136719 986.40625 306.527344 991.6875 304.679688 C 993.199219 304.148438 994.789062 301.816406 995.027344 300.125 Z M 968.421875 212.722656 C 978.835938 209.925781 989.25 206.949219 999.34375 203.171875 C 1012.554688 198.222656 1025.664062 193 1038.761719 187.746094 C 1040.769531 184.074219 1042.941406 180.503906 1045.261719 177.039062 C 1035.003906 179.054688 1024.710938 180.933594 1014.363281 182.382812 C 1005.894531 183.566406 999.175781 188.125 991.984375 191.972656 C 981.878906 197.382812 971.625 202.511719 961.472656 207.835938 C 960.332031 208.433594 959.453125 209.523438 958.457031 210.382812 C 958.703125 210.898438 958.949219 211.414062 959.195312 211.929688 C 962.285156 212.246094 965.621094 213.476562 968.421875 212.722656 Z M 969.554688 258.121094 C 968.433594 266.359375 967.34375 267.675781 960.65625 269.167969 C 957.277344 269.917969 953.808594 270.296875 950.460938 271.15625 C 948.425781 271.679688 946.546875 272.796875 944.601562 273.648438 C 944.6875 274.164062 944.773438 274.683594 944.859375 275.199219 C 946.28125 275.484375 947.691406 275.976562 949.117188 276.019531 C 957.371094 276.261719 965.632812 276.558594 973.886719 276.496094 C 978.046875 276.46875 982.222656 275.851562 986.351562 275.257812 C 989.265625 274.835938 991.351562 274.742188 989.46875 278.585938 C 988.417969 280.730469 989.140625 281.800781 991.414062 282.226562 C 995.574219 283.003906 999.710938 283.894531 1004.046875 285.582031 C 1001.628906 286.246094 999.171875 286.792969 996.816406 287.625 C 995.921875 287.941406 995.265625 288.917969 994.5 289.59375 C 995.433594 290.261719 996.355469 291.460938 997.304688 291.484375 C 999.589844 291.546875 1002.039062 291.484375 1004.152344 290.71875 C 1011.1875 288.167969 1018.355469 287.292969 1025.640625 287.34375 C 1023.089844 276.8125 1021.730469 265.820312 1021.730469 254.515625 C 1021.730469 243.085938 1023.121094 231.980469 1025.722656 221.34375 C 1024.398438 221.890625 1023.089844 222.40625 1021.761719 222.878906 C 1014.460938 225.480469 1006.835938 227.300781 999.785156 230.441406 C 990.578125 234.542969 980.941406 235.617188 971.15625 236.492188 C 969.003906 236.683594 966.800781 236.890625 964.765625 237.542969 C 963.78125 237.855469 963.128906 239.21875 962.328125 240.105469 C 963.367188 240.628906 964.398438 241.570312 965.449219 241.601562 C 969.21875 241.703125 972.996094 241.347656 976.765625 241.46875 C 978.621094 241.527344 980.457031 242.242188 982.300781 242.664062 C 982.425781 243.304688 982.550781 243.945312 982.675781 244.585938 C 977.445312 246.964844 972.394531 249.949219 966.9375 251.550781 C 960.765625 253.363281 954.15625 253.644531 947.882812 255.191406 C 945.570312 255.757812 943.679688 258.03125 941.015625 259.945312 C 951.476562 263.691406 960.402344 260.351562 969.554688 258.121094 Z M 1333.019531 354.34375 C 1327.316406 355.835938 1321.574219 357.398438 1316.117188 359.59375 C 1307.496094 363.070312 1299.035156 363.609375 1290.476562 359.382812 C 1298.097656 356.667969 1305.761719 353.933594 1313.425781 351.203125 C 1313.289062 350.496094 1313.152344 349.785156 1313.015625 349.078125 C 1310.121094 349.109375 1307.132812 348.675781 1304.355469 349.261719 C 1294.921875 351.246094 1285.613281 353.855469 1276.15625 355.730469 C 1268.484375 357.25 1260.652344 357.972656 1252.972656 359.421875 C 1230.253906 379.363281 1201.027344 392.042969 1168.9375 393.820312 C 1161.226562 397.789062 1153.859375 402.496094 1146.054688 406.269531 C 1144.898438 406.828125 1143.746094 407.457031 1142.523438 407.816406 C 1129.417969 411.699219 1116.292969 415.503906 1103.203125 419.421875 C 1101.996094 419.78125 1100.980469 420.789062 1100.074219 422.253906 C 1110.539062 424.414062 1120.691406 424.257812 1130.84375 420.074219 C 1129.183594 421.734375 1127.523438 423.394531 1125.863281 425.054688 C 1126.074219 425.433594 1126.289062 425.808594 1126.503906 426.1875 C 1128.753906 425.742188 1131 425.296875 1133.898438 424.722656 C 1127.929688 428.660156 1120.792969 429.746094 1116.742188 435.402344 C 1116.925781 435.871094 1117.109375 436.335938 1117.292969 436.804688 C 1121.070312 435.730469 1125.066406 435.125 1128.589844 433.5 C 1142.808594 426.949219 1156.882812 420.078125 1171.011719 413.332031 C 1172.027344 412.847656 1173.0625 412.40625 1174.089844 411.945312 C 1174.320312 412.371094 1174.546875 412.796875 1174.777344 413.222656 C 1155.339844 424.132812 1135.902344 435.042969 1116.464844 445.953125 C 1116.59375 446.359375 1116.722656 446.765625 1116.851562 447.171875 C 1118.359375 446.902344 1119.921875 446.804688 1121.363281 446.335938 C 1140.105469 440.242188 1157.363281 431.074219 1173.804688 420.371094 C 1186.683594 411.988281 1198.910156 402.542969 1212.136719 394.785156 C 1221.605469 389.230469 1232.15625 385.449219 1242.402344 381.324219 C 1251.265625 377.757812 1260.292969 374.558594 1269.414062 371.722656 C 1273.734375 370.378906 1278.507812 369.402344 1282.953125 369.765625 C 1297.390625 370.933594 1311.25 369.355469 1324.515625 363.351562 C 1329.09375 361.28125 1333.726562 359.332031 1338.296875 357.246094 C 1339.308594 356.78125 1340.164062 355.972656 1341.09375 355.324219 C 1340.953125 354.828125 1340.816406 354.328125 1340.675781 353.828125 C 1338.117188 353.972656 1335.449219 353.710938 1333.019531 354.34375 Z M 1073.90625 363.257812 C 1070.25 360.316406 1066.746094 357.195312 1063.40625 353.90625 C 1061.320312 354.230469 1059.230469 354.546875 1057.136719 354.839844 C 1048.667969 356.023438 1041.949219 360.582031 1034.757812 364.429688 C 1024.652344 369.839844 1014.394531 374.96875 1004.242188 380.292969 C 1003.105469 380.890625 1002.226562 381.980469 1001.226562 382.84375 C 1001.476562 383.359375 1001.722656 383.871094 1001.96875 384.386719 C 1005.058594 384.707031 1008.390625 385.933594 1011.191406 385.183594 C 1021.605469 382.386719 1032.023438 379.410156 1042.113281 375.628906 C 1052.761719 371.640625 1063.34375 367.472656 1073.90625 363.257812 Z M 1374.566406 299.949219 C 1368.226562 302.953125 1361.804688 305.902344 1355.84375 309.566406 C 1348.621094 314.003906 1341.578125 318.179688 1332.601562 317.453125 C 1330.445312 317.277344 1328.203125 318.734375 1325.945312 319.152344 C 1323.859375 319.535156 1321.703125 319.523438 1319.496094 319.054688 C 1332.171875 316.398438 1344.363281 313.167969 1353.4375 303.28125 C 1353.316406 302.796875 1353.199219 302.316406 1353.078125 301.832031 C 1351.09375 302.285156 1348.851562 302.289062 1347.167969 303.257812 C 1335.671875 309.871094 1322.902344 312.007812 1309.835938 314.371094 C 1309.273438 309.558594 1306 308.0625 1301.855469 308.710938 C 1297.410156 309.402344 1292.988281 310.265625 1288.570312 311.144531 C 1284.460938 320.367188 1279.378906 329.066406 1273.457031 337.105469 C 1278.195312 337.082031 1282.945312 337.386719 1287.679688 337.234375 C 1291.113281 337.121094 1294.546875 336.488281 1297.949219 335.890625 C 1304.898438 334.660156 1311.847656 333.410156 1318.746094 331.917969 C 1320.996094 331.433594 1324.210938 331.78125 1324.625 326.964844 C 1322.410156 327.441406 1320.4375 327.867188 1318.464844 328.289062 C 1318.367188 327.695312 1318.269531 327.101562 1318.175781 326.507812 C 1322.167969 325.597656 1326.207031 323.753906 1330.140625 323.960938 C 1338.816406 324.421875 1346.34375 321.4375 1353.550781 317.496094 C 1362.589844 312.550781 1371.308594 307.019531 1380.394531 301.605469 C 1379.335938 298.523438 1376.730469 298.921875 1374.566406 299.949219 Z M 1130.796875 397.148438 C 1133.15625 395.46875 1135.507812 393.777344 1137.855469 392.082031 C 1122.71875 389.523438 1108.402344 384.519531 1095.332031 377.484375 C 1087.773438 380.78125 1080.597656 385.019531 1073.699219 389.933594 C 1068.359375 393.734375 1062.164062 396.3125 1056.46875 399.632812 C 1049.285156 403.820312 1042.191406 408.167969 1035.109375 412.53125 C 1034.046875 413.1875 1033.269531 414.316406 1032.363281 415.222656 C 1032.539062 415.675781 1032.71875 416.125 1032.894531 416.578125 C 1035.585938 416.09375 1038.410156 415.980469 1040.945312 415.0625 C 1049.570312 411.949219 1057.984375 408.222656 1066.699219 405.425781 C 1070.109375 404.328125 1074.113281 404.898438 1077.835938 405 C 1094.113281 405.4375 1109.125 400.566406 1123.816406 394.253906 C 1125.5 393.53125 1127.207031 392.871094 1128.90625 392.179688 C 1129.082031 392.539062 1129.257812 392.898438 1129.433594 393.257812 C 1118.414062 398.648438 1107.394531 404.039062 1096.375 409.429688 C 1096.546875 409.996094 1096.71875 410.558594 1096.890625 411.125 C 1098.742188 410.9375 1100.664062 411 1102.4375 410.527344 C 1112.683594 407.773438 1122.15625 403.308594 1130.796875 397.148438 Z M 1268.695312 385.980469 C 1264.972656 383.914062 1256.96875 387.582031 1255.664062 391.78125 C 1255.488281 392.339844 1255.238281 392.875 1255.023438 393.421875 C 1255.308594 393.828125 1255.59375 394.238281 1255.878906 394.644531 C 1256.964844 394.347656 1258.058594 394.082031 1259.128906 393.746094 C 1262.546875 392.675781 1265.976562 391.640625 1269.355469 390.453125 C 1270.023438 390.21875 1271.042969 389.082031 1270.929688 388.863281 C 1270.378906 387.789062 1269.691406 386.53125 1268.695312 385.980469 Z M 1010.972656 166.285156 C 1013.304688 166.359375 1015.660156 165.074219 1018.042969 164.5625 C 1023.800781 163.324219 1029.542969 161.796875 1035.371094 161.238281 C 1037.132812 161.070312 1039.160156 163.695312 1041.066406 165.039062 C 1040.851562 165.410156 1040.632812 165.78125 1040.417969 166.152344 C 1036.3125 166.761719 1032.203125 167.371094 1027.800781 168.023438 C 1028.925781 171.691406 1031.707031 172.492188 1034.535156 172.554688 C 1038.429688 172.644531 1042.410156 172.625 1046.222656 171.929688 C 1047.214844 171.75 1048.207031 171.59375 1049.203125 171.453125 C 1074.636719 137.21875 1115.351562 114.996094 1161.160156 114.996094 C 1174.039062 114.996094 1186.515625 116.761719 1198.367188 120.050781 C 1204.457031 117.707031 1210.433594 114.988281 1216.417969 112.371094 C 1222.269531 109.808594 1227.941406 107.535156 1234.640625 107.660156 C 1240.523438 107.773438 1245.714844 104.839844 1249.863281 100.429688 C 1252.753906 97.359375 1252.519531 95.367188 1248.441406 94.265625 C 1242.753906 92.734375 1236.945312 91.234375 1231.105469 90.75 C 1220.019531 89.832031 1208.839844 88.9375 1197.765625 89.433594 C 1191.597656 89.710938 1185.476562 92.582031 1179.476562 94.683594 C 1169.839844 98.058594 1160.3125 101.738281 1150.757812 105.339844 C 1142.96875 108.277344 1135.277344 111.484375 1127.40625 114.175781 C 1124.542969 115.152344 1121.261719 114.828125 1118.222656 115.375 C 1113.414062 116.242188 1108.640625 117.316406 1103.863281 118.34375 C 1098.984375 119.394531 1094.085938 120.394531 1089.246094 121.617188 C 1087.328125 122.101562 1085.546875 123.117188 1083.703125 123.894531 C 1083.785156 124.320312 1083.867188 124.75 1083.953125 125.179688 C 1085.949219 125.773438 1087.945312 126.367188 1089.648438 126.875 C 1080.242188 129.648438 1070.472656 132.28125 1060.871094 135.429688 C 1051.328125 138.558594 1041.957031 142.203125 1031.320312 146.054688 C 1033.691406 147.339844 1034.757812 147.914062 1036.921875 149.085938 C 1034.046875 149.175781 1032.160156 149.039062 1030.347656 149.335938 C 1026.8125 149.910156 1023.234375 150.453125 1019.835938 151.519531 C 1016.464844 152.578125 1016.484375 153.933594 1019.910156 156.496094 C 1012.679688 159.308594 1004.292969 158.078125 997.699219 163.820312 C 1002.113281 166.832031 1006.695312 166.152344 1010.972656 166.285156 Z M 1106.429688 103.71875 C 1117.847656 102.464844 1129.632812 105.058594 1140.707031 100.699219 C 1142.773438 99.882812 1144.328125 97.804688 1146.164062 96.363281 C 1147.222656 95.53125 1148.273438 94.585938 1149.488281 94.082031 C 1156.246094 91.28125 1163.082031 88.667969 1169.820312 85.828125 C 1171.03125 85.316406 1171.921875 84.054688 1172.960938 83.140625 C 1172.605469 82.457031 1172.25 81.773438 1171.894531 81.085938 C 1158.273438 84.5625 1144.652344 88.039062 1130.007812 91.773438 C 1131.984375 93.460938 1133.578125 94.816406 1135.867188 96.769531 C 1133.757812 97.125 1131.957031 97.628906 1130.140625 97.699219 C 1122.332031 98.003906 1114.507812 98.078125 1106.707031 98.515625 C 1105.390625 98.589844 1104.148438 100.042969 1102.875 100.855469 C 1104.066406 101.859375 1105.363281 103.835938 1106.429688 103.71875 Z M 1287.996094 138.6875 C 1293.480469 136.246094 1298.839844 133.519531 1304.199219 130.8125 C 1305.804688 130 1307.242188 128.859375 1308.757812 127.867188 C 1308.59375 127.488281 1308.433594 127.109375 1308.269531 126.726562 C 1307.207031 126.578125 1306.03125 126.058594 1305.09375 126.335938 C 1296.199219 128.984375 1287.300781 131.648438 1278.519531 134.644531 C 1277.289062 135.066406 1276.671875 137.292969 1275.773438 138.683594 C 1277.246094 139.441406 1278.773438 140.90625 1280.183594 140.796875 C 1282.832031 140.59375 1285.546875 139.78125 1287.996094 138.6875 Z M 1256.8125 355.929688 C 1262.824219 353.476562 1268.878906 351.125 1274.863281 348.605469 C 1276.070312 348.09375 1276.960938 346.832031 1278 345.917969 C 1277.644531 345.234375 1277.292969 344.550781 1276.9375 343.863281 C 1273.195312 344.820312 1269.453125 345.773438 1265.691406 346.734375 C 1262.871094 349.929688 1259.910156 353 1256.8125 355.929688 Z M 1223.054688 129.523438 C 1231.253906 133.609375 1239 138.472656 1246.1875 144.027344 C 1248.925781 143.242188 1251.683594 142.511719 1254.304688 141.441406 C 1256.816406 140.414062 1257.074219 139.121094 1255.945312 135.96875 C 1260.707031 134.738281 1265.449219 133.625 1270.121094 132.273438 C 1277.5625 130.117188 1285.015625 127.984375 1292.351562 125.515625 C 1304.054688 121.570312 1315.683594 117.402344 1327.292969 113.179688 C 1328.15625 112.863281 1328.59375 111.378906 1329.230469 110.4375 C 1328.078125 110.074219 1326.828125 109.214844 1325.792969 109.421875 C 1316.359375 111.300781 1307.179688 113.40625 1298.394531 118.0625 C 1290.710938 122.132812 1281.667969 123.636719 1273.226562 126.277344 C 1273.066406 125.8125 1272.90625 125.351562 1272.75 124.886719 C 1274.496094 124.027344 1276.289062 123.246094 1277.96875 122.269531 C 1278.578125 121.917969 1278.917969 121.105469 1279.382812 120.503906 C 1278.613281 120.082031 1277.882812 119.488281 1277.0625 119.292969 C 1276.417969 119.140625 1275.65625 119.578125 1274.945312 119.585938 C 1267.628906 119.699219 1260.304688 119.648438 1252.992188 119.917969 C 1249.566406 120.042969 1245.925781 120.132812 1242.792969 121.320312 C 1236.132812 123.847656 1229.628906 126.773438 1223.054688 129.523438 Z M 1292.953125 300.046875 C 1292.246094 302.085938 1291.5 304.105469 1290.703125 306.105469 C 1294.714844 303.867188 1298.671875 301.664062 1302.628906 299.460938 C 1302.414062 298.851562 1302.203125 298.242188 1301.988281 297.632812 C 1300.167969 297.871094 1298.164062 297.699219 1296.554688 298.414062 C 1295.351562 298.949219 1294.152344 299.496094 1292.953125 300.046875 Z M 1323.421875 270.871094 C 1323.179688 270.523438 1322.9375 270.171875 1322.699219 269.824219 C 1315.265625 272.714844 1307.886719 275.761719 1300.386719 278.460938 C 1299.730469 278.699219 1299.066406 278.925781 1298.40625 279.15625 C 1297.964844 281.617188 1297.457031 284.050781 1296.890625 286.460938 C 1305.210938 282.800781 1313.085938 278.15625 1320.878906 273.367188 C 1321.867188 272.757812 1322.582031 271.714844 1323.421875 270.871094 Z M 1323.421875 270.871094 "/></g><path style=" stroke:none;fill-rule:nonzero;fill:#f4f0e1;fill-opacity:1;" d="M 1087.691406 166.542969 C 1081.652344 168.609375 1075.46875 169.40625 1069.25 169.875 C 1070.144531 167.433594 1070.921875 165.511719 1071.332031 164.523438 C 1073.332031 162.796875 1080.375 156.917969 1091.542969 149.773438 C 1102.644531 142.675781 1112.492188 140.257812 1115.144531 139.699219 C 1117.582031 140.328125 1125.265625 142.359375 1131.78125 144.628906 C 1132.082031 144.734375 1132.382812 144.84375 1132.691406 144.960938 C 1128.933594 145.839844 1125.167969 146.695312 1121.402344 147.53125 C 1115.675781 148.800781 1109.722656 149.066406 1103.871094 149.785156 C 1106.730469 152.347656 1109.867188 153.15625 1113.980469 152.085938 C 1117.988281 151.042969 1122.28125 151.109375 1126.445312 150.6875 C 1126.671875 151.394531 1126.898438 152.097656 1127.121094 152.800781 C 1125.972656 153.683594 1124.949219 154.976562 1123.648438 155.386719 C 1111.679688 159.164062 1099.558594 162.476562 1087.691406 166.542969 Z M 1144.363281 142.117188 C 1149.148438 140.902344 1153.914062 139.617188 1158.648438 138.238281 C 1164.050781 136.667969 1169.4375 134.050781 1173.953125 130.71875 C 1178.179688 127.601562 1182.605469 125.546875 1187.375 123.855469 C 1178.894531 122.15625 1170.128906 121.253906 1161.15625 121.253906 C 1146.566406 121.253906 1132.519531 123.621094 1119.371094 127.980469 C 1119.289062 129.757812 1119.207031 131.539062 1119.144531 132.96875 C 1122.679688 133.914062 1128.773438 135.617188 1134.253906 137.523438 C 1137.558594 138.671875 1141.167969 140.410156 1144.363281 142.117188 Z M 1082.246094 215.066406 C 1086.519531 210.875 1098.285156 199.789062 1108.441406 194.347656 C 1112.109375 192.382812 1114.894531 190.796875 1117.355469 189.402344 C 1123.269531 186.039062 1127.304688 183.746094 1136.503906 180.210938 C 1137.175781 177.757812 1138.566406 173.027344 1141.082031 165.992188 C 1143.480469 159.269531 1145.390625 154.769531 1146.628906 152.070312 C 1146.597656 152.050781 1146.5625 152.03125 1146.527344 152.011719 C 1145.941406 152.570312 1145.367188 153.160156 1144.824219 153.804688 C 1143.859375 154.9375 1141.707031 155.09375 1140.078125 155.625 C 1134.890625 157.316406 1129.65625 158.867188 1124.515625 160.679688 C 1120.824219 161.980469 1121.757812 163.589844 1126.039062 165.695312 C 1105.886719 170.148438 1093.171875 181.96875 1085.820312 199.960938 C 1086.339844 200.292969 1087.25 200.871094 1088.160156 201.453125 C 1084.878906 205.542969 1081.644531 209.578125 1078.332031 213.710938 C 1079.894531 214.277344 1081.230469 214.734375 1082.246094 215.066406 Z M 1107.382812 344.128906 C 1104.921875 344.800781 1102.507812 345.683594 1100.082031 346.507812 C 1101.824219 348.636719 1103.203125 350.152344 1104.011719 351 C 1105.738281 350.171875 1107.4375 349.277344 1109.082031 348.3125 C 1110.300781 347.597656 1110.898438 345.824219 1111.78125 344.53125 C 1110.308594 344.371094 1108.714844 343.765625 1107.382812 344.128906 Z M 1153.152344 361.796875 C 1154.441406 360.160156 1155.464844 358.859375 1156.496094 357.542969 C 1154.339844 356.164062 1149.667969 358.617188 1146.082031 361.976562 C 1157.84375 363.421875 1166.972656 364.109375 1170.710938 364.355469 C 1171.484375 363.402344 1172.601562 361.984375 1173.882812 360.226562 C 1167.675781 361.078125 1161.351562 361.378906 1155.167969 362.347656 C 1154.695312 362.417969 1154.164062 362.085938 1153.152344 361.796875 Z M 1173.476562 345.246094 C 1177.476562 343.730469 1181.179688 341.371094 1184.878906 339.164062 C 1185.246094 338.945312 1185.542969 338.605469 1185.804688 338.210938 C 1186.136719 337.371094 1186.441406 336.5625 1186.726562 335.789062 C 1186.515625 335.574219 1186.304688 335.363281 1186.09375 335.152344 C 1165.359375 341.46875 1144.628906 347.785156 1123.894531 354.101562 C 1123.921875 354.636719 1123.949219 355.175781 1123.972656 355.710938 C 1125.171875 356.230469 1126.449219 357.332031 1127.550781 357.175781 C 1134.199219 356.234375 1140.945312 357.378906 1147.5625 354.398438 C 1155.882812 350.644531 1164.90625 348.492188 1173.476562 345.246094 Z M 1217.277344 306.382812 C 1217.125 306.894531 1216.976562 307.410156 1216.824219 307.921875 C 1218.023438 308.480469 1219.25 309.5625 1220.421875 309.507812 C 1227.339844 309.175781 1234.246094 308.570312 1241.160156 308.078125 C 1242.722656 307.96875 1244.285156 307.84375 1245.84375 307.722656 C 1247.871094 304.289062 1249.957031 300.316406 1251.785156 295.964844 C 1243.960938 298.351562 1236.132812 300.734375 1228.308594 303.117188 C 1228.328125 303.507812 1228.34375 303.898438 1228.363281 304.289062 C 1227.183594 304.421875 1226.003906 304.558594 1224.824219 304.703125 C 1222.277344 305.011719 1219.789062 305.808594 1217.277344 306.382812 Z M 1193.347656 323.878906 C 1193.820312 324.21875 1194.214844 324.496094 1194.511719 324.699219 C 1196.074219 324.902344 1199.902344 325.324219 1204.886719 325.324219 C 1208.589844 325.324219 1212.214844 325.09375 1215.660156 324.640625 C 1225.507812 323.34375 1234.328125 320.964844 1237.277344 320.125 C 1238.152344 319.054688 1239.839844 316.914062 1241.875 313.953125 C 1235.859375 315.695312 1229.882812 317.621094 1223.769531 318.921875 C 1214.179688 320.960938 1204.289062 321.59375 1194.683594 323.585938 C 1194.238281 323.679688 1193.792969 323.78125 1193.347656 323.878906 Z M 1263.765625 169.65625 C 1255.277344 173.203125 1247.144531 175.945312 1243.121094 177.238281 C 1242.996094 181.195312 1242.644531 189.011719 1241.621094 198.085938 C 1240.597656 207.191406 1239.128906 214.054688 1238.316406 217.445312 C 1241.921875 220.628906 1250.101562 228.289062 1256.191406 237.371094 C 1260.652344 244.03125 1265.761719 253.355469 1268.195312 257.914062 C 1272.835938 256.671875 1282.453125 254.34375 1294.308594 252.871094 C 1293.925781 221.296875 1282.523438 192.328125 1263.765625 169.65625 Z M 1155.671875 336.765625 C 1154.210938 337.453125 1152.945312 338.566406 1150.71875 340.074219 C 1156.820312 342.371094 1161.613281 340.792969 1165.714844 338.5625 C 1173.175781 334.507812 1180.761719 331.875 1188.519531 330.59375 C 1188.605469 330.332031 1188.683594 330.082031 1188.753906 329.847656 C 1187.527344 328.957031 1185.894531 327.71875 1184.066406 326.1875 C 1179.292969 327.507812 1174.558594 328.988281 1169.855469 330.523438 C 1164.96875 332.113281 1160.351562 334.566406 1155.671875 336.765625 Z M 1218.082031 331.902344 C 1226.671875 333.878906 1235.335938 335.328125 1244.066406 336.214844 C 1241.421875 332.734375 1239.238281 329.703125 1237.875 327.773438 C 1234.078125 328.8125 1226.609375 330.683594 1218.082031 331.902344 Z M 1143.988281 294.707031 C 1136.945312 294.707031 1130.632812 294.28125 1125.226562 293.441406 C 1111.707031 291.34375 1102.492188 288.292969 1098.1875 286.65625 C 1096.207031 289.285156 1092.761719 294.226562 1089.558594 300.585938 C 1086.503906 306.652344 1083.96875 312.871094 1083.003906 315.304688 C 1083.679688 317.882812 1085.894531 325.269531 1090.976562 333.617188 C 1092.4375 336.015625 1093.882812 338.195312 1095.261719 340.148438 C 1098.6875 340.371094 1102.125 340.773438 1105.519531 340.472656 C 1115.976562 339.550781 1125.28125 335.507812 1134.613281 331.222656 C 1138.667969 329.359375 1142.960938 328 1147.203125 326.578125 C 1149.636719 325.761719 1151.054688 324.851562 1149.789062 321.902344 C 1149.429688 321.066406 1150.148438 318.886719 1150.890625 318.578125 C 1157.328125 315.929688 1163.359375 312.664062 1169.027344 308.84375 C 1165.605469 303.027344 1163.324219 297.242188 1162.128906 293.855469 C 1158.40625 294.203125 1151.679688 294.707031 1143.988281 294.707031 Z M 1249.945312 241.5625 C 1254.742188 248.71875 1260.523438 259.484375 1262.355469 262.953125 C 1260.957031 270.296875 1259.542969 274.78125 1254.691406 288.242188 C 1247.132812 292.160156 1239.410156 296.054688 1231.300781 298.34375 C 1216.347656 302.570312 1202.316406 308.574219 1188.804688 316.085938 C 1187.8125 316.640625 1186.789062 317.144531 1185.75 317.628906 C 1184.445312 316.410156 1183.105469 315.070312 1181.804688 313.632812 C 1182.5 313.140625 1183.222656 312.675781 1183.914062 312.183594 C 1181.515625 312.515625 1180.175781 311.558594 1180.757812 308.972656 C 1181.6875 304.859375 1182.847656 300.796875 1183.75 297.332031 C 1184.085938 297.140625 1183.230469 297.4375 1182.625 298.003906 C 1180.207031 300.257812 1177.714844 302.386719 1175.148438 304.398438 C 1172.144531 299.152344 1170.132812 293.949219 1169.125 291.0625 C 1173.019531 287.597656 1181.414062 278.929688 1188.519531 263.46875 C 1195.304688 248.707031 1198.328125 236.46875 1199.4375 231.144531 C 1203.109375 230.679688 1209.929688 229.660156 1217.523438 227.714844 C 1224.84375 225.835938 1230.433594 224.027344 1233.289062 223.050781 C 1236.578125 225.957031 1244.355469 233.222656 1249.945312 241.5625 Z M 1201.679688 302.199219 C 1193.566406 303.027344 1188.675781 307.050781 1184.304688 311.9375 C 1189.742188 308.890625 1195.195312 305.835938 1201.679688 302.199219 Z M 1178.140625 320.710938 C 1178.1875 320.777344 1178.238281 320.839844 1178.285156 320.90625 C 1178.296875 320.902344 1178.304688 320.898438 1178.3125 320.894531 C 1178.257812 320.832031 1178.199219 320.769531 1178.140625 320.710938 Z M 1240.910156 359.546875 C 1238.800781 359.902344 1237 360.40625 1235.183594 360.476562 C 1227.371094 360.78125 1219.550781 360.855469 1211.75 361.292969 C 1210.429688 361.367188 1209.191406 362.820312 1207.914062 363.636719 C 1209.105469 364.640625 1210.402344 366.617188 1211.472656 366.496094 C 1217.972656 365.785156 1224.59375 366.3125 1231.132812 366.101562 C 1230.796875 366.230469 1230.464844 366.355469 1230.128906 366.484375 C 1223.324219 369.085938 1216.71875 372.207031 1210 375.046875 C 1206.496094 376.527344 1202.628906 377.324219 1201.121094 381.644531 C 1221.359375 375.261719 1239.527344 364.160156 1254.332031 349.632812 C 1248.050781 351.234375 1241.65625 352.867188 1235.050781 354.550781 C 1237.027344 356.238281 1238.621094 357.59375 1240.910156 359.546875 Z M 1071.140625 352.636719 C 1074.175781 355.425781 1077.339844 358.070312 1080.617188 360.570312 C 1085.972656 358.421875 1091.324219 356.273438 1096.679688 354.128906 C 1095.460938 352.75 1093.925781 350.925781 1092.191406 348.671875 C 1085.191406 350.070312 1078.175781 351.421875 1071.140625 352.636719 Z M 1222.597656 350.914062 C 1220.230469 350.820312 1217.824219 350.414062 1215.503906 350.695312 C 1208.792969 351.503906 1202.117188 352.570312 1195.433594 353.582031 C 1194.445312 353.730469 1193.390625 353.949219 1192.542969 354.441406 C 1189.925781 355.957031 1187.230469 357.089844 1184.476562 357.960938 C 1181.402344 362.941406 1178.347656 366.898438 1176.621094 369.015625 C 1176.777344 369.457031 1176.96875 369.972656 1177.179688 370.542969 C 1181.78125 367.179688 1186.597656 364.144531 1191.972656 361.925781 C 1194.8125 360.75 1197.964844 360.066406 1201.03125 359.757812 C 1208.894531 358.964844 1216.042969 356.4375 1222.71875 352.503906 C 1222.679688 351.972656 1222.636719 351.445312 1222.597656 350.914062 Z M 1048.472656 288.558594 C 1046.3125 289.824219 1044.082031 291.132812 1041.894531 292.414062 C 1042.878906 294.425781 1043.695312 295.84375 1044.132812 296.574219 C 1045.984375 297.8125 1052.210938 301.765625 1060.75 305.015625 C 1067.394531 307.542969 1073.222656 309.539062 1076.75 310.703125 C 1078.027344 307.566406 1080.226562 302.390625 1082.84375 297.195312 C 1086.511719 289.914062 1090.425781 284.410156 1092.546875 281.640625 C 1090.074219 276.554688 1084.152344 263.449219 1081.644531 249.792969 C 1079.230469 236.679688 1079.175781 226.777344 1079.355469 222.039062 C 1077.824219 221.527344 1075.757812 220.804688 1073.378906 219.890625 C 1073.089844 220.25 1072.800781 220.609375 1072.511719 220.972656 C 1072.089844 220.226562 1071.738281 219.605469 1071.480469 219.148438 C 1071.183594 219.027344 1070.878906 218.902344 1070.574219 218.777344 C 1069.105469 220.25 1067.679688 221.675781 1066.371094 222.988281 C 1065.554688 221.832031 1065.0625 221.132812 1064.574219 220.4375 C 1064.015625 220.933594 1063.234375 221.320312 1062.945312 221.941406 C 1061.25 225.574219 1057.816406 225 1054.453125 225.59375 C 1059.351562 223.355469 1058.433594 218.769531 1059.617188 215.09375 C 1059.78125 214.585938 1059.976562 214.101562 1060.261719 213.71875 C 1059.703125 213.402344 1059.195312 213.109375 1058.75 212.847656 C 1055.648438 214.914062 1049.328125 219.449219 1044.59375 224.972656 C 1039.074219 231.40625 1035.050781 238.871094 1033.914062 241.078125 C 1033.765625 244.535156 1033.269531 258.789062 1034.6875 268.738281 C 1035.8125 276.628906 1037.964844 283.253906 1039.96875 288.117188 C 1042.828125 288.269531 1045.671875 288.402344 1048.472656 288.558594 Z M 1080.851562 341.570312 C 1081.175781 341.914062 1082.089844 342.101562 1082.503906 341.898438 C 1083.804688 341.265625 1085.121094 340.832031 1086.445312 340.539062 C 1085.820312 339.574219 1085.191406 338.574219 1084.558594 337.535156 C 1079.613281 329.410156 1077.128906 322.160156 1076.050781 318.390625 C 1070.878906 316.761719 1061.027344 313.171875 1058.078125 312.046875 C 1051.109375 309.394531 1045.621094 306.355469 1042.390625 304.382812 C 1041.558594 305.746094 1040.601562 307.511719 1039.851562 309.492188 C 1045.863281 322.726562 1053.980469 334.804688 1063.769531 345.304688 C 1066.382812 344.3125 1068.976562 343.21875 1071.554688 342.058594 C 1074.601562 340.6875 1077.523438 338.046875 1080.851562 341.570312 Z M 1154.246094 153.558594 C 1153.296875 155.496094 1151.132812 160.199219 1148.160156 168.523438 C 1146.101562 174.289062 1144.824219 178.453125 1144.101562 180.980469 C 1148.957031 183.398438 1159.386719 189.070312 1172.371094 198.960938 C 1183.5 207.445312 1194.191406 219.496094 1197.839844 223.753906 C 1201.058594 223.367188 1207.984375 222.390625 1215.652344 220.421875 C 1222.773438 218.597656 1228.253906 216.820312 1230.949219 215.898438 C 1231.691406 212.824219 1233.148438 206.113281 1234.148438 197.242188 C 1235.253906 187.421875 1235.558594 178.933594 1235.632812 175.765625 C 1233.882812 173.660156 1229.347656 168.464844 1223.097656 163.140625 C 1220.589844 164.566406 1218.160156 166.226562 1215.792969 168.074219 C 1213.167969 170.128906 1210.722656 172.410156 1208.066406 174.417969 C 1207.378906 174.9375 1205.871094 175.308594 1205.3125 174.917969 C 1198.933594 170.449219 1193.039062 173.050781 1187.671875 176.542969 C 1182.410156 179.972656 1177.4375 182.453125 1170.910156 180.34375 C 1168.296875 179.5 1165.230469 180.058594 1162.191406 179.5 C 1166.972656 178.34375 1171.699219 176.667969 1176.550781 176.140625 C 1187.199219 174.984375 1196.21875 169.949219 1205.265625 164.9375 C 1209.175781 162.769531 1213.0625 160.554688 1216.941406 158.328125 C 1215.882812 157.574219 1214.792969 156.832031 1213.675781 156.121094 C 1202.242188 148.832031 1192.082031 144.605469 1189.253906 143.484375 C 1186.859375 143.777344 1179.820312 144.742188 1172.28125 146.878906 C 1164.871094 148.976562 1157.113281 152.292969 1154.246094 153.558594 Z M 1062.542969 206.347656 C 1063.949219 207.175781 1066.050781 208.363281 1068.429688 209.550781 C 1068.4375 209.140625 1068.429688 208.703125 1068.398438 208.226562 C 1072.867188 208.683594 1072.320312 206.207031 1071.566406 204.554688 C 1077.15625 196.222656 1082.347656 188.484375 1087.832031 180.308594 C 1084.03125 179.882812 1073.96875 182.242188 1064.785156 185.140625 C 1064.335938 187.484375 1063.964844 190.035156 1063.667969 192.566406 C 1066.574219 191.800781 1069.429688 190.851562 1072.261719 190.058594 C 1069.398438 192.546875 1066.40625 194.433594 1063.308594 195.859375 C 1062.890625 200.136719 1062.65625 204.039062 1062.542969 206.347656 Z M 1055.015625 206.292969 C 1055.097656 204.527344 1055.253906 201.734375 1055.519531 198.484375 C 1050.4375 199.644531 1045.144531 199.925781 1039.738281 199.808594 C 1039.054688 201.320312 1038.398438 202.847656 1037.773438 204.390625 C 1042.183594 204.691406 1046.582031 205.121094 1050.929688 205.480469 C 1046.808594 210.207031 1040.910156 211.042969 1034.78125 212.484375 C 1034.289062 213.957031 1033.824219 215.445312 1033.382812 216.945312 C 1033.699219 217.160156 1034.03125 217.382812 1034.40625 217.640625 C 1033.933594 217.839844 1033.472656 218.035156 1033.011719 218.230469 C 1031.632812 223.097656 1030.523438 228.070312 1029.703125 233.144531 C 1031.808594 229.546875 1034.972656 224.632812 1038.886719 220.070312 C 1044.453125 213.578125 1051.730469 208.449219 1055.015625 206.292969 Z M 1068.488281 172 C 1068.226562 172.742188 1067.964844 173.519531 1067.699219 174.320312 C 1068.148438 173.585938 1068.539062 172.761719 1069.007812 172.070312 C 1068.835938 172.050781 1068.664062 172.027344 1068.488281 172 Z M 1063.140625 164.75 L 1062.878906 164.675781 C 1061.125 166.597656 1059.429688 168.574219 1057.789062 170.59375 C 1058.886719 170.519531 1059.984375 170.449219 1061.082031 170.386719 C 1061.820312 168.238281 1062.535156 166.304688 1063.140625 164.75 Z M 1055.90625 194.285156 C 1056.121094 192.203125 1056.382812 190.050781 1056.695312 187.933594 C 1052.035156 189.703125 1048.445312 191.414062 1047.355469 192.621094 C 1050.125 194.921875 1053.039062 194.828125 1055.90625 194.285156 Z M 1058.246094 179.894531 C 1058.824219 177.558594 1059.5 175.242188 1060.195312 173.0625 C 1058.25 173.726562 1056.308594 174.417969 1054.351562 175.011719 C 1052.199219 177.902344 1050.15625 180.878906 1048.238281 183.941406 C 1050.902344 182.871094 1053.566406 181.804688 1056.234375 180.738281 C 1056.90625 180.464844 1057.578125 180.179688 1058.246094 179.894531 Z M 1058.246094 179.894531 "/><path style=" stroke:none;fill-rule:nonzero;fill:#000000;fill-opacity:1;" d="M 1048.238281 183.941406 C 1045.082031 185.207031 1041.921875 186.476562 1038.761719 187.746094 C 1040.769531 184.074219 1042.941406 180.5 1045.261719 177.039062 C 1047.019531 176.691406 1048.777344 176.34375 1050.535156 175.992188 C 1051.820312 175.734375 1053.089844 175.394531 1054.351562 175.011719 C 1052.199219 177.902344 1050.15625 180.878906 1048.238281 183.941406 Z M 1037.773438 204.390625 C 1038.398438 202.847656 1039.054688 201.320312 1039.738281 199.808594 C 1037.519531 199.761719 1035.285156 199.648438 1033.035156 199.5 C 1032.390625 200.996094 1031.769531 202.507812 1031.179688 204.03125 C 1032.644531 204.09375 1034.109375 204.160156 1035.578125 204.242188 C 1036.308594 204.285156 1037.039062 204.339844 1037.773438 204.390625 Z M 1067.699219 174.316406 C 1067.964844 173.519531 1068.230469 172.742188 1068.488281 171.996094 C 1067.167969 171.78125 1065.789062 171.347656 1064.613281 171.671875 C 1063.128906 172.074219 1061.660156 172.558594 1060.195312 173.058594 C 1059.5 175.238281 1058.824219 177.558594 1058.246094 179.894531 C 1061.011719 178.703125 1063.726562 177.371094 1066.3125 175.855469 C 1066.878906 175.519531 1067.3125 174.953125 1067.699219 174.316406 Z M 1055.90625 194.285156 C 1057.300781 194.019531 1058.683594 193.652344 1060.035156 193.398438 C 1061.257812 193.171875 1062.464844 192.882812 1063.667969 192.566406 C 1063.964844 190.035156 1064.335938 187.484375 1064.785156 185.140625 C 1061.929688 186.042969 1059.160156 186.996094 1056.691406 187.933594 C 1056.382812 190.050781 1056.121094 192.203125 1055.90625 194.285156 Z M 1070.574219 218.777344 C 1070.878906 218.902344 1071.183594 219.027344 1071.480469 219.148438 C 1071.242188 218.722656 1071.078125 218.4375 1071.019531 218.332031 C 1070.871094 218.480469 1070.722656 218.628906 1070.574219 218.777344 Z M 1266.660156 310.238281 C 1261.371094 310.707031 1255.929688 310.449219 1250.804688 311.605469 C 1247.800781 312.277344 1244.832031 313.09375 1241.875 313.953125 C 1239.839844 316.917969 1238.152344 319.054688 1237.273438 320.125 C 1234.328125 320.96875 1225.503906 323.34375 1215.660156 324.640625 C 1212.210938 325.09375 1208.585938 325.324219 1204.882812 325.324219 C 1199.898438 325.324219 1196.074219 324.902344 1194.507812 324.699219 C 1194.210938 324.496094 1193.820312 324.222656 1193.347656 323.878906 C 1190.238281 324.558594 1187.144531 325.335938 1184.066406 326.1875 C 1185.894531 327.71875 1187.523438 328.957031 1188.753906 329.847656 C 1188.679688 330.082031 1188.601562 330.332031 1188.519531 330.59375 C 1197.9375 329.035156 1207.617188 329.472656 1217.644531 331.804688 C 1217.789062 331.835938 1217.933594 331.867188 1218.078125 331.902344 C 1226.609375 330.683594 1234.078125 328.8125 1237.875 327.773438 C 1239.238281 329.703125 1241.417969 332.734375 1244.0625 336.214844 C 1253.023438 337.125 1262.050781 337.445312 1271.128906 337.148438 C 1271.90625 337.121094 1272.679688 337.113281 1273.457031 337.105469 C 1279.378906 329.0625 1284.460938 320.367188 1288.570312 311.144531 C 1285.933594 311.667969 1283.296875 312.195312 1280.65625 312.699219 C 1280.40625 312.746094 1280.121094 312.625 1279.234375 312.488281 C 1283.140625 310.316406 1286.945312 308.195312 1290.699219 306.105469 C 1291.496094 304.109375 1292.246094 302.085938 1292.953125 300.046875 C 1286.335938 303.082031 1279.796875 306.285156 1273.136719 309.214844 C 1271.199219 310.066406 1268.839844 310.042969 1266.660156 310.238281 Z M 1062.878906 164.675781 L 1063.140625 164.75 C 1062.535156 166.304688 1061.816406 168.238281 1061.082031 170.386719 C 1063.804688 170.226562 1066.53125 170.082031 1069.25 169.875 C 1070.144531 167.433594 1070.921875 165.515625 1071.332031 164.523438 C 1073.332031 162.796875 1080.375 156.917969 1091.542969 149.777344 C 1102.644531 142.675781 1112.492188 140.257812 1115.144531 139.703125 C 1117.582031 140.332031 1125.265625 142.359375 1131.78125 144.628906 C 1132.082031 144.734375 1132.382812 144.84375 1132.691406 144.960938 C 1136.589844 144.046875 1140.484375 143.105469 1144.363281 142.117188 C 1141.164062 140.410156 1137.558594 138.671875 1134.253906 137.523438 C 1128.773438 135.613281 1122.675781 133.914062 1119.140625 132.96875 C 1119.207031 131.539062 1119.285156 129.757812 1119.371094 127.980469 C 1132.519531 123.621094 1146.566406 121.253906 1161.15625 121.253906 C 1170.128906 121.253906 1178.894531 122.15625 1187.371094 123.855469 C 1188.515625 123.453125 1189.675781 123.066406 1190.855469 122.695312 C 1193.386719 121.898438 1195.882812 121 1198.363281 120.046875 C 1186.511719 116.761719 1174.039062 114.996094 1161.15625 114.996094 C 1115.347656 114.996094 1074.632812 137.21875 1049.199219 171.449219 C 1052.046875 171.046875 1054.914062 170.792969 1057.785156 170.59375 C 1059.429688 168.574219 1061.125 166.597656 1062.878906 164.675781 Z M 1039.964844 288.117188 C 1037.964844 283.257812 1035.808594 276.632812 1034.683594 268.738281 C 1033.269531 258.792969 1033.761719 244.539062 1033.914062 241.078125 C 1035.050781 238.871094 1039.074219 231.410156 1044.59375 224.976562 C 1049.324219 219.453125 1055.648438 214.914062 1058.746094 212.847656 C 1059.191406 213.109375 1059.703125 213.40625 1060.261719 213.722656 C 1060.808594 212.992188 1061.707031 212.628906 1063.4375 213.167969 C 1066.949219 214.265625 1068.378906 213.070312 1068.429688 209.550781 C 1066.050781 208.363281 1063.949219 207.175781 1062.539062 206.347656 C 1062.65625 204.039062 1062.886719 200.136719 1063.308594 195.859375 C 1060.777344 197.023438 1058.175781 197.875 1055.519531 198.484375 C 1055.25 201.734375 1055.097656 204.527344 1055.011719 206.292969 C 1051.726562 208.449219 1044.449219 213.578125 1038.882812 220.074219 C 1034.96875 224.636719 1031.808594 229.546875 1029.699219 233.144531 C 1030.519531 228.074219 1031.628906 223.097656 1033.007812 218.230469 C 1030.425781 219.332031 1028.046875 220.386719 1025.71875 221.347656 C 1023.117188 231.980469 1021.726562 243.089844 1021.726562 254.515625 C 1021.726562 265.820312 1023.085938 276.8125 1025.632812 287.347656 C 1027.972656 287.363281 1030.324219 287.472656 1032.683594 287.65625 C 1035.117188 287.847656 1037.546875 287.988281 1039.964844 288.117188 Z M 1034.78125 212.484375 C 1032.921875 212.921875 1031.039062 213.414062 1029.179688 214.085938 C 1030.882812 215.242188 1031.875 215.917969 1033.382812 216.945312 C 1033.824219 215.445312 1034.289062 213.957031 1034.78125 212.484375 Z M 1201.117188 381.644531 C 1201.101562 381.691406 1201.082031 381.734375 1201.066406 381.785156 C 1200.722656 382.816406 1198.902344 383.578125 1197.613281 384.035156 C 1194.902344 384.996094 1192.136719 385.917969 1189.316406 386.421875 C 1181.988281 387.730469 1175.34375 390.519531 1168.9375 393.816406 C 1201.023438 392.042969 1230.25 379.359375 1252.972656 359.421875 C 1252.0625 359.59375 1251.152344 359.769531 1250.25 359.964844 C 1250.5625 359.675781 1250.878906 359.394531 1251.207031 359.140625 C 1252.265625 358.308594 1253.316406 357.359375 1254.53125 356.855469 C 1255.289062 356.542969 1256.054688 356.238281 1256.8125 355.925781 C 1259.910156 353 1262.871094 349.929688 1265.691406 346.734375 C 1261.933594 347.691406 1258.152344 348.65625 1254.332031 349.632812 C 1239.527344 364.15625 1221.359375 375.257812 1201.117188 381.644531 Z M 1185.804688 338.210938 C 1186.246094 337.554688 1186.59375 336.75 1187.035156 336.09375 C 1186.933594 335.992188 1186.828125 335.890625 1186.726562 335.789062 C 1186.441406 336.5625 1186.136719 337.371094 1185.804688 338.210938 Z M 1300.546875 257.457031 C 1299.386719 257.886719 1298.230469 258.320312 1297.074219 258.75 C 1297.261719 259.28125 1297.453125 259.816406 1297.636719 260.347656 C 1298.585938 260.125 1299.53125 259.898438 1300.480469 259.671875 C 1300.398438 261.867188 1300.269531 264.050781 1300.089844 266.21875 C 1288.75 269.890625 1277.363281 273.429688 1266.027344 277.117188 C 1264.941406 277.46875 1264.070312 278.671875 1263.246094 279.613281 C 1260.976562 282.210938 1259.292969 285.859375 1256.464844 287.324219 C 1255.875 287.632812 1255.285156 287.9375 1254.691406 288.246094 C 1259.542969 274.78125 1260.957031 270.296875 1262.355469 262.957031 C 1260.523438 259.488281 1254.742188 248.722656 1249.945312 241.5625 C 1244.355469 233.222656 1236.578125 225.957031 1233.289062 223.050781 C 1230.433594 224.03125 1224.84375 225.839844 1217.523438 227.714844 C 1209.933594 229.664062 1203.109375 230.679688 1199.4375 231.144531 C 1198.328125 236.46875 1195.304688 248.707031 1188.519531 263.46875 C 1181.417969 278.929688 1173.019531 287.601562 1169.125 291.0625 C 1170.132812 293.949219 1172.148438 299.152344 1175.148438 304.398438 C 1173.15625 305.957031 1171.117188 307.4375 1169.027344 308.84375 C 1165.605469 303.027344 1163.324219 297.242188 1162.128906 293.855469 C 1158.40625 294.203125 1151.679688 294.703125 1143.988281 294.703125 C 1136.945312 294.703125 1130.632812 294.28125 1125.226562 293.441406 C 1111.707031 291.34375 1102.492188 288.292969 1098.1875 286.65625 C 1096.207031 289.285156 1092.761719 294.226562 1089.558594 300.585938 C 1086.503906 306.652344 1083.96875 312.871094 1083.003906 315.304688 C 1083.679688 317.882812 1085.894531 325.269531 1090.976562 333.617188 C 1092.4375 336.015625 1093.882812 338.191406 1095.261719 340.148438 C 1092.300781 339.953125 1089.351562 339.898438 1086.445312 340.539062 C 1085.820312 339.574219 1085.191406 338.574219 1084.558594 337.535156 C 1079.613281 329.410156 1077.128906 322.160156 1076.050781 318.390625 C 1070.878906 316.761719 1061.027344 313.171875 1058.078125 312.046875 C 1051.109375 309.394531 1045.621094 306.355469 1042.390625 304.382812 C 1041.558594 305.746094 1040.601562 307.511719 1039.851562 309.492188 C 1045.863281 322.726562 1053.980469 334.804688 1063.769531 345.304688 C 1061.632812 346.117188 1059.480469 346.859375 1057.3125 347.511719 C 1043.851562 332.476562 1033.601562 314.511719 1027.636719 294.703125 C 1027.9375 294.671875 1028.242188 294.644531 1028.542969 294.628906 C 1030.058594 294.546875 1031.664062 296.089844 1033.761719 297.179688 C 1036.1875 295.757812 1039 294.109375 1041.894531 292.414062 C 1042.878906 294.425781 1043.695312 295.84375 1044.132812 296.574219 C 1045.984375 297.8125 1052.210938 301.765625 1060.75 305.015625 C 1067.394531 307.542969 1073.222656 309.539062 1076.75 310.703125 C 1078.027344 307.566406 1080.226562 302.390625 1082.84375 297.195312 C 1086.511719 289.914062 1090.425781 284.410156 1092.546875 281.640625 C 1090.074219 276.554688 1084.152344 263.449219 1081.644531 249.792969 C 1079.230469 236.679688 1079.175781 226.777344 1079.355469 222.039062 C 1077.824219 221.527344 1075.757812 220.804688 1073.378906 219.890625 C 1075.054688 217.796875 1076.707031 215.738281 1078.332031 213.710938 C 1079.894531 214.277344 1081.234375 214.734375 1082.246094 215.066406 C 1086.519531 210.875 1098.285156 199.789062 1108.441406 194.347656 C 1112.109375 192.382812 1114.898438 190.796875 1117.355469 189.402344 C 1123.273438 186.039062 1127.304688 183.746094 1136.507812 180.210938 C 1137.179688 177.753906 1138.570312 173.027344 1141.082031 165.992188 C 1143.484375 159.269531 1145.390625 154.769531 1146.632812 152.070312 C 1146.601562 152.050781 1146.5625 152.03125 1146.53125 152.011719 C 1151.414062 147.363281 1157.675781 145.375 1163.921875 143.375 C 1166.257812 142.628906 1168.84375 142.660156 1171.835938 142.265625 C 1171.269531 144.082031 1170.972656 145.046875 1170.65625 146.054688 C 1179.210938 143.5 1187.601562 140.988281 1195.996094 138.484375 C 1202.433594 136.5625 1209.015625 135.015625 1215.28125 132.644531 C 1217.894531 131.65625 1220.480469 130.601562 1223.054688 129.523438 C 1231.257812 133.609375 1239 138.472656 1246.191406 144.027344 C 1245.613281 144.191406 1245.039062 144.359375 1244.464844 144.535156 C 1242 145.289062 1239.3125 145.632812 1237.109375 146.851562 C 1230.34375 150.597656 1223.652344 154.480469 1216.945312 158.328125 C 1215.882812 157.574219 1214.796875 156.835938 1213.675781 156.121094 C 1202.246094 148.835938 1192.082031 144.609375 1189.257812 143.488281 C 1186.863281 143.78125 1179.824219 144.746094 1172.285156 146.878906 C 1164.871094 148.980469 1157.113281 152.292969 1154.25 153.558594 C 1153.296875 155.496094 1151.132812 160.199219 1148.160156 168.527344 C 1146.105469 174.292969 1144.828125 178.453125 1144.101562 180.980469 C 1148.960938 183.398438 1159.390625 189.070312 1172.371094 198.964844 C 1183.5 207.445312 1194.191406 219.496094 1197.839844 223.753906 C 1201.058594 223.367188 1207.984375 222.390625 1215.652344 220.425781 C 1222.773438 218.601562 1228.253906 216.820312 1230.949219 215.898438 C 1231.691406 212.824219 1233.148438 206.113281 1234.148438 197.246094 C 1235.253906 187.421875 1235.558594 178.933594 1235.636719 175.765625 C 1233.882812 173.660156 1229.347656 168.464844 1223.097656 163.140625 C 1230.269531 159.058594 1238.082031 156.878906 1246.898438 157.675781 C 1249.925781 157.949219 1253.039062 158.402344 1256 157.980469 C 1257.5625 157.757812 1259.121094 157.375 1260.652344 156.882812 C 1285.335938 182.066406 1300.582031 216.539062 1300.582031 254.515625 C 1300.585938 255.496094 1300.566406 256.476562 1300.546875 257.457031 Z M 1294.308594 252.871094 C 1293.925781 221.296875 1282.523438 192.328125 1263.765625 169.65625 C 1255.277344 173.203125 1247.144531 175.945312 1243.121094 177.238281 C 1242.996094 181.195312 1242.644531 189.011719 1241.621094 198.085938 C 1240.597656 207.191406 1239.128906 214.054688 1238.316406 217.445312 C 1241.921875 220.628906 1250.101562 228.289062 1256.191406 237.371094 C 1260.652344 244.03125 1265.761719 253.355469 1268.195312 257.914062 C 1272.835938 256.671875 1282.453125 254.339844 1294.308594 252.871094 Z M 1063.40625 353.90625 C 1066.746094 357.195312 1070.25 360.316406 1073.90625 363.257812 C 1076.144531 362.363281 1078.382812 361.46875 1080.617188 360.570312 C 1077.339844 358.070312 1074.175781 355.425781 1071.140625 352.636719 C 1068.566406 353.082031 1065.988281 353.503906 1063.40625 353.90625 Z M 1176.621094 369.015625 C 1178.347656 366.894531 1181.402344 362.941406 1184.476562 357.960938 C 1181.019531 359.054688 1177.46875 359.734375 1173.882812 360.226562 C 1172.601562 361.984375 1171.484375 363.402344 1170.710938 364.351562 C 1166.972656 364.109375 1157.84375 363.421875 1146.078125 361.976562 C 1143.730469 364.171875 1141.847656 366.757812 1141.433594 368.921875 C 1133.46875 369.558594 1125.496094 369.710938 1117.683594 370.914062 C 1109.824219 372.121094 1102.410156 374.390625 1095.332031 377.480469 C 1108.402344 384.515625 1122.71875 389.519531 1137.855469 392.082031 C 1144.375 387.371094 1150.867188 382.628906 1157.417969 377.964844 C 1158.992188 376.84375 1160.859375 376.132812 1162.75 375.511719 C 1158.386719 381.171875 1150.742188 383.246094 1146.5625 390.28125 C 1153.136719 391.25 1156.085938 386.804688 1159.679688 384.171875 C 1165.632812 379.804688 1171.222656 374.902344 1177.179688 370.542969 C 1176.96875 369.972656 1176.777344 369.457031 1176.621094 369.015625 Z M 1096.371094 362.371094 C 1098.828125 365.074219 1105.546875 365.601562 1107.46875 363.515625 C 1108.082031 362.847656 1108.039062 360.75 1107.441406 359.957031 C 1105.683594 357.625 1099.566406 357.296875 1097.523438 359.359375 C 1096.746094 360.144531 1096.644531 361.601562 1096.371094 362.371094 Z M 1185.753906 317.628906 C 1184.445312 316.410156 1183.109375 315.074219 1181.808594 313.632812 C 1181.15625 314.089844 1180.53125 314.570312 1179.980469 315.128906 C 1178.804688 316.308594 1177.976562 317.828125 1176.996094 319.203125 C 1177.375 319.707031 1177.757812 320.207031 1178.140625 320.710938 C 1178.199219 320.769531 1178.257812 320.832031 1178.316406 320.894531 C 1180.78125 319.777344 1183.304688 318.773438 1185.753906 317.628906 Z M 1093.304688 348.453125 C 1092.933594 348.527344 1092.5625 348.597656 1092.1875 348.671875 C 1093.921875 350.925781 1095.457031 352.75 1096.675781 354.128906 C 1097.453125 353.816406 1098.230469 353.503906 1099.003906 353.195312 C 1100.691406 352.519531 1102.367188 351.789062 1104.011719 351 C 1103.203125 350.152344 1101.824219 348.636719 1100.082031 346.507812 C 1097.847656 347.273438 1095.601562 347.992188 1093.304688 348.453125 Z M 1271.796875 288.308594 C 1280.648438 285.210938 1289.570312 282.296875 1298.40625 279.15625 C 1297.964844 281.617188 1297.457031 284.050781 1296.890625 286.460938 C 1292.921875 288.210938 1288.851562 289.738281 1284.636719 290.949219 C 1282.449219 292.207031 1280.21875 293.382812 1277.886719 294.265625 C 1277.074219 294.574219 1276.253906 294.871094 1275.429688 295.164062 C 1274.160156 295.613281 1276.039062 296.09375 1278.179688 295.96875 C 1274.28125 301.292969 1260.78125 307.035156 1255.425781 307.164062 C 1252.230469 307.238281 1249.035156 307.472656 1245.84375 307.722656 C 1247.871094 304.289062 1249.957031 300.316406 1251.785156 295.96875 C 1257.753906 294.148438 1263.722656 292.328125 1269.695312 290.511719 C 1269.601562 290.417969 1269.511719 290.324219 1269.417969 290.242188 C 1270.207031 289.582031 1270.890625 288.625 1271.796875 288.308594 Z M 1259.089844 300.589844 C 1262.457031 299.949219 1266.257812 298.871094 1268.988281 297.316406 C 1271.714844 295.765625 1262.101562 296.589844 1259.089844 300.589844 Z M 1259.089844 300.589844 "/><g style="fill:#000000;fill-opacity:1;"><g transform="translate(59.628832, 116.253952)"><path style="stroke:none" d="M 4.3125 -39.921875 L 17.96875 -39.921875 L 27.8125 -11.375 L 37.53125 -39.921875 L 50.375 -39.921875 L 50.375 0 L 41.703125 0 L 41.703125 -29.53125 L 41.515625 -29.53125 L 31.4375 0 L 23.75 0 L 13.34375 -29.53125 L 13.109375 -29.53125 L 13.109375 0 L 4.3125 0 Z M 4.3125 -39.921875 "/></g></g><g style="fill:#000000;fill-opacity:1;"><g transform="translate(114.31299, 116.253952)"><path style="stroke:none" d="M 14.890625 -39.921875 L 26.578125 -39.921875 L 40.96875 0 L 31.25 0 L 27.6875 -10.515625 L 13.109375 -10.515625 L 9.59375 0 L 0.125 0 Z M 25.59375 -16.921875 L 20.546875 -31.921875 L 20.296875 -31.921875 L 15.25 -16.921875 Z M 25.59375 -16.921875 "/></g></g><g style="fill:#000000;fill-opacity:1;"><g transform="translate(155.402993, 116.253952)"><path style="stroke:none" d="M 4.3125 -39.921875 L 13.90625 -39.921875 L 13.90625 0 L 4.3125 0 Z M 4.3125 -39.921875 "/></g></g><g style="fill:#000000;fill-opacity:1;"><g transform="translate(173.610546, 116.253952)"><path style="stroke:none" d="M 17.21875 0.609375 C 13.40625 0.609375 8.691406 0.242188 3.078125 -0.484375 L 3.078125 -7.8125 C 10.046875 -6.75 14.800781 -6.21875 17.34375 -6.21875 C 22.675781 -6.21875 25.34375 -7.585938 25.34375 -10.328125 L 25.34375 -12.921875 C 25.34375 -14.234375 24.960938 -15.238281 24.203125 -15.9375 C 23.441406 -16.632812 22.078125 -16.984375 20.109375 -16.984375 L 15.4375 -16.984375 C 6.664062 -16.984375 2.28125 -20.46875 2.28125 -27.4375 L 2.28125 -30.390625 C 2.28125 -33.878906 3.734375 -36.441406 6.640625 -38.078125 C 9.554688 -39.710938 14.171875 -40.53125 20.484375 -40.53125 C 23.765625 -40.53125 27.925781 -40.265625 32.96875 -39.734375 L 32.96875 -32.609375 C 26.78125 -33.335938 22.515625 -33.703125 20.171875 -33.703125 C 16.929688 -33.703125 14.757812 -33.4375 13.65625 -32.90625 C 12.46875 -32.332031 11.875 -31.429688 11.875 -30.203125 L 11.875 -27.375 C 11.875 -25.28125 13.632812 -24.234375 17.15625 -24.234375 L 21.96875 -24.234375 C 26.519531 -24.234375 29.816406 -23.390625 31.859375 -21.703125 C 33.910156 -20.023438 34.9375 -17.46875 34.9375 -14.03125 L 34.9375 -11.375 C 34.9375 -6.625 33.234375 -3.40625 29.828125 -1.71875 C 28.191406 -0.863281 26.378906 -0.265625 24.390625 0.078125 C 22.398438 0.429688 20.007812 0.609375 17.21875 0.609375 Z M 17.21875 0.609375 "/></g></g><g style="fill:#000000;fill-opacity:1;"><g transform="translate(210.886814, 116.253952)"><path style="stroke:none" d=""/></g></g><g style="fill:#005600;fill-opacity:1;"><g transform="translate(225.037486, 116.253952)"><path style="stroke:none" d="M 4.3125 -39.921875 L 34.75 -39.921875 L 34.75 -33.09375 L 13.90625 -33.09375 L 13.90625 -23.921875 L 32.71875 -23.921875 L 32.71875 -17.09375 L 13.90625 -17.09375 L 13.90625 -6.828125 L 35.375 -6.828125 L 35.375 0 L 4.3125 0 Z M 4.3125 -39.921875 "/></g></g><g style="fill:#005600;fill-opacity:1;"><g transform="translate(262.559793, 116.253952)"><path style="stroke:none" d="M 17.21875 0.609375 C 13.40625 0.609375 8.691406 0.242188 3.078125 -0.484375 L 3.078125 -7.8125 C 10.046875 -6.75 14.800781 -6.21875 17.34375 -6.21875 C 22.675781 -6.21875 25.34375 -7.585938 25.34375 -10.328125 L 25.34375 -12.921875 C 25.34375 -14.234375 24.960938 -15.238281 24.203125 -15.9375 C 23.441406 -16.632812 22.078125 -16.984375 20.109375 -16.984375 L 15.4375 -16.984375 C 6.664062 -16.984375 2.28125 -20.46875 2.28125 -27.4375 L 2.28125 -30.390625 C 2.28125 -33.878906 3.734375 -36.441406 6.640625 -38.078125 C 9.554688 -39.710938 14.171875 -40.53125 20.484375 -40.53125 C 23.765625 -40.53125 27.925781 -40.265625 32.96875 -39.734375 L 32.96875 -32.609375 C 26.78125 -33.335938 22.515625 -33.703125 20.171875 -33.703125 C 16.929688 -33.703125 14.757812 -33.4375 13.65625 -32.90625 C 12.46875 -32.332031 11.875 -31.429688 11.875 -30.203125 L 11.875 -27.375 C 11.875 -25.28125 13.632812 -24.234375 17.15625 -24.234375 L 21.96875 -24.234375 C 26.519531 -24.234375 29.816406 -23.390625 31.859375 -21.703125 C 33.910156 -20.023438 34.9375 -17.46875 34.9375 -14.03125 L 34.9375 -11.375 C 34.9375 -6.625 33.234375 -3.40625 29.828125 -1.71875 C 28.191406 -0.863281 26.378906 -0.265625 24.390625 0.078125 C 22.398438 0.429688 20.007812 0.609375 17.21875 0.609375 Z M 17.21875 0.609375 "/></g></g><g style="fill:#005600;fill-opacity:1;"><g transform="translate(299.836061, 116.253952)"><path style="stroke:none" d="M 13.53125 -33.09375 L 1.234375 -33.09375 L 1.234375 -39.921875 L 35.375 -39.921875 L 35.375 -33.09375 L 23.125 -33.09375 L 23.125 0 L 13.53125 0 Z M 13.53125 -33.09375 "/></g></g><g style="fill:#005600;fill-opacity:1;"><g transform="translate(336.435697, 116.253952)"><path style="stroke:none" d="M 4.3125 -39.921875 L 13.90625 -39.921875 L 13.90625 0 L 4.3125 0 Z M 4.3125 -39.921875 "/></g></g><g style="fill:#005600;fill-opacity:1;"><g transform="translate(354.64325, 116.253952)"><path style="stroke:none" d="M 4.3125 -39.921875 L 13.90625 -39.921875 L 13.90625 -6.828125 L 33.53125 -6.828125 L 33.53125 0 L 4.3125 0 Z M 4.3125 -39.921875 "/></g></g><g style="fill:#005600;fill-opacity:1;"><g transform="translate(390.320205, 116.253952)"><path style="stroke:none" d="M 22.328125 0.609375 C 20.117188 0.609375 18.078125 0.460938 16.203125 0.171875 C 14.335938 -0.109375 12.398438 -0.597656 10.390625 -1.296875 C 8.222656 -2.035156 6.519531 -3.234375 5.28125 -4.890625 C 4.050781 -6.546875 3.4375 -8.566406 3.4375 -10.953125 L 3.4375 -28.421875 C 3.4375 -30.390625 3.878906 -32.148438 4.765625 -33.703125 C 5.648438 -35.265625 6.789062 -36.5 8.1875 -37.40625 C 9.414062 -38.175781 10.929688 -38.828125 12.734375 -39.359375 C 14.535156 -39.898438 16.21875 -40.234375 17.78125 -40.359375 C 19.21875 -40.472656 20.734375 -40.53125 22.328125 -40.53125 C 24.210938 -40.53125 25.851562 -40.457031 27.25 -40.3125 C 28.644531 -40.175781 30.203125 -39.882812 31.921875 -39.4375 C 33.890625 -38.851562 35.507812 -38.148438 36.78125 -37.328125 C 38.050781 -36.515625 39.117188 -35.367188 39.984375 -33.890625 C 40.890625 -32.378906 41.34375 -30.554688 41.34375 -28.421875 L 41.34375 -10.953125 C 41.34375 -8.734375 40.753906 -6.820312 39.578125 -5.21875 C 38.410156 -3.625 36.800781 -2.414062 34.75 -1.59375 C 31.0625 -0.125 26.921875 0.609375 22.328125 0.609375 Z M 22.453125 -6.21875 C 23.804688 -6.21875 24.941406 -6.265625 25.859375 -6.359375 C 26.785156 -6.460938 27.742188 -6.660156 28.734375 -6.953125 C 29.710938 -7.234375 30.457031 -7.710938 30.96875 -8.390625 C 31.476562 -9.066406 31.734375 -9.921875 31.734375 -10.953125 L 31.734375 -28.484375 C 31.734375 -30.367188 30.972656 -31.707031 29.453125 -32.5 C 27.941406 -33.300781 25.585938 -33.703125 22.390625 -33.703125 C 19.191406 -33.703125 16.832031 -33.3125 15.3125 -32.53125 C 13.800781 -31.757812 13.046875 -30.410156 13.046875 -28.484375 L 13.046875 -10.953125 C 13.046875 -9.921875 13.3125 -9.066406 13.84375 -8.390625 C 14.375 -7.710938 15.148438 -7.234375 16.171875 -6.953125 C 17.160156 -6.660156 18.113281 -6.460938 19.03125 -6.359375 C 19.957031 -6.265625 21.097656 -6.21875 22.453125 -6.21875 Z M 22.453125 -6.21875 "/></g></g><g style="fill:#005600;fill-opacity:1;"><g transform="translate(435.100936, 116.253952)"><path style="stroke:none" d="M 4 -8.484375 L 13.34375 -8.484375 L 7.5625 6.890625 L 1.171875 6.890625 Z M 4 -8.484375 "/></g></g><g style="fill:#000000;fill-opacity:1;"><g transform="translate(59.628832, 174.654121)"><path style="stroke:none" d="M 4.3125 -39.921875 L 17.96875 -39.921875 L 27.8125 -11.375 L 37.53125 -39.921875 L 50.375 -39.921875 L 50.375 0 L 41.703125 0 L 41.703125 -29.53125 L 41.515625 -29.53125 L 31.4375 0 L 23.75 0 L 13.34375 -29.53125 L 13.109375 -29.53125 L 13.109375 0 L 4.3125 0 Z M 4.3125 -39.921875 "/></g></g><g style="fill:#000000;fill-opacity:1;"><g transform="translate(114.31299, 174.654121)"><path style="stroke:none" d="M 14.890625 -39.921875 L 26.578125 -39.921875 L 40.96875 0 L 31.25 0 L 27.6875 -10.515625 L 13.109375 -10.515625 L 9.59375 0 L 0.125 0 Z M 25.59375 -16.921875 L 20.546875 -31.921875 L 20.296875 -31.921875 L 15.25 -16.921875 Z M 25.59375 -16.921875 "/></g></g><g style="fill:#000000;fill-opacity:1;"><g transform="translate(155.402993, 174.654121)"><path style="stroke:none" d="M 4.3125 -39.921875 L 13.90625 -39.921875 L 13.90625 0 L 4.3125 0 Z M 4.3125 -39.921875 "/></g></g><g style="fill:#000000;fill-opacity:1;"><g transform="translate(173.610546, 174.654121)"><path style="stroke:none" d="M 17.21875 0.609375 C 13.40625 0.609375 8.691406 0.242188 3.078125 -0.484375 L 3.078125 -7.8125 C 10.046875 -6.75 14.800781 -6.21875 17.34375 -6.21875 C 22.675781 -6.21875 25.34375 -7.585938 25.34375 -10.328125 L 25.34375 -12.921875 C 25.34375 -14.234375 24.960938 -15.238281 24.203125 -15.9375 C 23.441406 -16.632812 22.078125 -16.984375 20.109375 -16.984375 L 15.4375 -16.984375 C 6.664062 -16.984375 2.28125 -20.46875 2.28125 -27.4375 L 2.28125 -30.390625 C 2.28125 -33.878906 3.734375 -36.441406 6.640625 -38.078125 C 9.554688 -39.710938 14.171875 -40.53125 20.484375 -40.53125 C 23.765625 -40.53125 27.925781 -40.265625 32.96875 -39.734375 L 32.96875 -32.609375 C 26.78125 -33.335938 22.515625 -33.703125 20.171875 -33.703125 C 16.929688 -33.703125 14.757812 -33.4375 13.65625 -32.90625 C 12.46875 -32.332031 11.875 -31.429688 11.875 -30.203125 L 11.875 -27.375 C 11.875 -25.28125 13.632812 -24.234375 17.15625 -24.234375 L 21.96875 -24.234375 C 26.519531 -24.234375 29.816406 -23.390625 31.859375 -21.703125 C 33.910156 -20.023438 34.9375 -17.46875 34.9375 -14.03125 L 34.9375 -11.375 C 34.9375 -6.625 33.234375 -3.40625 29.828125 -1.71875 C 28.191406 -0.863281 26.378906 -0.265625 24.390625 0.078125 C 22.398438 0.429688 20.007812 0.609375 17.21875 0.609375 Z M 17.21875 0.609375 "/></g></g><g style="fill:#003900;fill-opacity:1;"><g transform="translate(210.893692, 174.654121)"><path style="stroke:none" d=""/></g></g><g style="fill:#003900;fill-opacity:1;"><g transform="translate(225.041447, 174.654121)"><path style="stroke:none" d="M 4.3125 -39.921875 L 35.375 -39.921875 L 35.375 -33.09375 L 13.90625 -33.09375 L 13.90625 -23.3125 L 33.34375 -23.3125 L 33.34375 -16.484375 L 13.90625 -16.484375 L 13.90625 0 L 4.3125 0 Z M 4.3125 -39.921875 "/></g></g><g style="fill:#003900;fill-opacity:1;"><g transform="translate(262.563754, 174.654121)"><path style="stroke:none" d="M 21.46875 0.609375 C 9.945312 0.609375 4.1875 -3.242188 4.1875 -10.953125 L 4.1875 -39.921875 L 13.78125 -39.921875 L 13.78125 -10.953125 C 13.78125 -9.148438 14.363281 -7.910156 15.53125 -7.234375 C 16.695312 -6.554688 18.71875 -6.21875 21.59375 -6.21875 C 24.425781 -6.21875 26.40625 -6.554688 27.53125 -7.234375 C 28.65625 -7.910156 29.21875 -9.148438 29.21875 -10.953125 L 29.21875 -39.921875 L 38.8125 -39.921875 L 38.8125 -10.953125 C 38.8125 -3.242188 33.03125 0.609375 21.46875 0.609375 Z M 21.46875 0.609375 "/></g></g><g style="fill:#003900;fill-opacity:1;"><g transform="translate(305.560631, 174.654121)"><path style="stroke:none" d="M 13.53125 -33.09375 L 1.234375 -33.09375 L 1.234375 -39.921875 L 35.375 -39.921875 L 35.375 -33.09375 L 23.125 -33.09375 L 23.125 0 L 13.53125 0 Z M 13.53125 -33.09375 "/></g></g><g style="fill:#003900;fill-opacity:1;"><g transform="translate(342.160267, 174.654121)"><path style="stroke:none" d="M 4.3125 -39.921875 L 34.75 -39.921875 L 34.75 -33.09375 L 13.90625 -33.09375 L 13.90625 -23.921875 L 32.71875 -23.921875 L 32.71875 -17.09375 L 13.90625 -17.09375 L 13.90625 -6.828125 L 35.375 -6.828125 L 35.375 0 L 4.3125 0 Z M 4.3125 -39.921875 "/></g></g><g style="fill:#003900;fill-opacity:1;"><g transform="translate(379.682574, 174.654121)"><path style="stroke:none" d="M 4.3125 -39.921875 L 20.484375 -39.921875 C 24.296875 -39.921875 27.238281 -39.644531 29.3125 -39.09375 C 31.382812 -38.539062 32.847656 -37.660156 33.703125 -36.453125 C 34.566406 -35.242188 35 -33.550781 35 -31.375 L 35 -26.453125 C 35 -25.347656 34.554688 -24.300781 33.671875 -23.3125 C 32.796875 -22.332031 31.765625 -21.65625 30.578125 -21.28125 L 30.578125 -20.984375 C 32.128906 -20.816406 33.550781 -20.144531 34.84375 -18.96875 C 36.132812 -17.800781 36.78125 -16.503906 36.78125 -15.078125 L 36.78125 -8.921875 C 36.78125 -5.679688 35.488281 -3.382812 32.90625 -2.03125 C 30.320312 -0.675781 26.328125 0 20.921875 0 L 4.3125 0 Z M 20.484375 -23.6875 C 22.003906 -23.6875 23.128906 -23.804688 23.859375 -24.046875 C 24.597656 -24.296875 25.101562 -24.695312 25.375 -25.25 C 25.644531 -25.800781 25.78125 -26.613281 25.78125 -27.6875 L 25.78125 -29.65625 C 25.78125 -30.59375 25.65625 -31.296875 25.40625 -31.765625 C 25.15625 -32.242188 24.648438 -32.582031 23.890625 -32.78125 C 23.140625 -32.988281 21.941406 -33.09375 20.296875 -33.09375 L 13.90625 -33.09375 L 13.90625 -23.6875 Z M 20.734375 -6.828125 C 23.066406 -6.828125 24.722656 -7.09375 25.703125 -7.625 C 26.691406 -8.15625 27.1875 -9.019531 27.1875 -10.21875 L 27.1875 -13.40625 C 27.1875 -14.882812 26.804688 -15.929688 26.046875 -16.546875 C 25.285156 -17.160156 23.941406 -17.46875 22.015625 -17.46875 L 13.90625 -17.46875 L 13.90625 -6.828125 Z M 20.734375 -6.828125 "/></g></g><g style="fill:#003900;fill-opacity:1;"><g transform="translate(418.742673, 174.654121)"><path style="stroke:none" d="M 22.328125 0.609375 C 20.117188 0.609375 18.078125 0.460938 16.203125 0.171875 C 14.335938 -0.109375 12.398438 -0.597656 10.390625 -1.296875 C 8.222656 -2.035156 6.519531 -3.234375 5.28125 -4.890625 C 4.050781 -6.546875 3.4375 -8.566406 3.4375 -10.953125 L 3.4375 -28.421875 C 3.4375 -30.390625 3.878906 -32.148438 4.765625 -33.703125 C 5.648438 -35.265625 6.789062 -36.5 8.1875 -37.40625 C 9.414062 -38.175781 10.929688 -38.828125 12.734375 -39.359375 C 14.535156 -39.898438 16.21875 -40.234375 17.78125 -40.359375 C 19.21875 -40.472656 20.734375 -40.53125 22.328125 -40.53125 C 24.210938 -40.53125 25.851562 -40.457031 27.25 -40.3125 C 28.644531 -40.175781 30.203125 -39.882812 31.921875 -39.4375 C 33.890625 -38.851562 35.507812 -38.148438 36.78125 -37.328125 C 38.050781 -36.515625 39.117188 -35.367188 39.984375 -33.890625 C 40.890625 -32.378906 41.34375 -30.554688 41.34375 -28.421875 L 41.34375 -10.953125 C 41.34375 -8.734375 40.753906 -6.820312 39.578125 -5.21875 C 38.410156 -3.625 36.800781 -2.414062 34.75 -1.59375 C 31.0625 -0.125 26.921875 0.609375 22.328125 0.609375 Z M 22.453125 -6.21875 C 23.804688 -6.21875 24.941406 -6.265625 25.859375 -6.359375 C 26.785156 -6.460938 27.742188 -6.660156 28.734375 -6.953125 C 29.710938 -7.234375 30.457031 -7.710938 30.96875 -8.390625 C 31.476562 -9.066406 31.734375 -9.921875 31.734375 -10.953125 L 31.734375 -28.484375 C 31.734375 -30.367188 30.972656 -31.707031 29.453125 -32.5 C 27.941406 -33.300781 25.585938 -33.703125 22.390625 -33.703125 C 19.191406 -33.703125 16.832031 -33.3125 15.3125 -32.53125 C 13.800781 -31.757812 13.046875 -30.410156 13.046875 -28.484375 L 13.046875 -10.953125 C 13.046875 -9.921875 13.3125 -9.066406 13.84375 -8.390625 C 14.375 -7.710938 15.148438 -7.234375 16.171875 -6.953125 C 17.160156 -6.660156 18.113281 -6.460938 19.03125 -6.359375 C 19.957031 -6.265625 21.097656 -6.21875 22.453125 -6.21875 Z M 22.453125 -6.21875 "/></g></g><g style="fill:#003900;fill-opacity:1;"><g transform="translate(463.523415, 174.654121)"><path style="stroke:none" d="M 4.3125 -39.921875 L 13.90625 -39.921875 L 13.90625 -6.828125 L 33.53125 -6.828125 L 33.53125 0 L 4.3125 0 Z M 4.3125 -39.921875 "/></g></g><g style="fill:#003900;fill-opacity:1;"><g transform="translate(499.200381, 174.654121)"><path style="stroke:none" d="M 3.078125 -8.484375 L 12.671875 -8.484375 L 12.671875 0 L 3.078125 0 Z M 3.078125 -8.484375 "/></g></g><g style="fill:#005600;fill-opacity:1;"><g transform="translate(110.168865, 322.13363)"><path style="stroke:none" d="M 48.5 0 L 27.859375 0 L 27.859375 -39.859375 C 27.859375 -44.691406 27.960938 -49.117188 28.171875 -53.140625 C 26.898438 -51.597656 25.316406 -49.984375 23.421875 -48.296875 L 14.875 -41.25 L 4.328125 -54.21875 L 30.171875 -75.28125 L 48.5 -75.28125 Z M 48.5 0 "/></g></g><g style="fill:#005600;fill-opacity:1;"><g transform="translate(171.950612, 322.13363)"><path style="stroke:none" d="M 58.078125 -37.53125 C 58.078125 -24.21875 55.84375 -14.460938 51.375 -8.265625 C 46.914062 -2.066406 40.085938 1.03125 30.890625 1.03125 C 21.898438 1.03125 15.117188 -2.203125 10.546875 -8.671875 C 5.984375 -15.140625 3.703125 -24.757812 3.703125 -37.53125 C 3.703125 -50.925781 5.929688 -60.742188 10.390625 -66.984375 C 14.859375 -73.234375 21.691406 -76.359375 30.890625 -76.359375 C 39.847656 -76.359375 46.617188 -73.101562 51.203125 -66.59375 C 55.785156 -60.09375 58.078125 -50.40625 58.078125 -37.53125 Z M 23.9375 -37.53125 C 23.9375 -29.019531 24.46875 -23.164062 25.53125 -19.96875 C 26.601562 -16.78125 28.390625 -15.1875 30.890625 -15.1875 C 33.429688 -15.1875 35.222656 -16.832031 36.265625 -20.125 C 37.316406 -23.425781 37.84375 -29.226562 37.84375 -37.53125 C 37.84375 -45.875 37.3125 -51.71875 36.25 -55.0625 C 35.1875 -58.414062 33.398438 -60.09375 30.890625 -60.09375 C 28.390625 -60.09375 26.601562 -58.476562 25.53125 -55.25 C 24.46875 -52.019531 23.9375 -46.113281 23.9375 -37.53125 Z M 23.9375 -37.53125 "/></g></g><g style="fill:#005600;fill-opacity:1;"><g transform="translate(235.987178, 287.658948)"><path style="stroke:none" d="M 10 -30.234375 C 10 -27.960938 10.1875 -26.320312 10.5625 -25.3125 C 10.9375 -24.3125 11.5 -23.8125 12.25 -23.8125 C 13 -23.8125 13.554688 -24.300781 13.921875 -25.28125 C 14.285156 -26.269531 14.46875 -27.921875 14.46875 -30.234375 C 14.46875 -32.492188 14.285156 -34.128906 13.921875 -35.140625 C 13.554688 -36.148438 13 -36.65625 12.25 -36.65625 C 11.476562 -36.65625 10.910156 -36.140625 10.546875 -35.109375 C 10.179688 -34.085938 10 -32.460938 10 -30.234375 Z M 23.390625 -30.34375 C 23.390625 -26.007812 22.414062 -22.65625 20.46875 -20.28125 C 18.519531 -17.90625 15.738281 -16.71875 12.125 -16.71875 C 8.738281 -16.71875 6.050781 -17.941406 4.0625 -20.390625 C 2.082031 -22.847656 1.09375 -26.164062 1.09375 -30.34375 C 1.09375 -34.6875 2.054688 -38.023438 3.984375 -40.359375 C 5.921875 -42.691406 8.632812 -43.859375 12.125 -43.859375 C 15.570312 -43.859375 18.3125 -42.644531 20.34375 -40.21875 C 22.375 -37.800781 23.390625 -34.507812 23.390625 -30.34375 Z M 44.953125 -43.25 L 20.96875 0 L 12.1875 0 L 36.171875 -43.25 Z M 42.890625 -13.015625 C 42.890625 -10.742188 43.078125 -9.101562 43.453125 -8.09375 C 43.828125 -7.09375 44.390625 -6.59375 45.140625 -6.59375 C 45.984375 -6.59375 46.566406 -7.171875 46.890625 -8.328125 C 47.222656 -9.484375 47.390625 -11.046875 47.390625 -13.015625 C 47.390625 -14.984375 47.222656 -16.546875 46.890625 -17.703125 C 46.566406 -18.859375 45.984375 -19.4375 45.140625 -19.4375 C 44.367188 -19.4375 43.800781 -18.921875 43.4375 -17.890625 C 43.070312 -16.867188 42.890625 -15.242188 42.890625 -13.015625 Z M 56.296875 -13.140625 C 56.296875 -8.816406 55.3125 -5.46875 53.34375 -3.09375 C 51.382812 -0.71875 48.609375 0.46875 45.015625 0.46875 C 41.628906 0.46875 38.941406 -0.753906 36.953125 -3.203125 C 34.972656 -5.660156 33.984375 -8.972656 33.984375 -13.140625 C 33.984375 -17.472656 34.945312 -20.804688 36.875 -23.140625 C 38.8125 -25.484375 41.523438 -26.65625 45.015625 -26.65625 C 48.472656 -26.65625 51.21875 -25.441406 53.25 -23.015625 C 55.28125 -20.585938 56.296875 -17.296875 56.296875 -13.140625 Z M 56.296875 -13.140625 "/></g></g><g style="fill:#005600;fill-opacity:1;"><g transform="translate(237.290351, 323.671851)"><path style="stroke:none" d="M 22.265625 -10.6875 C 22.265625 -7.101562 21.382812 -4.375 19.625 -2.5 C 17.863281 -0.632812 15.285156 0.296875 11.890625 0.296875 C 8.546875 0.296875 5.976562 -0.640625 4.1875 -2.515625 C 2.40625 -4.398438 1.515625 -7.132812 1.515625 -10.71875 C 1.515625 -14.269531 2.398438 -16.976562 4.171875 -18.84375 C 5.953125 -20.71875 8.535156 -21.65625 11.921875 -21.65625 C 15.316406 -21.65625 17.890625 -20.726562 19.640625 -18.875 C 21.390625 -17.019531 22.265625 -14.289062 22.265625 -10.6875 Z M 7.578125 -10.6875 C 7.578125 -6.5625 9.015625 -4.5 11.890625 -4.5 C 13.347656 -4.5 14.425781 -5 15.125 -6 C 15.832031 -7.007812 16.1875 -8.570312 16.1875 -10.6875 C 16.1875 -12.820312 15.828125 -14.394531 15.109375 -15.40625 C 14.398438 -16.425781 13.335938 -16.9375 11.921875 -16.9375 C 9.023438 -16.9375 7.578125 -14.851562 7.578125 -10.6875 Z M 7.578125 -10.6875 "/></g><g transform="translate(261.097581, 323.671851)"><path style="stroke:none" d="M 7.984375 0 L 2.3125 0 L 2.3125 -21.328125 L 14.90625 -21.328125 L 14.90625 -16.703125 L 7.984375 -16.703125 L 7.984375 -12.625 L 14.375 -12.625 L 14.375 -8.015625 L 7.984375 -8.015625 Z M 7.984375 0 "/></g><g transform="translate(277.202471, 323.671851)"><path style="stroke:none" d="M 7.984375 0 L 2.3125 0 L 2.3125 -21.328125 L 14.90625 -21.328125 L 14.90625 -16.703125 L 7.984375 -16.703125 L 7.984375 -12.625 L 14.375 -12.625 L 14.375 -8.015625 L 7.984375 -8.015625 Z M 7.984375 0 "/></g></g></g></svg>